M48
;GenerationSoftware,Autodesk,EAGLE,9.3.2*%
;CreationDate,2019-04-07T22:04:23Z*%
FMAT,2
ICI,OFF
METRIC,TZ,000.000
T4C0.813
T3C1.016
T2C1.300
T1C2.000
%
G90
M71
T1
X63246Y14372
X63246Y23372
T2
X44895Y19337
X24895Y19337
X56996Y21372
X69496Y21372
X56996Y16372
X69496Y16372
T3
X38252Y14478
X35712Y14478
X33172Y14478
X30632Y14478
X28092Y14478
T4
X30175Y77826
X27635Y77826
X15291Y57582
X12751Y57582
X88722Y59411
X86182Y59411
X71298Y75667
X68758Y75667
X48946Y83287
X46406Y83287
M30