<?xml version="1.0" encoding="UTF-8" standalone="no"?>
<!-- Created with Inkscape (http://www.inkscape.org/) -->

<svg
   xmlns:dc="http://purl.org/dc/elements/1.1/"
   xmlns:cc="http://creativecommons.org/ns#"
   xmlns:rdf="http://www.w3.org/1999/02/22-rdf-syntax-ns#"
   xmlns:svg="http://www.w3.org/2000/svg"
   xmlns="http://www.w3.org/2000/svg"
   xmlns:sodipodi="http://sodipodi.sourceforge.net/DTD/sodipodi-0.dtd"
   xmlns:inkscape="http://www.inkscape.org/namespaces/inkscape"
   id="svg2"
   version="1.1"
   inkscape:version="0.91 r13725"
   width="10cm"
   height="10cm"
   viewBox="0 0 354.33073 354.33071"
   sodipodi:docname="bear-paw-clipart_Outline.svg">
  <metadata
     id="metadata8">
    <rdf:RDF>
      <cc:Work
         rdf:about="">
        <dc:format>image/svg+xml</dc:format>
        <dc:type
           rdf:resource="http://purl.org/dc/dcmitype/StillImage" />
        <dc:title></dc:title>
      </cc:Work>
    </rdf:RDF>
  </metadata>
  <defs
     id="defs6" />
  <sodipodi:namedview
     pagecolor="#ffffff"
     bordercolor="#666666"
     borderopacity="1"
     objecttolerance="10"
     gridtolerance="10"
     guidetolerance="10"
     inkscape:pageopacity="0"
     inkscape:pageshadow="2"
     inkscape:window-width="1920"
     inkscape:window-height="1017"
     id="namedview4"
     showgrid="false"
     units="cm"
     inkscape:zoom="1.3898704"
     inkscape:cx="230.17968"
     inkscape:cy="143.06253"
     inkscape:window-x="1912"
     inkscape:window-y="-8"
     inkscape:window-maximized="1"
     inkscape:current-layer="svg2" />
  <path
     style="fill:none;stroke:#000000;stroke-opacity:1"
     d="M 107.12672,351.35121 C 87.073319,347.80886 71.058148,338.05567 61.582543,323.61496 52.988358,310.51751 48.825124,291.52292 50.537523,273.22253 l 0.726331,-7.7623 -2.653733,-2.20698 C 38.43448,254.79064 31.94028,247.06634 27.633534,238.30334 c -4.294913,-8.73891 -5.566528,-15.09289 -5.182101,-25.89377 0.352724,-9.91043 1.520807,-15.20619 5.432766,-24.63064 l 2.359343,-5.684 -1.461229,-4.22529 c -7.400756,-21.4 1.768607,-52.39638 21.192726,-71.64059 2.071902,-2.05268 4.90367,-4.37098 6.292839,-5.15173 l 2.525758,-1.419544 0.01474,5.233084 c 0.01895,6.73676 2.065523,12.47209 6.597101,18.48622 3.054749,4.05412 8.213799,8.52966 8.965666,7.7778 0.179993,-0.18 0.03642,-1.86147 -0.319294,-3.7366 -1.246164,-6.571 -1.800227,-19.38237 -1.202692,-27.809618 C 74.391518,77.855936 81.223432,60.328253 93.792458,45.877318 101.74578,36.733217 115.1877,29.633524 132.25901,25.560286 l 1.67402,-0.399438 -1.79233,3.311961 c -2.80203,5.177681 -5.56902,14.22088 -7.0446,23.023478 -1.13817,6.789747 -1.24796,8.774599 -0.69697,12.599341 0.76684,5.32277 3.58812,11.723794 7.27182,16.498543 l 2.59668,3.365811 1.79012,-2.876103 c 1.00335,-1.612024 1.79223,-3.779017 1.7949,-4.930511 0.0221,-9.481289 5.71606,-25.266132 13.15722,-36.474177 6.52062,-9.821528 16.61603,-19.86488 24.77509,-24.647376 8.1729,-4.790579 19.6167,-8.4744206 28.71489,-9.2434866 l 4.8226,-0.407669 -2.27219,3.5520149 c -2.8844,4.5090107 -6.14049,11.6321137 -9.00263,19.6942977 -2.08725,5.879443 -2.26432,6.969698 -2.56441,15.788885 -0.38146,11.210234 0.46032,16.348064 3.91863,23.917866 4.18825,9.167447 11.95324,19.343678 14.76023,19.343678 0.5132,0 3.26727,-2.365932 6.12017,-5.257614 4.18717,-4.244094 5.75204,-6.405067 8.11774,-11.210108 4.71218,-9.571033 5.65903,-14.077918 5.7137,-27.196881 l 0.0465,-11.139501 3.47355,1.760608 c 5.82943,2.954732 14.37822,9.447606 19.15259,14.546532 7.23213,7.723817 13.40374,19.121645 16.25971,30.028796 1.58862,6.067037 2.28421,18.621221 1.31661,23.762167 -0.6227,3.30834 -0.546,3.91209 0.9171,7.22045 2.55378,5.77456 4.67109,14.57667 5.09364,21.1755 0.21528,3.36183 0.63895,6.48803 0.94146,6.94711 0.76564,1.16181 8.66343,-7.09698 10.58735,-11.07125 2.22171,-4.58945 3.7918,-15.09036 3.81479,-25.5137 0.0168,-7.507889 0.17452,-8.999665 0.95276,-8.999665 1.74768,0 9.31206,3.151461 13.19461,5.4971 4.78681,2.891975 12.93149,11.096365 16.59691,16.718595 5.99618,9.19728 8.85108,20.33358 8.22862,32.09807 -0.426,8.05153 -1.51655,13.36432 -4.84049,23.58133 -1.81732,5.58596 -2.53479,8.8695 -2.53479,11.60047 0,18.33667 -11.6438,41.06203 -31.64495,61.76193 l -5.49213,5.684 0.87527,5.0259 c 1.47736,8.48322 2.31647,21.1475 1.88478,28.44654 -1.54889,26.18955 -10.69344,44.57042 -28.09315,56.46831 -10.96784,7.49979 -29.65464,11.97276 -46.7889,11.19961 -8.51596,-0.38426 -10.22428,-0.636 -26.84111,-3.95518 -7.93665,-1.58533 -10.13482,-1.76459 -21.47288,-1.75099 -13.44213,0.0168 -12.96512,-0.0488 -31.89355,4.33815 -11.75045,2.72331 -22.37003,3.3827 -30.72101,1.90753 z"
     id="path3338"
     inkscape:connector-curvature="0"
     sodipodi:nodetypes="csscsssscssscssccssscsssscscssscsssssssscsssssscscssssssscssssscscc" />
</svg>
