<?xml version="1.0" encoding="UTF-8" standalone="no"?>
<!-- Created with Inkscape (http://www.inkscape.org/) -->

<svg
   xmlns:dc="http://purl.org/dc/elements/1.1/"
   xmlns:cc="http://creativecommons.org/ns#"
   xmlns:rdf="http://www.w3.org/1999/02/22-rdf-syntax-ns#"
   xmlns:svg="http://www.w3.org/2000/svg"
   xmlns="http://www.w3.org/2000/svg"
   xmlns:sodipodi="http://sodipodi.sourceforge.net/DTD/sodipodi-0.dtd"
   xmlns:inkscape="http://www.inkscape.org/namespaces/inkscape"
   width="99.979195mm"
   height="100.01033mm"
   viewBox="0 0 99.979195 100.01033"
   version="1.1"
   id="svg4728"
   inkscape:version="0.92.3 (2405546, 2018-03-11)"
   sodipodi:docname="bear-paw-clipart_letters.svg">
  <defs
     id="defs4722" />
  <sodipodi:namedview
     id="base"
     pagecolor="#ffffff"
     bordercolor="#666666"
     borderopacity="1.0"
     inkscape:pageopacity="0.0"
     inkscape:pageshadow="2"
     inkscape:zoom="1.4"
     inkscape:cx="-14.028256"
     inkscape:cy="153.75834"
     inkscape:document-units="mm"
     inkscape:current-layer="layer1"
     showgrid="false"
     inkscape:window-width="1920"
     inkscape:window-height="1017"
     inkscape:window-x="-8"
     inkscape:window-y="-8"
     inkscape:window-maximized="1"
     fit-margin-top="0"
     fit-margin-left="0"
     fit-margin-right="0"
     fit-margin-bottom="0" />
  <metadata
     id="metadata4725">
    <rdf:RDF>
      <cc:Work
         rdf:about="">
        <dc:format>image/svg+xml</dc:format>
        <dc:type
           rdf:resource="http://purl.org/dc/dcmitype/StillImage" />
        <dc:title></dc:title>
      </cc:Work>
    </rdf:RDF>
  </metadata>
  <g
     inkscape:label="Layer 1"
     inkscape:groupmode="layer"
     id="layer1"
     transform="translate(6.1762798,1.6328202)">
    <path
       style="fill:#000000;stroke-width:0.0635"
       d="m 24.811452,97.487665 c -0.25405,-0.0295 -0.8827,-0.13871 -1.397,-0.24262 -5.73314,-1.15822 -10.1898,-4.16841 -12.67771,-8.562984 -1.2560579,-2.218665 -2.1050682,-4.993577 -2.4911882,-8.142212 -0.168534,-1.374318 -0.155568,-4.158768 0.02778,-5.967089 0.07603,-0.74984 0.117372,-1.380928 0.09187,-1.402436 -0.0255,-0.0215 -0.39356,-0.328625 -0.8179162,-0.682498 -3.308902,-2.759342 -5.213784,-5.229606 -6.454815,-8.370678 -0.59346597,-1.502072 -0.81221397,-2.838623 -0.81067097,-4.953186 0.0024,-3.345816 0.285124,-4.739159 1.62925497,-8.030611 0.293724,-0.719261 0.534044,-1.348767 0.534044,-1.398904 0,-0.05014 -0.126189,-0.461907 -0.280419,-0.915046 -0.588085,-1.727826 -0.73583,-2.569576 -0.78124,-4.450963 -0.05938,-2.460294 0.270782,-4.527829 1.121564,-7.023396 1.316219,-3.860816 3.838556,-7.664657 6.4920345,-9.790393 0.43834,-0.351159 1.1210279,-0.799303 1.2176339,-0.799303 0.01347,0 0.04071,0.550069 0.06053,1.222375 0.04694,1.592547 0.205682,2.310112 0.776137,3.508375 0.523331,1.099287 1.244641,2.072344 2.260201,3.049039 0.69438,0.667817 1.16292,0.996744 1.38185,0.970101 0.28434,-0.0346 0.29993,-0.16147 0.14374,-1.169805 -0.0797,-0.514187 -0.18725,-1.351349 -0.23911,-1.86036 -0.13461,-1.321167 -0.18719,-4.748032 -0.0927,-6.03942 0.44856,-6.12828 2.37057,-11.033256 5.90798,-15.077158 1.78725,-2.0431544 4.75604,-3.8239578 8.25727,-4.9530468 0.89326,-0.28806 2.55303,-0.740246 2.58816,-0.705114 0.0141,0.01411 -0.11688,0.292411 -0.29108,0.618455 -0.59382,1.111453 -1.13821,2.6703284 -1.59299,4.5615578 -0.40974,1.703917 -0.70409,3.566778 -0.70409,4.455978 0,1.533309 0.66805,3.594132 1.6535,5.100773 0.38588,0.589966 1.31912,1.810408 1.38279,1.808333 0.0239,-7.82e-4 0.21989,-0.293673 0.43551,-0.650876 0.47554,-0.787765 0.7192,-1.471364 0.7192,-2.017754 0,-1.239852 0.56943,-3.494815 1.41033,-5.584954 1.287,-3.198965 2.9584,-5.7041228 5.50952,-8.2578718 2.10708,-2.1092519 3.62452,-3.1579754 5.9555,-4.1159169 1.40214,-0.5762247 3.12965,-1.0845453 4.46015,-1.312407 0.60099,-0.1029242 2.29835,-0.2832077 2.33927,-0.2484626 0.0118,0.010047 -0.18596,0.3562493 -0.43953,0.7693376 -1.13556,1.8498794 -2.69945,5.5752649 -3.03813,7.2372199 -0.29057,1.4258304 -0.33233,5.1591548 -0.0743,6.6378848 0.29518,1.691345 1.07849,3.523856 2.34305,5.481467 0.93721,1.450848 2.0012,2.670454 2.56987,2.945743 0.28104,0.136052 0.30467,0.137857 0.51261,0.03918 0.53708,-0.254864 2.5324,-2.295764 3.16445,-3.236738 0.67115,-0.999182 1.54138,-2.859467 1.89694,-4.055046 0.40803,-1.372017 0.56214,-3.158865 0.56644,-6.5675184 9.8e-4,-0.777081 0.0234,-1.4128754 0.0499,-1.4128754 0.0264,0 0.40563,0.194868 0.84264,0.43304 2.20443,1.2014224 4.67969,3.2236238 6.03966,4.9342048 1.82223,2.291998 3.41022,5.615367 3.88888,8.138711 0.32855,1.731912 0.43483,4.860211 0.21004,6.181488 -0.13526,0.794987 -0.11063,0.955287 0.3008,1.957273 0.77392,1.884852 1.26009,3.956737 1.43248,6.104786 0.0757,0.94368 0.17609,1.622732 0.26509,1.793875 0.193,0.371083 1.0143,-0.252899 2.26797,-1.723086 0.92621,-1.086176 1.31608,-1.964203 1.62448,-3.65854 0.26858,-1.475608 0.34888,-2.374199 0.41704,-4.66725 0.0358,-1.204912 0.0807,-2.314019 0.0997,-2.464682 0.0341,-0.26969 0.0377,-0.273273 0.23649,-0.231329 0.28704,0.06057 1.3135,0.446578 1.94813,0.732594 1.59178,0.717393 2.34781,1.258446 3.84839,2.754092 1.91028,1.903996 2.81679,3.227364 3.62283,5.288803 0.63828,1.632417 0.91165,3.084507 0.95727,5.084815 0.0612,2.683999 -0.20279,4.296764 -1.25182,7.647354 -0.64235,2.05165 -0.75186,2.580883 -0.82463,3.984854 -0.0685,1.320534 -0.15663,1.909476 -0.48495,3.2385 -0.89525,3.624014 -3.2205,7.770481 -6.52099,11.628464 -0.83109,0.971467 -1.55351,1.752486 -2.75322,2.976537 l -0.71574,0.73025 0.18459,1.0795 c 1.0553,6.171928 0.77456,11.405204 -0.85512,15.939739 -0.59797,1.66384 -1.6329,3.532029 -2.72557,4.920012 -0.88994,1.130465 -2.53428,2.62008 -3.85415,3.491485 -2.21565,1.462814 -5.55251,2.512074 -9.3279,2.933124 -0.94653,0.10557 -4.22627,0.10576 -5.2705,0 -1.10001,-0.11107 -2.34601,-0.3191 -4.81105,-0.80321 -1.16177,-0.22817 -2.3905,-0.45755 -2.7305,-0.50974 -1.07423,-0.1649 -3.14638,-0.24086 -5.41245,-0.19842 -2.82371,0.0529 -3.06404,0.0864 -6.94289,0.96815 -3.4774,0.79049 -4.88528,0.98147 -7.13643,0.96806 -0.76061,-0.004 -1.59078,-0.0324 -1.84483,-0.0619 z m 34.91065,-6.755526 c 1.90679,-0.350082 3.95602,-1.567491 5.87513,-3.490309 2.34081,-2.345335 3.89267,-5.189818 4.226,-7.746074 0.11024,-0.845426 0.0446,-2.630532 -0.12848,-3.492684 -0.66628,-3.319304 -2.76987,-6.44191 -5.72124,-8.492725 -0.8241,-0.572643 -1.26437,-0.835102 -2.5451,-1.517212 -2.20829,-1.176122 -3.37055,-2.02264 -5.96081,-4.341485 -0.61118,-0.547146 -1.46417,-1.300031 -1.89552,-1.673077 -3.37606,-2.919713 -5.64371,-4.06726 -9.24905,-4.680483 -3.71343,-0.631608 -6.52753,-0.09348 -9.39768,1.797089 -0.92239,0.607576 -1.41668,0.989875 -2.72642,2.108669 -2.39827,2.048621 -4.14126,3.244195 -7.42501,5.093049 -3.71262,2.090325 -4.62463,2.719204 -5.59657,3.859156 -2.16645,2.540946 -3.91379,6.258566 -4.55212,9.685046 -0.1189,0.638232 -0.1423,0.988904 -0.14411,2.159 -0.002,1.215085 0.017,1.492091 0.14527,2.12725 0.58108,2.878284 2.0189,5.152479 4.17916,6.610204 0.59656,0.402558 1.94329,1.054589 2.7213,1.317549 1.34015,0.452952 2.40531,0.576974 5.36575,0.62477 4.63835,0.07488 7.07268,-0.228797 9.95129,-1.241412 2.54015,-0.893559 4.42346,-1.235685 6.81271,-1.237622 2.12725,-0.0017 2.87018,0.153893 6.44621,1.350188 3.70596,1.239762 4.27273,1.344924 7.07929,1.31353 1.4946,-0.01672 2.07447,-0.04695 2.54,-0.132417 z m 1.016,-21.114291 c 0,-0.03493 0.0548,-0.0635 0.12181,-0.0635 0.20607,0 0.32269,-0.07152 0.32269,-0.197891 0,-0.06644 -0.1547,-0.506298 -0.34378,-0.977456 l -0.34379,-0.856653 h 0.33129 0.33128 l 0.14363,0.460375 c 0.079,0.253206 0.15987,0.503238 0.17973,0.555625 0.0198,0.05239 0.098,-0.147637 0.17356,-0.4445 l 0.13747,-0.53975 0.32359,-0.01896 0.32359,-0.01896 -0.3094,0.971461 c -0.20665,0.648843 -0.35437,1.008367 -0.44482,1.082586 -0.15034,0.123368 -0.94685,0.163437 -0.94685,0.04762 z m -39.8145,-0.397497 c 0,-0.08032 0.39093,-1.549927 0.51503,-1.936128 l 0.0663,-0.206375 h 0.49428 0.49428 l 0.25925,0.936625 c 0.40186,1.45182 0.40309,1.285875 -0.01,1.285875 h -0.35315 l -0.0661,-0.238125 c -0.0364,-0.130969 -0.0663,-0.273844 -0.0665,-0.3175 -2.5e-4,-0.04987 -0.0924,-0.07937 -0.24802,-0.07937 -0.24471,0 -0.24857,0.0038 -0.32383,0.3175 l -0.0762,0.3175 h -0.34292 c -0.23342,0 -0.34291,-0.02555 -0.34291,-0.08 z m 1.22315,-0.793128 c 0.0412,-0.08118 -0.0867,-0.714375 -0.14421,-0.714375 -0.0631,0 -0.1007,0.116383 -0.15913,0.492125 -0.04,0.257416 -0.0346,0.269875 0.11861,0.269875 0.0883,0 0.17145,-0.02143 0.18473,-0.04762 z m 1.7931,0.82865 c -0.24021,-0.05625 -0.28575,-0.202883 -0.28575,-0.92016 v -0.686365 h -0.15875 c -0.0873,0 -0.15875,-0.02857 -0.15875,-0.0635 0,-0.03493 0.0714,-0.0635 0.15875,-0.0635 0.13406,0 0.15875,-0.02963 0.15875,-0.1905 0,-0.188576 0.004,-0.1905 0.34925,-0.1905 0.34572,0 0.34925,0.0019 0.34925,0.1905 0,0.169336 0.0212,0.1905 0.1905,0.1905 0.10478,0 0.1905,0.02858 0.1905,0.0635 0,0.03493 -0.0867,0.0635 -0.19265,0.0635 h -0.19265 l 0.018,0.682117 0.018,0.682117 0.18973,0.03275 c 0.11269,0.01945 0.19837,0.07767 0.21103,0.143383 0.0184,0.0956 -0.029,0.109633 -0.34847,0.10327 -0.20338,-0.0041 -0.42694,-0.02075 -0.49679,-0.03711 z m 2.31775,-0.03771 c -0.15868,-0.08028 -0.15875,-0.08075 -0.15875,-1.030084 v -0.94977 l 0.17649,-0.08459 c 0.22241,-0.106598 1.07135,-0.113608 1.31931,-0.0109 0.16668,0.06904 0.18695,0.107582 0.18695,0.35548 v 0.278047 h -0.3175 -0.3175 V 67.51813 c 0,-0.244234 -0.01,-0.257131 -0.17462,-0.238125 l -0.17463,0.02009 -0.0176,0.868286 c -0.0167,0.823189 -0.011,0.870401 0.11056,0.908978 0.19636,0.06232 0.25633,-0.01266 0.25633,-0.32051 0,-0.208337 -0.0249,-0.282004 -0.0952,-0.282004 -0.0529,0 -0.0953,-0.05644 -0.0953,-0.127 0,-0.113976 0.0423,-0.127 0.41275,-0.127 h 0.41275 v 0.53975 c 0,0.520884 -0.005,0.53975 -0.14605,0.53975 -0.0803,0 -0.17818,-0.03212 -0.21744,-0.07139 -0.0529,-0.05286 -0.12457,-0.05286 -0.27618,0 -0.27041,0.09426 -0.68671,0.08918 -0.88433,-0.0108 z m 1.8415,-1.025741 v -1.114574 h 0.35075 0.35075 l -0.0174,1.095375 -0.0174,1.095375 -0.33337,0.0192 -0.33338,0.01919 z m 1.20829,1.037241 c -0.23318,-0.09306 -0.25376,-0.159423 -0.25482,-0.822052 -0.001,-0.8287 0.0162,-0.848551 0.77172,-0.87155 0.81579,-0.02483 0.90426,0.02692 0.92897,0.543509 l 0.0189,0.395281 h -0.51103 -0.51103 v 0.321717 c 0,0.313505 0.004,0.321208 0.17462,0.301625 0.14551,-0.01674 0.17794,-0.0545 0.19453,-0.226467 0.0195,-0.202279 0.0261,-0.206375 0.33337,-0.206375 h 0.31348 v 0.225489 c 0,0.197288 -0.0276,0.237001 -0.22021,0.3175 -0.24883,0.103968 -0.99905,0.116884 -1.2385,0.02132 z m 0.82371,-1.197077 c 0,-0.175672 -0.0336,-0.269043 -0.11112,-0.308921 -0.19097,-0.09821 -0.26988,-0.01629 -0.26988,0.280226 0,0.269291 0.008,0.28046 0.1905,0.28046 0.17964,0 0.1905,-0.01436 0.1905,-0.251765 z m 0.9525,0.382867 v -0.884898 l 0.73344,-8.89e-4 c 0.4034,-6.35e-4 0.77487,0.01501 0.8255,0.03444 0.0741,0.02842 0.0921,0.201511 0.0921,0.88578 v 0.850456 h -0.31554 -0.31555 l -0.0178,-0.777875 -0.0178,-0.777875 -0.17462,-0.02009 -0.17463,-0.02009 v 0.797966 0.797967 h -0.3175 -0.3175 v -0.884898 z m 2.9845,-0.226352 v -1.11125 h 0.34925 0.34925 v 1.016 1.016 h 0.381 c 0.29633,0 0.381,0.02116 0.381,0.09525 0,0.07915 -0.12347,0.09525 -0.73025,0.09525 h -0.73025 z m 1.82563,1.042664 c -0.13299,-0.07746 -0.15636,-0.577348 -0.0317,-0.679323 0.0437,-0.03572 0.27259,-0.132093 0.50874,-0.214148 0.43676,-0.151758 0.53603,-0.257721 0.46149,-0.492575 -0.0886,-0.279134 -0.41461,-0.155347 -0.41461,0.157416 0,0.140443 -0.0255,0.154216 -0.28575,0.154216 h -0.28575 v -0.246297 c 0,-0.21303 0.0254,-0.256807 0.18789,-0.324123 0.2479,-0.10268 1.21572,-0.06397 1.35816,0.05432 0.0872,0.07245 0.10495,0.219697 0.10495,0.873125 v 0.785977 h -0.28575 c -0.15716,0 -0.28575,-0.02958 -0.28575,-0.06574 0,-0.04531 -0.0382,-0.04531 -0.12282,0 -0.15676,0.08389 -0.76339,0.08199 -0.90905,-0.0029 z m 0.92983,-0.222358 c 0.0212,-0.05524 0.0385,-0.200019 0.0385,-0.321716 0,-0.203931 -0.0137,-0.219698 -0.17463,-0.201181 -0.15991,0.0184 -0.17625,0.0455 -0.19398,0.321716 -0.0182,0.282956 -0.01,0.301625 0.13608,0.301625 0.0855,0 0.17278,-0.0452 0.19398,-0.100444 z m 0.99104,-0.820306 v -1.11125 h 0.3175 0.3175 l 7.2e-4,0.587375 7.2e-4,0.587375 0.2374,-0.36428 0.23741,-0.364274 0.33574,-8.26e-4 0.33574,-8.25e-4 -0.25749,0.379184 -0.2575,0.379183 0.30606,0.430442 c 0.16833,0.23674 0.32769,0.466159 0.35413,0.509816 0.0364,0.06003 -0.0451,0.07937 -0.33431,0.07937 h -0.38239 l -0.27224,-0.396875 -0.27224,-0.396875 -0.0189,0.396875 -0.0189,0.396875 h -0.31447 -0.31447 v -1.11125 z m 2.57175,1.065302 c -0.26154,-0.06429 -0.28575,-0.136055 -0.28575,-0.847224 0,-0.638073 0.0101,-0.694182 0.14113,-0.785977 0.17165,-0.120231 1.1014,-0.13758 1.34813,-0.02516 0.14856,0.06769 0.16174,0.106496 0.16174,0.47625 v 0.402556 h -0.51148 -0.51148 l 0.0194,0.301625 c 0.0176,0.274238 0.0338,0.301625 0.17811,0.301625 0.13269,0 0.16201,-0.03388 0.17865,-0.206375 0.0195,-0.202647 0.0256,-0.206375 0.3372,-0.206375 h 0.31731 l -0.0197,0.236665 c -0.0148,0.177774 -0.0592,0.256546 -0.17845,0.316566 -0.15292,0.07696 -0.91308,0.10014 -1.17475,0.03582 z m 0.73025,-1.249007 c 0,-0.199041 -0.0296,-0.290316 -0.1033,-0.318599 -0.16264,-0.06241 -0.2777,0.08315 -0.2777,0.351327 0,0.231254 0.0116,0.246227 0.1905,0.246227 0.18276,0 0.1905,-0.01134 0.1905,-0.278955 z m 1.9685,0.183705 v -1.11125 h 0.762 c 0.635,0 0.762,0.01588 0.762,0.09525 0,0.0749 -0.0882,0.09525 -0.41275,0.09525 h -0.41275 v 0.34925 0.34925 h 0.381 c 0.29051,0 0.381,0.02187 0.381,0.09208 0,0.06756 -0.0972,0.09716 -0.36512,0.111125 l -0.36513,0.01904 v 0.4445 0.4445 l 0.39688,0.0189 c 0.29597,0.0141 0.39687,0.04236 0.39687,0.111125 0,0.0755 -0.13813,0.09222 -0.762,0.09222 h -0.762 z m 1.82034,1.068915 c -0.0233,-0.02328 -0.0423,-0.523342 -0.0423,-1.11125 v -1.068918 h 0.34925 0.34925 v 1.11125 1.11125 h -0.30692 c -0.16881,0 -0.32597,-0.01905 -0.34925,-0.04234 z m 1.22766,-0.0027 c -0.27678,-0.101771 -0.31753,-0.209651 -0.31653,-0.83792 5.1e-4,-0.335103 0.022,-0.640722 0.0476,-0.679152 0.1026,-0.153657 0.34871,-0.215881 0.85385,-0.215881 0.71503,0 0.81206,0.06871 0.81206,0.575101 v 0.377399 h -0.508 -0.508 v 0.321717 c 0,0.313505 0.005,0.321208 0.17462,0.301625 0.14551,-0.01674 0.17794,-0.0545 0.19453,-0.226467 0.0195,-0.202279 0.0261,-0.206375 0.33337,-0.206375 h 0.31348 v 0.225489 c 0,0.197288 -0.0276,0.237001 -0.22021,0.3175 -0.21329,0.08912 -0.97903,0.119678 -1.17679,0.04696 z m 0.762,-1.21718 c 0,-0.26818 -0.11505,-0.413741 -0.2777,-0.351327 -0.0737,0.02828 -0.1033,0.119558 -0.1033,0.318599 0,0.267614 0.008,0.278955 0.1905,0.278955 0.17892,0 0.1905,-0.01497 0.1905,-0.246227 z m 0.9525,0.37411 v -0.888124 l 0.80963,0.0253 c 0.44529,0.01392 0.8382,0.0265 0.87312,0.02796 0.0349,0.0015 0.22504,-0.01281 0.42249,-0.03171 0.60872,-0.05826 0.62526,-0.03362 0.62526,0.931418 v 0.823265 h -0.31554 -0.31555 l -0.0178,-0.777875 -0.0178,-0.777875 -0.17264,-0.0199 -0.17263,-0.0199 -0.0179,0.781901 -0.0179,0.781901 -0.33338,0.0192 -0.33337,0.01919 v -0.801288 -0.801281 l -0.17463,0.02009 -0.17462,0.02009 -0.0178,0.777875 -0.0178,0.777875 h -0.31555 -0.31555 z m 3.25438,0.796614 -0.20638,-0.09287 v -0.69796 c 0,-0.868439 0.0245,-0.895668 0.80489,-0.895668 0.79047,0 0.90683,0.08741 0.90875,0.682625 l 8.6e-4,0.269875 h -0.54323 -0.54323 l 0.0194,0.301625 c 0.0176,0.274238 0.0338,0.301625 0.17811,0.301625 0.13269,0 0.16201,-0.03388 0.17865,-0.206375 0.0198,-0.205086 0.0221,-0.206375 0.36512,-0.206375 0.32164,0 0.34523,0.01036 0.34523,0.151714 0,0.08345 -0.0546,0.219171 -0.12139,0.301619 -0.10755,0.132829 -0.1817,0.15179 -0.65087,0.166465 -0.35981,0.01125 -0.59563,-0.01319 -0.73587,-0.0763 z m 0.80962,-1.203452 c 0,-0.199041 -0.0296,-0.290316 -0.1033,-0.318599 -0.16264,-0.06241 -0.2777,0.08315 -0.2777,0.351327 0,0.231254 0.0116,0.246227 0.1905,0.246227 0.18276,0 0.1905,-0.01134 0.1905,-0.278955 z m 0.9525,0.410057 v -0.884898 l 0.74043,-8.89e-4 c 0.40723,-6.35e-4 0.79299,0.02725 0.85725,0.06163 0.10425,0.0558 0.11682,0.151505 0.11682,0.889108 v 0.826586 l -0.33337,-0.01919 -0.33338,-0.0192 -0.0178,-0.777875 c -0.0176,-0.770275 -0.0193,-0.777882 -0.16783,-0.777882 -0.20372,0 -0.22709,0.092 -0.22709,0.894194 v 0.693306 h -0.3175 -0.3175 z m 2.57175,0.840423 c -0.24021,-0.05625 -0.28575,-0.202883 -0.28575,-0.92016 v -0.68638 h -0.15875 c -0.0873,0 -0.15875,-0.02857 -0.15875,-0.0635 0,-0.03493 0.0714,-0.0635 0.15875,-0.0635 0.13406,0 0.15875,-0.02963 0.15875,-0.1905 0,-0.188576 0.003,-0.1905 0.34925,-0.1905 0.34572,0 0.34925,0.0019 0.34925,0.1905 0,0.169336 0.0212,0.1905 0.1905,0.1905 0.10478,0 0.1905,0.02858 0.1905,0.0635 0,0.03493 -0.0867,0.0635 -0.19265,0.0635 h -0.19264 l 0.018,0.682117 0.018,0.682117 0.18972,0.03275 c 0.11269,0.01945 0.19838,0.07767 0.21103,0.143383 0.0184,0.0956 -0.029,0.109633 -0.34847,0.10327 -0.20338,-0.0041 -0.42693,-0.02075 -0.49678,-0.03711 z m 1.22238,-0.02411 c -0.13212,-0.07695 -0.15742,-0.591934 -0.0331,-0.673792 0.0429,-0.02825 0.26437,-0.123952 0.49212,-0.212668 0.39395,-0.153442 0.41504,-0.172365 0.43333,-0.388792 0.0134,-0.158343 -0.0102,-0.238791 -0.0775,-0.264636 -0.13054,-0.05009 -0.29094,0.121507 -0.29094,0.311258 0,0.140138 -0.0257,0.154216 -0.282,0.154216 -0.3218,0 -0.37882,-0.05537 -0.32226,-0.312871 0.0571,-0.260039 0.29782,-0.340055 0.94121,-0.312877 0.74623,0.03152 0.74255,0.02665 0.74255,0.982771 v 0.785977 h -0.28046 c -0.16651,0 -0.29228,-0.03225 -0.30956,-0.07937 -0.0233,-0.0635 -0.0459,-0.0635 -0.11324,0 -0.1008,0.09509 -0.74217,0.102781 -0.90011,0.01079 z m 0.90487,-0.439414 c 0,-0.276288 -0.0167,-0.3175 -0.12836,-0.3175 -0.16079,0 -0.28272,0.252489 -0.22774,0.47157 0.0303,0.120638 0.0823,0.16343 0.19856,0.16343 0.14672,0 0.15754,-0.02182 0.15754,-0.3175 z m 1.016,-0.376898 v -0.884898 l 0.74043,-8.89e-4 c 0.40723,-6.35e-4 0.79299,0.02725 0.85725,0.06163 0.0833,0.04457 0.11682,0.134824 0.11682,0.314294 v 0.251765 h -0.34925 -0.34925 v -0.22648 c 0,-0.209594 -0.013,-0.224974 -0.17462,-0.206375 l -0.17463,0.02009 -0.0178,0.777875 -0.0178,0.777875 h -0.31554 -0.31555 v -0.884896 z m -24.5745,-6.036618 v -3.556 l 1.09538,9.9e-4 c 1.56638,0.0014 2.07788,0.14686 2.25066,0.639956 0.0491,0.140227 0.077,0.695004 0.0794,1.577379 0.003,1.235507 -0.008,1.385273 -0.12338,1.623346 -0.18435,0.380815 -0.44705,0.488207 -1.28591,0.525661 l -0.68262,0.03048 v 1.357097 1.35709 h -0.66675 -0.66675 v -3.556001 z m 1.83696,-0.0294 c 0.0988,-0.0511 0.1974,-0.139159 0.2191,-0.195694 0.0645,-0.168219 0.0447,-2.186384 -0.0227,-2.312401 -0.064,-0.119631 -0.37476,-0.256504 -0.58232,-0.256504 -0.11088,0 -0.11752,0.08073 -0.11752,1.42875 v 1.42875 h 0.1619 c 0.0891,0 0.24275,-0.04181 0.34155,-0.0929 z m 2.16354,0.0294 v -3.556 h 1.13148 c 1.50182,0 1.93013,0.12671 2.21905,0.656482 0.15952,0.292475 0.15743,1.573252 -0.003,1.867914 -0.14064,0.258263 -0.4937,0.493517 -0.88686,0.59094 -0.1659,0.04111 -0.30163,0.09538 -0.30163,0.120598 0,0.02522 0.15053,0.07954 0.33452,0.120718 0.43402,0.09713 0.71135,0.269731 0.85145,0.529915 0.0943,0.175096 0.11004,0.344803 0.0967,1.041458 -0.0149,0.774904 0.0642,1.852505 0.15294,2.083651 0.0336,0.08752 -0.0468,0.100324 -0.62979,0.100324 h -0.66828 l -0.0688,-0.320624 c -0.0378,-0.176346 -0.0688,-0.889127 -0.0688,-1.583963 0,-1.219066 -0.005,-1.269092 -0.14287,-1.427766 -0.0859,-0.09889 -0.2378,-0.179548 -0.381,-0.202349 l -0.23813,-0.03791 v 1.786311 1.786306 h -0.6985 -0.6985 z m 2.00314,-0.790864 c 0.14898,-0.148979 0.15586,-0.191177 0.15586,-0.955386 0,-0.764209 -0.007,-0.806407 -0.15586,-0.955386 -0.10687,-0.10687 -0.22664,-0.155864 -0.381,-0.155864 h -0.22514 v 1.11125 1.11125 h 0.22514 c 0.15436,0 0.27413,-0.04899 0.381,-0.155864 z m 2.18786,0.790864 v -3.556 h 0.6985 0.6985 v 3.556 3.556 h -0.6985 -0.6985 z m 1.9685,-0.0049 v -3.560855 l 1.22238,0.02073 c 1.10871,0.0188 1.24599,0.03347 1.47637,0.15779 0.33685,0.181764 0.59157,0.45805 0.668,0.724551 0.083,0.289404 0.0815,5.035561 -0.002,5.33502 -0.0348,0.125197 -0.16635,0.330753 -0.29239,0.456788 -0.36595,0.36595 -0.6428,0.426834 -1.94098,0.426834 h -1.13169 v -3.560855 z m 1.66613,2.859227 c 0.13056,-0.03626 0.26629,-0.119945 0.30162,-0.185972 0.0403,-0.07531 0.0642,-1.080154 0.0642,-2.695975 0,-2.491258 -0.004,-2.580099 -0.127,-2.702925 -0.0786,-0.07862 -0.21166,-0.127 -0.34925,-0.127 h -0.22225 v 2.88925 c 0,1.58909 0.0214,2.889094 0.0476,2.888897 0.0262,0 0.15445,-0.03002 0.28501,-0.06628 z m 2.39787,-2.854369 v -3.556 h 1.42875 1.42875 v 0.34925 0.34925 h -0.762 -0.762 v 1.11125 1.11125 h 0.6985 0.6985 v 0.3175 0.3175 h -0.69969 -0.69969 l 0.0171,1.444625 0.0171,1.444625 0.77787,0.01783 0.77788,0.01783 v 0.315544 0.315544 h -1.4605 -1.4605 z m -35.29482,6.801174 c 0.77655,-0.177724 1.40579,-0.456609 2.16148,-0.95798 1.87655,-1.245019 3.27189,-3.174035 4.15774,-5.747944 0.58959,-1.713122 0.68138,-2.507943 0.63683,-5.514734 -0.0362,-2.442718 -0.0766,-2.743103 -0.56857,-4.227708 -0.92648,-2.795713 -2.71784,-5.079164 -4.81116,-6.132781 -0.95501,-0.480678 -1.02354,-0.494446 -2.6096,-0.52431 -1.670377,-0.03145 -2.2180809,0.04136 -2.9593829,0.393399 -0.5870333,0.27878 -1.7071615,1.038894 -2.1908315,1.486687 -0.832168,0.77044 -1.677359,1.984853 -2.371125,3.406946 -1.026404,2.103945 -1.276546,3.277147 -1.340361,6.286501 -0.0418,1.971012 0.0256,2.694532 0.3824,4.105069 0.831866,3.288642 2.604596,5.711009 5.0961902,6.963762 0.5885963,0.295936 1.1432813,0.494011 1.6262942,0.580733 0.534683,0.096 2.155156,0.02767 2.790096,-0.11764 z M 9.7092611,57.484811 C 7.7221606,55.107416 6.0963506,53.138505 6.0963506,53.109456 c 0,-0.08201 2.2298522,-1.892215 2.7490895,-2.231722 0.555377,-0.363135 1.064993,-0.564101 1.4284179,-0.563291 0.532769,0.0012 0.813602,0.241598 2.186854,1.872084 0.6906,0.81996 1.34851,1.665231 1.46202,1.878377 0.28089,0.527478 0.28466,0.926627 0.0128,1.355311 -0.24867,0.392096 -0.72909,0.898859 -1.27753,1.347552 -0.23865,0.195244 -0.4339,0.375349 -0.4339,0.400234 0,0.02488 0.61948,0.783697 1.37663,1.686251 l 1.37664,1.641009 -0.21776,0.183365 c -0.54446,0.458455 -1.38022,1.128722 -1.40741,1.128722 -0.0165,0 -1.65584,-1.945142 -3.6429439,-4.322537 z m 1.9547009,-1.567088 c 0.37228,-0.38945 0.45923,-0.67892 0.29689,-0.988425 -0.10584,-0.201788 -1.877278,-2.302618 -2.0986699,-2.488906 -0.312687,-0.263109 -0.700837,-0.217346 -1.1782143,0.138912 l -0.206385,0.15402 1.4349863,1.711262 c 0.7892429,0.941194 1.4549609,1.711262 1.4793729,1.711262 0.02441,0 0.14682,-0.107157 0.27202,-0.238125 z m 61.90493,8.993149 c 2.01161,-0.506603 3.97222,-2.125155 5.49009,-4.532274 1.25988,-1.997999 2.18158,-4.674449 2.47574,-7.189095 0.34334,-2.9351 -0.16192,-5.81418 -1.33752,-7.621493 -0.68046,-1.046116 -1.5552,-1.749603 -2.59985,-2.090863 -0.68241,-0.222926 -1.77392,-0.236422 -2.53074,-0.03129 -1.96802,0.533419 -3.92,2.149118 -5.34151,4.421298 -0.78557,1.255673 -1.61261,3.061579 -2.02441,4.420413 -0.49096,1.620025 -0.64111,2.91197 -0.5958,5.126335 0.0445,2.174903 0.24845,3.223935 0.87321,4.491463 0.73218,1.485458 2.12702,2.730376 3.40618,3.040065 0.57838,0.14003 1.55256,0.124619 2.18461,-0.03456 z m -1.06592,-6.717557 c -0.51118,-0.130531 -0.94647,-0.424252 -1.60621,-1.083806 -0.81936,-0.819145 -1.04202,-1.21295 -1.04183,-1.842661 0,-0.308519 0.0373,-0.483592 0.14737,-0.69328 0.15087,-0.287413 1.8724,-2.164221 1.98517,-2.164221 0.0344,0 0.34614,0.278607 0.69274,0.619125 l 0.63018,0.619125 -0.88864,0.939414 c -0.84441,0.892651 -0.88865,0.952336 -0.88865,1.199002 0,0.351338 0.33537,0.687062 0.68715,0.687874 0.21305,5.08e-4 0.28561,-0.05398 0.82471,-0.619125 0.32511,-0.340816 0.64431,-0.721231 0.70933,-0.845367 0.21942,-0.418911 0.26959,-0.955079 0.2225,-2.377749 -0.0511,-1.542305 0.013,-2.199835 0.2533,-2.599744 0.23428,-0.389912 1.42609,-1.583498 1.71626,-1.718825 0.82365,-0.384119 1.7387,-0.06037 2.76601,0.978635 0.85274,0.86244 1.08663,1.609646 0.7285,2.327293 -0.0866,0.173561 -0.46555,0.640354 -0.84695,1.0433 l -0.6902,0.729207 -0.67918,-0.629809 -0.67917,-0.62981 0.30563,-0.321648 c 1.10607,-1.164014 1.15911,-1.229004 1.15911,-1.420008 0,-0.276869 -0.30598,-0.58446 -0.5811,-0.584152 -0.30315,3.17e-4 -0.5418,0.169204 -0.95789,0.677781 -0.60122,0.73487 -0.58259,0.644462 -0.61949,3.006614 l -0.0323,2.065382 -0.20506,0.411118 c -0.25201,0.505268 -1.54854,1.87671 -1.97792,2.092205 -0.30748,0.154317 -0.81783,0.214713 -1.1334,0.13413 z m -26.95407,-4.209168 c 0.21975,-0.219744 -0.0869,-0.645884 -0.35974,-0.49988 -0.28886,0.154595 -0.20986,0.57608 0.10798,0.57608 0.0966,0 0.20985,-0.03429 0.25176,-0.0762 z m 16.12779,-5.384752 c 1.76598,-0.423374 3.40613,-2.023035 4.63644,-4.522001 1.0111,-2.053716 1.36158,-3.792087 1.36074,-6.749297 -6.4e-4,-2.131073 -0.12963,-3.11255 -0.59239,-4.506521 -0.95783,-2.885266 -2.81707,-4.981734 -4.78763,-5.398512 -1.7456,-0.3692 -3.44752,0.249537 -4.92624,1.790953 -0.72778,0.758634 -1.27282,1.559183 -1.80632,2.653079 -1.95535,4.009314 -2.03956,9.087928 -0.21525,12.980914 0.73496,1.568357 2.0839,3.02561 3.26481,3.526967 0.86688,0.368032 2.09255,0.457751 3.06584,0.224418 z m -0.43059,-6.083492 c -0.57626,-0.156264 -1.05311,-0.287913 -1.05967,-0.292554 -0.007,-0.0046 0.14272,-1.164425 0.33174,-2.577298 0.18902,-1.412875 0.32298,-2.588602 0.29768,-2.612726 -0.0253,-0.02413 -0.10103,-0.0534 -0.1683,-0.06505 -0.10474,-0.01814 -0.27065,0.316184 -1.15543,2.328319 -0.56822,1.292225 -1.0425,2.372939 -1.05394,2.401586 -0.0114,0.02865 -0.42733,-0.05625 -0.92419,-0.188656 -0.67975,-0.181145 -0.90339,-0.265595 -0.90339,-0.341139 0,-0.170909 1.38297,-9.149672 1.41408,-9.180789 0.0267,-0.02674 1.44599,0.337144 1.49116,0.38232 0.0107,0.0107 -0.12683,0.953311 -0.30563,2.094683 -0.1788,1.141373 -0.30835,2.118857 -0.28788,2.172187 0.0216,0.05633 0.0954,0.08845 0.17602,0.07664 0.11442,-0.01676 0.29923,-0.360392 1.05161,-1.955361 0.50203,-1.064269 0.92237,-1.944611 0.93408,-1.956317 0.0292,-0.02924 1.96166,0.496923 2.01325,0.548177 0.0228,0.02264 -0.099,0.995677 -0.27071,2.162293 -0.17168,1.166616 -0.30457,2.1287 -0.29531,2.137964 0.009,0.0093 0.0882,0.03331 0.17546,0.05343 0.15131,0.0349 0.18196,-0.01393 0.66439,-1.058463 0.27817,-0.602277 0.69678,-1.499328 0.93025,-1.993447 l 0.42448,-0.898397 0.64878,0.180836 c 0.35682,0.09946 0.65961,0.191679 0.67287,0.204933 0.0298,0.02977 -3.63825,8.562836 -3.70533,8.619867 -0.0266,0.0226 -0.5198,-0.08677 -1.09607,-0.243035 z m -35.95237,5.927086 c 0.90899,-0.191211 1.64669,-0.636462 2.51962,-1.520758 1.70959,-1.731838 2.95629,-4.587985 3.43945,-7.879634 0.16185,-1.102655 0.16087,-3.829809 -0.002,-4.889501 -0.45428,-2.960088 -1.59326,-5.312212 -3.16962,-6.545626 -0.88617,-0.693384 -1.42385,-0.871248 -2.64932,-0.876396 -0.75396,-0.0032 -0.8202,0.0072 -1.32136,0.207024 -1.99821,0.79669 -3.76268,3.062649 -4.83218,6.205571 -0.5474,1.608659 -0.72248,2.974363 -0.72366,5.644928 -0.001,2.392485 0.11728,3.372922 0.57096,4.73075 0.74183,2.220224 2.05792,4.006145 3.4253,4.648114 0.75484,0.35439 1.84637,0.464049 2.74257,0.275528 z m -2.08413,-5.977081 c 0,-0.04994 -0.2569,-2.538721 -0.57089,-5.530622 -0.31399,-2.991901 -0.56402,-5.444438 -0.55563,-5.450081 0.0667,-0.04484 2.67564,-0.731569 2.72136,-0.716327 0.0551,0.01837 4.69166,9.923937 4.69166,10.023329 0,0.02493 -0.05,0.0589 -0.11112,0.07549 -0.0611,0.01659 -0.50529,0.137729 -0.98704,0.269204 -0.48175,0.131475 -0.88376,0.228392 -0.89335,0.215372 -0.01,-0.01302 -0.28488,-0.645178 -0.61175,-1.404797 -0.32688,-0.759619 -0.62496,-1.380205 -0.66241,-1.379079 -0.18876,0.0057 -1.3335,0.365217 -1.35346,0.425101 -0.0127,0.03809 0.0642,0.720463 0.17089,1.516388 0.10668,0.795927 0.17248,1.466165 0.14623,1.489418 -0.0263,0.02325 -0.17633,0.07422 -0.33349,0.113251 -0.15716,0.03903 -0.59293,0.154937 -0.96837,0.257564 -0.54726,0.149589 -0.68263,0.168587 -0.68263,0.09579 z m 2.09145,-4.858964 c 0.26417,-0.07365 0.48809,-0.140969 0.49761,-0.149605 0.01,-0.0086 -0.28162,-0.76991 -0.64699,-1.691722 -0.61405,-1.549219 -0.67531,-1.674681 -0.80971,-1.658321 -0.08,0.0097 -0.16892,0.04121 -0.19766,0.06995 -0.0287,0.02874 0.0778,0.820222 0.23677,1.758849 0.15897,0.938628 0.28903,1.728681 0.28903,1.755673 0,0.07524 0.10973,0.06048 0.63095,-0.08483 z M 5.9589726,44.606682 c 0.740658,-0.706188 1.9040052,-1.381299 2.7555342,-1.599084 0.2620093,-0.06701 0.8802533,-0.148888 1.3738732,-0.181949 0.49362,-0.03306 0.946405,-0.07888 1.006189,-0.101823 0.217898,-0.08362 0.177312,-0.266139 -0.262003,-1.178297 C 10.142109,40.11192 9.6962031,38.64751 9.3066871,36.534347 9.0492441,35.137694 8.9688141,34.883346 8.7846048,34.883346 c -0.124293,0 -0.729161,0.630899 -1.1683242,1.218604 -1.365993,1.828028 -2.097141,3.47565 -2.474611,5.576467 -0.23734,1.320917 -0.153907,2.93068 0.165352,3.190305 0.07516,0.06112 0.164532,0.111125 0.19861,0.111125 0.03408,0 0.238082,-0.167924 0.453341,-0.373165 z m 36.9459194,0.283513 c 1.09896,-0.211445 1.89726,-0.682105 2.87971,-1.697824 1.08336,-1.120058 1.85955,-2.44245 2.43574,-4.149774 0.6147,-1.821471 0.86022,-4.321184 0.71126,-7.241626 -0.13971,-2.739158 -0.5129,-4.225816 -1.61076,-6.416698 -1.93591,-3.863321 -4.77408,-5.456276 -7.56949,-4.248467 -0.86185,0.37238 -2.00824,1.415148 -2.69742,2.453608 -0.72519,1.092726 -1.57175,2.993752 -1.84441,4.141811 -0.28969,1.219738 -0.32983,1.694019 -0.36227,4.280423 -0.036,2.87261 0.0114,3.543611 0.34415,4.86941 0.31014,1.235676 0.65719,2.2031 1.16267,3.241039 0.90213,1.852414 2.05459,3.24086 3.42903,4.131179 0.99577,0.645024 2.00717,0.851375 3.12179,0.636919 z m 40.40604,-1.07401 c 0.13218,-0.20173 0.51475,-1.767632 0.63103,-2.582838 0.29568,-2.073 0.13827,-4.311368 -0.41392,-5.885715 -0.25845,-0.736889 -1.05706,-2.291429 -1.45201,-2.82643 -0.68259,-0.924649 -0.82283,-0.836175 -1.21067,0.763766 -0.4621,1.906326 -0.95731,3.084279 -1.84778,4.395288 -0.50101,0.73761 -0.97203,1.244222 -1.71998,1.849929 -0.34664,0.28072 -0.64636,0.552387 -0.66606,0.603705 -0.0744,0.193864 0.13208,0.272037 0.87938,0.332946 0.95365,0.07773 1.40549,0.196666 2.18193,0.57434 0.97722,0.475336 1.63376,1.004593 2.42205,1.95247 0.57346,0.68955 0.86573,0.970201 1.01036,0.970201 0.0489,0 0.13245,-0.06645 0.18567,-0.147662 z M 67.042962,26.952502 c 0.4424,-1.334072 0.1553,-4.161107 -0.6641,-6.539437 -0.52198,-1.515054 -1.1493,-2.6549 -2.55349,-4.639763 l -0.82864,-1.171293 -0.16998,1.361793 c -0.25798,2.066922 -0.52022,3.306651 -0.98051,4.635354 -0.51641,1.490711 -1.1583,2.570765 -2.31235,3.890812 -0.38543,0.440874 -0.70079,0.813617 -0.70079,0.828316 0,0.0147 0.26432,-0.04279 0.58738,-0.127752 0.68594,-0.180404 2.05703,-0.270276 3.07008,-0.201239 1.15526,0.07873 2.00484,0.463698 3.07024,1.391213 1.28297,1.116925 1.29936,1.123251 1.48216,0.571996 z m -46.31984,-2.057955 c 1.48388,-1.43037 2.44824,-1.833799 4.13586,-1.730186 0.89535,0.05497 1.12552,0.113385 1.92013,0.487296 0.64871,0.305252 0.81199,0.337238 0.81199,0.159062 0,-0.0438 -0.259,-0.48698 -0.57556,-0.984851 -1.87706,-2.95219 -2.50746,-5.392161 -2.28907,-8.85999 0.0394,-0.62547 0.0567,-1.152174 0.0384,-1.170453 -0.0521,-0.05208 -1.67807,1.615743 -2.12597,2.18067 -1.2602,1.589477 -2.26746,3.586001 -2.72307,5.397501 -0.32644,1.297932 -0.43974,2.637189 -0.33176,3.921432 0.0719,0.855222 0.18538,1.253818 0.35694,1.253818 0.0568,0 0.40881,-0.294434 0.78214,-0.654299 z m 25.49701,-5.47882 c -0.004,-0.107728 -0.11479,-0.450628 -0.24504,-0.762 -0.60253,-1.440326 -0.96737,-2.897319 -1.14205,-4.560699 -0.18079,-1.721535 -0.10212,-4.3672514 0.1904,-6.4036198 0.18164,-1.264484 -0.01,-1.260712 -1.43034,0.02818 -3.18903,2.8936188 -5.32631,6.2265828 -6.31118,9.8419668 -0.24539,0.90079 -0.29918,1.233291 -0.22927,1.41717 0.0931,0.244819 0.32048,0.200543 0.97447,-0.189728 1.72953,-1.0321 3.79627,-1.209413 5.66123,-0.485698 0.2794,0.108424 0.90805,0.455405 1.397,0.771068 0.95633,0.617404 1.14873,0.675618 1.13478,0.343363 z"
       id="path5310"
       inkscape:connector-curvature="0" />
  </g>
</svg>
