G04 EAGLE Gerber RS-274X export*
G75*
%MOMM*%
%FSLAX34Y34*%
%LPD*%
%INBottom Copper*%
%IPPOS*%
%AMOC8*
5,1,8,0,0,1.08239X$1,22.5*%
G01*
%ADD10C,2.540000*%
%ADD11R,1.879600X1.879600*%
%ADD12C,1.930400*%
%ADD13C,0.254000*%
%ADD14C,1.524000*%

G36*
X331985Y10074D02*
X331985Y10074D01*
X331992Y10075D01*
X332009Y10074D01*
X335859Y10182D01*
X335866Y10183D01*
X335880Y10182D01*
X338615Y10303D01*
X338621Y10304D01*
X338634Y10304D01*
X342495Y10532D01*
X342501Y10533D01*
X342514Y10533D01*
X345256Y10736D01*
X345261Y10737D01*
X345271Y10737D01*
X348013Y10972D01*
X348018Y10973D01*
X348030Y10974D01*
X351884Y11358D01*
X351890Y11359D01*
X351902Y11360D01*
X355196Y11735D01*
X355201Y11736D01*
X355211Y11737D01*
X357949Y12081D01*
X357953Y12082D01*
X357962Y12083D01*
X360699Y12455D01*
X360703Y12456D01*
X360713Y12457D01*
X363999Y12942D01*
X364004Y12944D01*
X364015Y12945D01*
X367847Y13558D01*
X367851Y13559D01*
X367861Y13561D01*
X370584Y14029D01*
X370588Y14030D01*
X370596Y14031D01*
X373874Y14628D01*
X373878Y14629D01*
X373886Y14630D01*
X376597Y15152D01*
X376601Y15154D01*
X376611Y15155D01*
X380970Y16045D01*
X380975Y16047D01*
X380986Y16049D01*
X384776Y16872D01*
X384780Y16874D01*
X384791Y16875D01*
X406332Y21836D01*
X406410Y21864D01*
X408375Y22306D01*
X408377Y22307D01*
X408381Y22308D01*
X410269Y22742D01*
X410373Y22759D01*
X410392Y22760D01*
X410401Y22763D01*
X410425Y22767D01*
X412395Y23210D01*
X412472Y23238D01*
X414437Y23669D01*
X414439Y23670D01*
X414443Y23671D01*
X416336Y24096D01*
X416438Y24112D01*
X416458Y24113D01*
X416468Y24117D01*
X416492Y24120D01*
X416821Y24192D01*
X416910Y24224D01*
X417001Y24246D01*
X417003Y24248D01*
X418864Y24641D01*
X418867Y24642D01*
X418873Y24643D01*
X420741Y25053D01*
X420759Y25052D01*
X420869Y25068D01*
X420888Y25069D01*
X420897Y25072D01*
X420919Y25075D01*
X421262Y25148D01*
X421350Y25179D01*
X421441Y25200D01*
X421459Y25209D01*
X423304Y25580D01*
X423308Y25581D01*
X423316Y25582D01*
X425197Y25980D01*
X425233Y25992D01*
X427212Y26365D01*
X427217Y26366D01*
X427227Y26368D01*
X428568Y26637D01*
X428645Y26663D01*
X428690Y26672D01*
X429053Y26735D01*
X429063Y26738D01*
X429086Y26741D01*
X429182Y26761D01*
X429215Y26764D01*
X429222Y26764D01*
X429225Y26765D01*
X429231Y26766D01*
X430583Y27000D01*
X430589Y27001D01*
X430601Y27003D01*
X431966Y27260D01*
X432041Y27284D01*
X432118Y27298D01*
X432124Y27301D01*
X432438Y27349D01*
X432450Y27353D01*
X432479Y27356D01*
X432548Y27370D01*
X432593Y27374D01*
X432594Y27374D01*
X432595Y27374D01*
X432596Y27374D01*
X433972Y27586D01*
X433979Y27588D01*
X433995Y27590D01*
X435390Y27831D01*
X435438Y27845D01*
X435486Y27852D01*
X435508Y27860D01*
X435533Y27864D01*
X435547Y27871D01*
X435823Y27907D01*
X435837Y27911D01*
X435874Y27914D01*
X435928Y27924D01*
X435980Y27927D01*
X437387Y28112D01*
X437395Y28115D01*
X437415Y28116D01*
X438834Y28335D01*
X438902Y28355D01*
X438972Y28364D01*
X438979Y28367D01*
X439153Y28386D01*
X439169Y28389D01*
X439211Y28393D01*
X439304Y28408D01*
X439393Y28411D01*
X440824Y28565D01*
X440833Y28567D01*
X440854Y28569D01*
X442286Y28757D01*
X442353Y28775D01*
X442404Y28780D01*
X442537Y28791D01*
X442553Y28795D01*
X442597Y28798D01*
X442719Y28814D01*
X442835Y28816D01*
X444275Y28936D01*
X444285Y28938D01*
X444306Y28938D01*
X445738Y29092D01*
X445795Y29106D01*
X445924Y29114D01*
X445941Y29117D01*
X445983Y29118D01*
X446152Y29136D01*
X446297Y29136D01*
X447733Y29223D01*
X447741Y29224D01*
X447761Y29225D01*
X449170Y29342D01*
X449182Y29344D01*
X449206Y29345D01*
X449595Y29377D01*
X449618Y29372D01*
X449779Y29369D01*
X451185Y29431D01*
X451192Y29433D01*
X451205Y29433D01*
X451429Y29446D01*
X451510Y29461D01*
X451593Y29467D01*
X451602Y29470D01*
X452087Y29486D01*
X452098Y29488D01*
X452121Y29488D01*
X453045Y29544D01*
X453103Y29531D01*
X453251Y29526D01*
X453257Y29526D01*
X453259Y29526D01*
X453264Y29526D01*
X453490Y29534D01*
X453494Y29534D01*
X453503Y29534D01*
X453716Y29544D01*
X453800Y29558D01*
X453885Y29563D01*
X453911Y29571D01*
X454708Y29588D01*
X454717Y29589D01*
X454736Y29589D01*
X455390Y29618D01*
X455409Y29614D01*
X455547Y29608D01*
X455557Y29607D01*
X455561Y29607D01*
X455570Y29607D01*
X455784Y29612D01*
X455789Y29612D01*
X455800Y29612D01*
X457673Y29675D01*
X457721Y29664D01*
X457840Y29659D01*
X457856Y29657D01*
X457864Y29658D01*
X457882Y29657D01*
X458250Y29665D01*
X458341Y29679D01*
X458433Y29683D01*
X458462Y29691D01*
X460333Y29711D01*
X460338Y29712D01*
X460348Y29711D01*
X462228Y29752D01*
X462273Y29741D01*
X462391Y29735D01*
X462407Y29733D01*
X462415Y29734D01*
X462433Y29733D01*
X463352Y29742D01*
X463446Y29755D01*
X463541Y29759D01*
X463544Y29759D01*
X465444Y29764D01*
X465448Y29765D01*
X465454Y29764D01*
X467365Y29784D01*
X467383Y29780D01*
X467494Y29773D01*
X467512Y29770D01*
X467522Y29771D01*
X467544Y29770D01*
X475762Y29791D01*
X475819Y29798D01*
X477859Y29797D01*
X477860Y29797D01*
X477863Y29797D01*
X479854Y29802D01*
X479904Y29799D01*
X479924Y29795D01*
X479936Y29797D01*
X479963Y29795D01*
X484799Y29791D01*
X484893Y29803D01*
X484926Y29803D01*
X486890Y29789D01*
X486893Y29789D01*
X486899Y29789D01*
X488824Y29787D01*
X488833Y29785D01*
X488941Y29777D01*
X488959Y29774D01*
X488970Y29775D01*
X488993Y29773D01*
X491597Y29754D01*
X491688Y29765D01*
X491781Y29766D01*
X491806Y29773D01*
X493684Y29739D01*
X493689Y29740D01*
X493698Y29739D01*
X495581Y29725D01*
X495621Y29714D01*
X495737Y29705D01*
X495754Y29702D01*
X495763Y29702D01*
X495782Y29701D01*
X497845Y29663D01*
X497935Y29673D01*
X498025Y29673D01*
X498079Y29687D01*
X499924Y29626D01*
X499930Y29626D01*
X499943Y29625D01*
X501794Y29591D01*
X501861Y29572D01*
X501983Y29560D01*
X501998Y29557D01*
X502006Y29558D01*
X502021Y29556D01*
X502402Y29544D01*
X502493Y29552D01*
X502584Y29551D01*
X502626Y29561D01*
X504483Y29475D01*
X504489Y29476D01*
X504500Y29474D01*
X504717Y29467D01*
X504800Y29475D01*
X504885Y29473D01*
X504898Y29476D01*
X505503Y29442D01*
X505513Y29442D01*
X505533Y29440D01*
X506366Y29413D01*
X506404Y29401D01*
X506544Y29384D01*
X506553Y29382D01*
X506557Y29382D01*
X506564Y29381D01*
X506781Y29369D01*
X506785Y29369D01*
X506794Y29368D01*
X507010Y29358D01*
X507094Y29365D01*
X507179Y29362D01*
X507209Y29368D01*
X508018Y29312D01*
X508027Y29313D01*
X508047Y29311D01*
X508681Y29281D01*
X508699Y29275D01*
X508838Y29257D01*
X508847Y29255D01*
X508851Y29255D01*
X508859Y29254D01*
X509073Y29239D01*
X509078Y29239D01*
X509089Y29238D01*
X509308Y29226D01*
X509391Y29231D01*
X509476Y29227D01*
X509497Y29232D01*
X510170Y29177D01*
X510179Y29177D01*
X510201Y29175D01*
X511077Y29125D01*
X511106Y29127D01*
X512271Y29017D01*
X512281Y29018D01*
X512302Y29015D01*
X513379Y28940D01*
X513386Y28941D01*
X513400Y28938D01*
X513403Y28937D01*
X513405Y28937D01*
X513407Y28937D01*
X514251Y28846D01*
X514262Y28847D01*
X514284Y28843D01*
X515120Y28776D01*
X515190Y28779D01*
X516356Y28634D01*
X516367Y28634D01*
X516394Y28630D01*
X517265Y28548D01*
X517319Y28527D01*
X517437Y28507D01*
X517453Y28503D01*
X517461Y28503D01*
X517477Y28500D01*
X518544Y28385D01*
X518620Y28387D01*
X518695Y28378D01*
X518708Y28380D01*
X519007Y28337D01*
X519022Y28336D01*
X519055Y28331D01*
X519109Y28325D01*
X519154Y28315D01*
X520548Y28112D01*
X520556Y28112D01*
X520574Y28109D01*
X521975Y27934D01*
X522014Y27935D01*
X522115Y27918D01*
X522130Y27917D01*
X522164Y27911D01*
X522419Y27879D01*
X522421Y27878D01*
X522578Y27842D01*
X523967Y27615D01*
X523975Y27615D01*
X523989Y27611D01*
X525366Y27411D01*
X525399Y27411D01*
X525506Y27391D01*
X525519Y27391D01*
X525547Y27385D01*
X525844Y27342D01*
X525844Y27341D01*
X526001Y27303D01*
X527366Y27059D01*
X527372Y27058D01*
X527385Y27056D01*
X529339Y26736D01*
X529383Y26724D01*
X529388Y26723D01*
X529390Y26722D01*
X529395Y26721D01*
X531301Y26355D01*
X531306Y26355D01*
X531317Y26352D01*
X533157Y26023D01*
X533207Y25999D01*
X533323Y25969D01*
X533338Y25964D01*
X533346Y25963D01*
X533363Y25959D01*
X535371Y25573D01*
X535466Y25567D01*
X535486Y25564D01*
X537427Y25179D01*
X537430Y25178D01*
X537435Y25177D01*
X539325Y24814D01*
X539332Y24811D01*
X539436Y24783D01*
X539454Y24776D01*
X539465Y24775D01*
X539488Y24769D01*
X555114Y21666D01*
X555116Y21666D01*
X555119Y21665D01*
X561738Y20373D01*
X561740Y20373D01*
X561744Y20372D01*
X570011Y18800D01*
X570014Y18800D01*
X570020Y18799D01*
X574973Y17896D01*
X574976Y17896D01*
X574982Y17894D01*
X577724Y17414D01*
X577727Y17414D01*
X577732Y17412D01*
X580474Y16949D01*
X580477Y16949D01*
X580484Y16947D01*
X583224Y16507D01*
X583228Y16507D01*
X583235Y16505D01*
X585417Y16173D01*
X585421Y16173D01*
X585429Y16171D01*
X588164Y15783D01*
X588168Y15783D01*
X588178Y15781D01*
X590358Y15497D01*
X590362Y15497D01*
X590371Y15495D01*
X592550Y15235D01*
X592554Y15235D01*
X592564Y15233D01*
X594745Y14998D01*
X594750Y14998D01*
X594761Y14997D01*
X597503Y14736D01*
X597508Y14736D01*
X597519Y14735D01*
X599705Y14554D01*
X599709Y14554D01*
X599718Y14553D01*
X602476Y14354D01*
X602481Y14354D01*
X602491Y14353D01*
X606374Y14116D01*
X606377Y14116D01*
X606385Y14116D01*
X609730Y13940D01*
X609732Y13941D01*
X609737Y13940D01*
X614203Y13729D01*
X614206Y13730D01*
X614212Y13729D01*
X616979Y13619D01*
X616984Y13619D01*
X616994Y13618D01*
X619749Y13541D01*
X619754Y13541D01*
X619764Y13540D01*
X622523Y13495D01*
X622528Y13495D01*
X622537Y13495D01*
X625295Y13481D01*
X625299Y13481D01*
X625309Y13481D01*
X628071Y13498D01*
X628075Y13499D01*
X628085Y13498D01*
X630844Y13546D01*
X630849Y13547D01*
X630858Y13547D01*
X633618Y13625D01*
X633623Y13625D01*
X633633Y13625D01*
X636390Y13734D01*
X636394Y13735D01*
X636403Y13735D01*
X639164Y13872D01*
X639169Y13873D01*
X639178Y13873D01*
X641935Y14041D01*
X641940Y14042D01*
X641948Y14042D01*
X644699Y14238D01*
X644704Y14239D01*
X644716Y14239D01*
X648575Y14565D01*
X648581Y14566D01*
X648593Y14566D01*
X652444Y14947D01*
X652450Y14948D01*
X652463Y14949D01*
X656311Y15386D01*
X656317Y15387D01*
X656328Y15388D01*
X659615Y15807D01*
X659620Y15808D01*
X659631Y15809D01*
X662912Y16268D01*
X662918Y16270D01*
X662929Y16271D01*
X666757Y16860D01*
X666762Y16862D01*
X666775Y16863D01*
X670594Y17507D01*
X670600Y17509D01*
X670611Y17510D01*
X673865Y18105D01*
X673870Y18107D01*
X673882Y18109D01*
X677681Y18859D01*
X677687Y18861D01*
X677699Y18863D01*
X681482Y19668D01*
X681488Y19670D01*
X681500Y19672D01*
X684729Y20408D01*
X684734Y20410D01*
X684746Y20412D01*
X687963Y21190D01*
X687968Y21192D01*
X687980Y21195D01*
X691187Y22017D01*
X691192Y22019D01*
X691204Y22021D01*
X694396Y22887D01*
X694401Y22889D01*
X694414Y22892D01*
X698129Y23960D01*
X698135Y23963D01*
X698148Y23966D01*
X701306Y24928D01*
X701311Y24931D01*
X701324Y24934D01*
X704468Y25944D01*
X704474Y25947D01*
X704487Y25951D01*
X707613Y27008D01*
X707619Y27011D01*
X707632Y27015D01*
X710740Y28122D01*
X710746Y28125D01*
X710759Y28129D01*
X713843Y29285D01*
X713849Y29288D01*
X713864Y29293D01*
X716922Y30500D01*
X716928Y30503D01*
X716944Y30509D01*
X720493Y31989D01*
X720500Y31993D01*
X720515Y31999D01*
X723009Y33095D01*
X723015Y33099D01*
X723030Y33104D01*
X726014Y34481D01*
X726021Y34485D01*
X726036Y34491D01*
X728482Y35675D01*
X728488Y35679D01*
X728504Y35686D01*
X731421Y37171D01*
X731428Y37176D01*
X731446Y37184D01*
X734321Y38732D01*
X734328Y38737D01*
X734346Y38745D01*
X736699Y40080D01*
X736706Y40086D01*
X736723Y40094D01*
X739046Y41479D01*
X739053Y41484D01*
X739070Y41494D01*
X741362Y42931D01*
X741369Y42937D01*
X741385Y42946D01*
X743175Y44123D01*
X743182Y44129D01*
X743199Y44139D01*
X745893Y45997D01*
X745899Y46002D01*
X745914Y46012D01*
X749027Y48253D01*
X749034Y48259D01*
X749049Y48269D01*
X752113Y50577D01*
X752119Y50583D01*
X752134Y50593D01*
X754708Y52617D01*
X754714Y52623D01*
X754729Y52633D01*
X757702Y55073D01*
X757707Y55078D01*
X757719Y55087D01*
X759379Y56499D01*
X759382Y56503D01*
X759390Y56509D01*
X760620Y57581D01*
X760624Y57584D01*
X760631Y57590D01*
X762268Y59049D01*
X762271Y59053D01*
X762279Y59059D01*
X763487Y60161D01*
X763489Y60164D01*
X763496Y60170D01*
X764694Y61285D01*
X764697Y61289D01*
X764705Y61295D01*
X766283Y62800D01*
X766287Y62805D01*
X766298Y62815D01*
X768647Y65131D01*
X768651Y65136D01*
X768661Y65145D01*
X769796Y66299D01*
X769799Y66303D01*
X769806Y66310D01*
X771326Y67892D01*
X771329Y67896D01*
X771336Y67903D01*
X772450Y69092D01*
X772453Y69096D01*
X772461Y69103D01*
X773941Y70720D01*
X773943Y70724D01*
X773951Y70731D01*
X775036Y71947D01*
X775039Y71951D01*
X775046Y71958D01*
X776478Y73600D01*
X776482Y73606D01*
X776492Y73617D01*
X778616Y76140D01*
X778619Y76145D01*
X778629Y76155D01*
X779651Y77409D01*
X779654Y77413D01*
X779661Y77421D01*
X781019Y79127D01*
X781023Y79133D01*
X781033Y79144D01*
X783040Y81758D01*
X783043Y81764D01*
X783052Y81774D01*
X784019Y83075D01*
X784021Y83079D01*
X784027Y83087D01*
X785308Y84851D01*
X785311Y84858D01*
X785320Y84869D01*
X787202Y87560D01*
X787206Y87567D01*
X787217Y87581D01*
X789045Y90312D01*
X789048Y90318D01*
X789057Y90330D01*
X790239Y92163D01*
X790241Y92167D01*
X790247Y92175D01*
X791115Y93555D01*
X791117Y93559D01*
X791123Y93568D01*
X792269Y95438D01*
X792271Y95443D01*
X792276Y95451D01*
X793113Y96853D01*
X793115Y96858D01*
X793120Y96866D01*
X794222Y98760D01*
X794223Y98765D01*
X794229Y98773D01*
X795037Y100200D01*
X795038Y100204D01*
X795042Y100211D01*
X795835Y101643D01*
X795837Y101647D01*
X795842Y101656D01*
X796874Y103574D01*
X796877Y103580D01*
X796885Y103593D01*
X798649Y107012D01*
X798652Y107020D01*
X798661Y107036D01*
X800103Y109978D01*
X800106Y109985D01*
X800114Y110001D01*
X801735Y113480D01*
X801737Y113488D01*
X801746Y113505D01*
X803291Y117017D01*
X803294Y117025D01*
X803302Y117042D01*
X804774Y120586D01*
X804777Y120594D01*
X804784Y120610D01*
X806186Y124187D01*
X806188Y124195D01*
X806195Y124210D01*
X807526Y127816D01*
X807527Y127824D01*
X807534Y127839D01*
X808798Y131481D01*
X808800Y131487D01*
X808805Y131500D01*
X809491Y133578D01*
X809492Y133583D01*
X809495Y133591D01*
X810162Y135682D01*
X810163Y135687D01*
X810167Y135697D01*
X811130Y138856D01*
X811131Y138863D01*
X811136Y138878D01*
X812347Y143121D01*
X812348Y143129D01*
X812353Y143144D01*
X813341Y146869D01*
X813341Y146876D01*
X813346Y146890D01*
X814273Y150637D01*
X814273Y150644D01*
X814277Y150657D01*
X815143Y154416D01*
X815144Y154423D01*
X815148Y154438D01*
X816065Y158761D01*
X816066Y158768D01*
X816070Y158782D01*
X816912Y163124D01*
X816913Y163130D01*
X816916Y163143D01*
X817592Y166949D01*
X817592Y166956D01*
X817595Y166968D01*
X818303Y171338D01*
X818304Y171344D01*
X818307Y171358D01*
X818945Y175742D01*
X818945Y175748D01*
X818947Y175760D01*
X819451Y179599D01*
X819451Y179604D01*
X819453Y179616D01*
X819969Y184019D01*
X819969Y184026D01*
X819971Y184039D01*
X820476Y189005D01*
X820476Y189011D01*
X820478Y189024D01*
X820907Y194000D01*
X820907Y194003D01*
X820907Y194006D01*
X820909Y194019D01*
X821264Y199004D01*
X821264Y199010D01*
X821265Y199021D01*
X821455Y202314D01*
X821455Y202322D01*
X821456Y202338D01*
X821585Y205632D01*
X821584Y205637D01*
X821585Y205650D01*
X821639Y207841D01*
X821639Y207845D01*
X821639Y207853D01*
X821671Y210048D01*
X821671Y210053D01*
X821671Y210064D01*
X821679Y214499D01*
X821679Y214506D01*
X821679Y214519D01*
X821611Y219516D01*
X821610Y219521D01*
X821611Y219534D01*
X821473Y224532D01*
X821472Y224537D01*
X821472Y224547D01*
X821271Y229554D01*
X821271Y229559D01*
X821271Y229569D01*
X820981Y235137D01*
X820980Y235142D01*
X820980Y235152D01*
X820664Y240153D01*
X820663Y240157D01*
X820663Y240166D01*
X820250Y245730D01*
X820249Y245735D01*
X820249Y245744D01*
X819773Y251299D01*
X819772Y251303D01*
X819772Y251313D01*
X819288Y256306D01*
X819287Y256310D01*
X819287Y256319D01*
X818811Y260745D01*
X818810Y260749D01*
X818809Y260759D01*
X818218Y265735D01*
X818217Y265740D01*
X818216Y265750D01*
X817713Y269601D01*
X817711Y269606D01*
X817711Y269616D01*
X817081Y274011D01*
X817080Y274017D01*
X817079Y274029D01*
X816477Y277851D01*
X816475Y277857D01*
X816474Y277870D01*
X813837Y293072D01*
X813836Y293072D01*
X813836Y293073D01*
X813835Y293076D01*
X813834Y293084D01*
X813792Y293327D01*
X813771Y293395D01*
X813760Y293465D01*
X813705Y293617D01*
X813319Y294504D01*
X813376Y294649D01*
X813402Y294752D01*
X813436Y294853D01*
X813441Y294906D01*
X813454Y294957D01*
X813454Y295064D01*
X813462Y295170D01*
X813453Y295253D01*
X813453Y295275D01*
X813449Y295290D01*
X813445Y295330D01*
X813418Y295483D01*
X813560Y295685D01*
X813561Y295686D01*
X813633Y295823D01*
X813709Y295966D01*
X813710Y295967D01*
X813710Y295968D01*
X813746Y296119D01*
X813784Y296275D01*
X813784Y296276D01*
X813784Y296277D01*
X813792Y296438D01*
X813789Y296561D01*
X814182Y296967D01*
X814188Y296975D01*
X814196Y296982D01*
X814283Y297103D01*
X814373Y297222D01*
X814377Y297231D01*
X814382Y297239D01*
X814451Y297385D01*
X814657Y297911D01*
X815180Y298139D01*
X815188Y298144D01*
X815196Y298146D01*
X815324Y298224D01*
X815454Y298302D01*
X815460Y298308D01*
X815467Y298312D01*
X815586Y298421D01*
X831312Y314701D01*
X831314Y314704D01*
X831319Y314708D01*
X834008Y317534D01*
X834010Y317537D01*
X834015Y317542D01*
X836294Y319977D01*
X836297Y319981D01*
X836303Y319986D01*
X840076Y324097D01*
X840079Y324101D01*
X840086Y324107D01*
X843060Y327420D01*
X843062Y327424D01*
X843069Y327431D01*
X846376Y331195D01*
X846379Y331199D01*
X846386Y331207D01*
X850011Y335436D01*
X850014Y335440D01*
X850022Y335449D01*
X853590Y339723D01*
X853593Y339728D01*
X853600Y339735D01*
X856759Y343619D01*
X856762Y343624D01*
X856770Y343632D01*
X860225Y347993D01*
X860228Y347998D01*
X860235Y348007D01*
X863635Y352423D01*
X863637Y352427D01*
X863643Y352434D01*
X865309Y354645D01*
X865311Y354648D01*
X865315Y354654D01*
X867299Y357331D01*
X867301Y357335D01*
X867307Y357342D01*
X870243Y361398D01*
X870245Y361403D01*
X870253Y361412D01*
X873450Y365962D01*
X873453Y365967D01*
X873461Y365977D01*
X876272Y370106D01*
X876275Y370111D01*
X876282Y370121D01*
X879038Y374293D01*
X879040Y374298D01*
X879048Y374308D01*
X881739Y378516D01*
X881742Y378521D01*
X881749Y378532D01*
X884380Y382783D01*
X884382Y382788D01*
X884388Y382797D01*
X886100Y385645D01*
X886101Y385648D01*
X886106Y385655D01*
X887506Y388034D01*
X887508Y388039D01*
X887514Y388048D01*
X889993Y392386D01*
X889996Y392393D01*
X890004Y392405D01*
X892410Y396782D01*
X892412Y396787D01*
X892418Y396797D01*
X893715Y399231D01*
X893717Y399235D01*
X893721Y399243D01*
X894993Y401688D01*
X894995Y401694D01*
X895001Y401704D01*
X897247Y406169D01*
X897249Y406174D01*
X897255Y406185D01*
X898456Y408662D01*
X898457Y408667D01*
X898462Y408674D01*
X899644Y411179D01*
X899645Y411182D01*
X899649Y411189D01*
X900570Y413190D01*
X900572Y413193D01*
X900576Y413201D01*
X901704Y415714D01*
X901705Y415720D01*
X901711Y415731D01*
X903463Y419792D01*
X903465Y419800D01*
X903472Y419814D01*
X905147Y423903D01*
X905149Y423909D01*
X905155Y423921D01*
X906157Y426480D01*
X906159Y426485D01*
X906163Y426495D01*
X907132Y429062D01*
X907134Y429068D01*
X907139Y429081D01*
X908635Y433246D01*
X908636Y433252D01*
X908641Y433265D01*
X909347Y435333D01*
X909348Y435337D01*
X909352Y435346D01*
X910040Y437435D01*
X910041Y437440D01*
X910044Y437448D01*
X910709Y439540D01*
X910710Y439545D01*
X910713Y439555D01*
X911512Y442184D01*
X911513Y442190D01*
X911517Y442201D01*
X912275Y444834D01*
X912276Y444840D01*
X912281Y444853D01*
X913141Y448031D01*
X913142Y448038D01*
X913147Y448054D01*
X913948Y451244D01*
X913949Y451251D01*
X913953Y451266D01*
X914572Y453926D01*
X914573Y453933D01*
X914577Y453946D01*
X915152Y456613D01*
X915153Y456620D01*
X915157Y456636D01*
X915790Y459860D01*
X915791Y459868D01*
X915795Y459884D01*
X916268Y462564D01*
X916268Y462572D01*
X916272Y462587D01*
X916698Y465279D01*
X916699Y465287D01*
X916702Y465303D01*
X917078Y467996D01*
X917078Y468004D01*
X917081Y468020D01*
X917405Y470720D01*
X917405Y470728D01*
X917408Y470745D01*
X917680Y473452D01*
X917679Y473460D01*
X917682Y473476D01*
X917858Y475626D01*
X917857Y475633D01*
X917859Y475649D01*
X917867Y475776D01*
X917867Y475777D01*
X918028Y478315D01*
X918031Y478366D01*
X918030Y478374D01*
X918032Y478391D01*
X918127Y480548D01*
X918126Y480555D01*
X918127Y480570D01*
X918184Y482733D01*
X918183Y482740D01*
X918184Y482755D01*
X918190Y483481D01*
X918180Y483567D01*
X918180Y483654D01*
X918169Y483698D01*
X918168Y483709D01*
X918161Y483731D01*
X918158Y483757D01*
X918184Y484695D01*
X918176Y484779D01*
X918178Y484863D01*
X918161Y484936D01*
X918153Y485012D01*
X918151Y485018D01*
X918198Y485926D01*
X918192Y486007D01*
X918196Y486088D01*
X918180Y486165D01*
X918175Y486243D01*
X918167Y486266D01*
X918217Y486886D01*
X918216Y486907D01*
X918221Y486976D01*
X918224Y487382D01*
X918228Y487403D01*
X918252Y487487D01*
X918264Y487619D01*
X918266Y487631D01*
X918265Y487636D01*
X918266Y487647D01*
X918271Y487815D01*
X918267Y487862D01*
X918270Y487908D01*
X918252Y488015D01*
X918279Y488260D01*
X918279Y488282D01*
X918286Y488365D01*
X918292Y488567D01*
X918308Y488608D01*
X918335Y488767D01*
X918350Y488901D01*
X918350Y488921D01*
X918356Y488975D01*
X918392Y489654D01*
X918389Y489696D01*
X918393Y489738D01*
X918389Y489772D01*
X918395Y489815D01*
X918395Y489837D01*
X918401Y489882D01*
X918413Y489942D01*
X918517Y490670D01*
X918518Y490690D01*
X918526Y490749D01*
X918587Y491512D01*
X918603Y491542D01*
X918622Y491620D01*
X918650Y491694D01*
X918678Y491850D01*
X918678Y491851D01*
X918678Y491852D01*
X918678Y491853D01*
X918688Y491942D01*
X918687Y492002D01*
X918696Y492060D01*
X918685Y492160D01*
X918684Y492220D01*
X918773Y492725D01*
X918774Y492745D01*
X918784Y492804D01*
X918841Y493314D01*
X918847Y493325D01*
X918863Y493382D01*
X918887Y493436D01*
X918925Y493593D01*
X918982Y493920D01*
X918983Y493932D01*
X918989Y493960D01*
X919034Y494274D01*
X919035Y494337D01*
X919045Y494399D01*
X919037Y494495D01*
X919038Y494509D01*
X919132Y494974D01*
X919133Y494993D01*
X919144Y495046D01*
X919232Y495655D01*
X919240Y495669D01*
X919258Y495728D01*
X919286Y495785D01*
X919328Y495940D01*
X919391Y496251D01*
X919391Y496261D01*
X919397Y496284D01*
X919448Y496577D01*
X919451Y496644D01*
X919464Y496710D01*
X919459Y496803D01*
X919460Y496815D01*
X919583Y497355D01*
X919585Y497373D01*
X919596Y497418D01*
X919699Y498007D01*
X919714Y498052D01*
X919745Y498112D01*
X919791Y498266D01*
X919857Y498557D01*
X919858Y498567D01*
X919864Y498587D01*
X920035Y499433D01*
X920040Y499502D01*
X920055Y499570D01*
X920054Y499603D01*
X920127Y499892D01*
X920129Y499908D01*
X920140Y499949D01*
X920224Y500364D01*
X920245Y500402D01*
X920294Y500555D01*
X920504Y501391D01*
X920505Y501399D01*
X920511Y501418D01*
X920698Y502239D01*
X920705Y502313D01*
X920723Y502385D01*
X920722Y502399D01*
X920792Y502657D01*
X920794Y502672D01*
X920805Y502707D01*
X920917Y503197D01*
X920939Y503236D01*
X920991Y503388D01*
X921211Y504199D01*
X921212Y504207D01*
X921217Y504222D01*
X921417Y505017D01*
X921426Y505095D01*
X921446Y505171D01*
X921446Y505177D01*
X921530Y505470D01*
X921532Y505483D01*
X921541Y505511D01*
X921668Y506015D01*
X921684Y506043D01*
X921739Y506194D01*
X921965Y506982D01*
X921966Y506988D01*
X921971Y507001D01*
X922333Y508337D01*
X922343Y508407D01*
X922419Y508658D01*
X922421Y508670D01*
X922430Y508696D01*
X922478Y508869D01*
X922512Y508960D01*
X922512Y508961D01*
X922512Y508962D01*
X922917Y510288D01*
X922918Y510294D01*
X922923Y510307D01*
X923432Y512077D01*
X923472Y512142D01*
X923516Y512259D01*
X923523Y512272D01*
X923523Y512273D01*
X923523Y512274D01*
X923524Y512280D01*
X923529Y512293D01*
X923642Y512663D01*
X923657Y512752D01*
X923682Y512839D01*
X923684Y512888D01*
X924249Y514652D01*
X924250Y514658D01*
X924254Y514669D01*
X924797Y516448D01*
X924831Y516501D01*
X924876Y516616D01*
X924883Y516630D01*
X924884Y516637D01*
X924890Y516651D01*
X927176Y523786D01*
X927177Y523789D01*
X927179Y523795D01*
X928675Y528592D01*
X928676Y528597D01*
X928679Y528605D01*
X930125Y533413D01*
X930125Y533417D01*
X930128Y533426D01*
X930899Y536085D01*
X930900Y536089D01*
X930902Y536095D01*
X931651Y538759D01*
X931652Y538764D01*
X931655Y538774D01*
X932805Y543064D01*
X932805Y543069D01*
X932809Y543079D01*
X933350Y545206D01*
X933350Y545210D01*
X933353Y545219D01*
X934006Y547905D01*
X934006Y547909D01*
X934009Y547919D01*
X934503Y550057D01*
X934504Y550061D01*
X934506Y550070D01*
X934978Y552217D01*
X934978Y552222D01*
X934981Y552231D01*
X935427Y554380D01*
X935428Y554385D01*
X935430Y554395D01*
X935848Y556532D01*
X935849Y556539D01*
X935852Y556554D01*
X936526Y560343D01*
X936526Y560351D01*
X936530Y560369D01*
X937037Y563607D01*
X937038Y563615D01*
X937041Y563632D01*
X937559Y567435D01*
X937559Y567443D01*
X937562Y567461D01*
X938000Y571278D01*
X938000Y571286D01*
X938003Y571302D01*
X938368Y575135D01*
X938368Y575142D01*
X938370Y575157D01*
X938670Y579004D01*
X938670Y579011D01*
X938672Y579025D01*
X938978Y584011D01*
X938977Y584016D01*
X938978Y584027D01*
X939057Y585652D01*
X939057Y585657D01*
X939058Y585667D01*
X939139Y587851D01*
X939138Y587858D01*
X939139Y587871D01*
X939198Y590607D01*
X939198Y590613D01*
X939199Y590628D01*
X939212Y593359D01*
X939211Y593366D01*
X939212Y593380D01*
X939180Y596115D01*
X939179Y596121D01*
X939179Y596135D01*
X939120Y598307D01*
X939119Y598313D01*
X939119Y598326D01*
X939001Y601058D01*
X939000Y601065D01*
X939000Y601080D01*
X938835Y603804D01*
X938834Y603811D01*
X938834Y603826D01*
X938622Y606545D01*
X938621Y606552D01*
X938620Y606568D01*
X938360Y609281D01*
X938358Y609288D01*
X938358Y609303D01*
X938049Y612013D01*
X938047Y612020D01*
X938046Y612035D01*
X937690Y614737D01*
X937688Y614744D01*
X937687Y614760D01*
X937281Y617458D01*
X937279Y617464D01*
X937278Y617479D01*
X936920Y619619D01*
X936918Y619625D01*
X936916Y619639D01*
X936422Y622322D01*
X936419Y622329D01*
X936417Y622345D01*
X935874Y625014D01*
X935872Y625021D01*
X935870Y625037D01*
X935278Y627693D01*
X935275Y627700D01*
X935272Y627716D01*
X934631Y630361D01*
X934628Y630368D01*
X934625Y630384D01*
X933934Y633015D01*
X933931Y633022D01*
X933928Y633039D01*
X933186Y635660D01*
X933183Y635666D01*
X933180Y635681D01*
X932554Y637757D01*
X932551Y637763D01*
X932548Y637778D01*
X931715Y640375D01*
X931712Y640382D01*
X931708Y640396D01*
X931012Y642444D01*
X931009Y642450D01*
X931004Y642465D01*
X930083Y645028D01*
X930079Y645036D01*
X930074Y645052D01*
X929105Y647590D01*
X929101Y647597D01*
X929096Y647613D01*
X928078Y650132D01*
X928074Y650139D01*
X928068Y650155D01*
X927000Y652653D01*
X926996Y652660D01*
X926990Y652676D01*
X925873Y655152D01*
X925869Y655159D01*
X925863Y655175D01*
X924695Y657631D01*
X924691Y657637D01*
X924685Y657652D01*
X923722Y659588D01*
X923718Y659594D01*
X923711Y659608D01*
X922454Y662026D01*
X922449Y662032D01*
X922443Y662046D01*
X921411Y663944D01*
X921407Y663950D01*
X921400Y663964D01*
X920055Y666334D01*
X920051Y666340D01*
X920043Y666354D01*
X918946Y668208D01*
X918941Y668214D01*
X918933Y668230D01*
X917205Y671020D01*
X917200Y671026D01*
X917192Y671040D01*
X916324Y672385D01*
X916319Y672390D01*
X916312Y672403D01*
X915421Y673734D01*
X915416Y673740D01*
X915408Y673753D01*
X914493Y675070D01*
X914488Y675074D01*
X914481Y675086D01*
X913547Y676385D01*
X913542Y676391D01*
X913532Y676405D01*
X911564Y679027D01*
X911559Y679033D01*
X911549Y679047D01*
X910212Y680757D01*
X910208Y680760D01*
X910202Y680769D01*
X909189Y682032D01*
X909184Y682036D01*
X909176Y682047D01*
X906718Y685013D01*
X906712Y685018D01*
X906702Y685032D01*
X904182Y687951D01*
X904178Y687955D01*
X904170Y687965D01*
X902714Y689602D01*
X902711Y689605D01*
X902706Y689612D01*
X901227Y691242D01*
X901224Y691245D01*
X901218Y691252D01*
X899341Y693276D01*
X899338Y693279D01*
X899332Y693286D01*
X897825Y694877D01*
X897820Y694881D01*
X897812Y694890D01*
X894727Y698058D01*
X894721Y698062D01*
X894710Y698075D01*
X891572Y701176D01*
X891566Y701180D01*
X891555Y701192D01*
X888766Y703849D01*
X888760Y703853D01*
X888749Y703865D01*
X885909Y706472D01*
X885903Y706476D01*
X885894Y706486D01*
X884264Y707935D01*
X884260Y707938D01*
X884252Y707946D01*
X882597Y709380D01*
X882593Y709383D01*
X882585Y709390D01*
X881344Y710441D01*
X881339Y710443D01*
X881331Y710451D01*
X879646Y711840D01*
X879641Y711843D01*
X879631Y711852D01*
X878369Y712861D01*
X878364Y712864D01*
X878355Y712872D01*
X877091Y713854D01*
X877084Y713858D01*
X877069Y713871D01*
X874904Y715479D01*
X874895Y715484D01*
X874878Y715498D01*
X873589Y716405D01*
X873583Y716408D01*
X873569Y716419D01*
X872714Y716997D01*
X872707Y717000D01*
X872695Y717009D01*
X871831Y717571D01*
X871824Y717574D01*
X871809Y717585D01*
X870959Y718112D01*
X870949Y718117D01*
X870928Y718132D01*
X868607Y719481D01*
X868599Y719485D01*
X868582Y719495D01*
X867184Y720266D01*
X867178Y720269D01*
X867168Y720275D01*
X865747Y721033D01*
X865740Y721035D01*
X865728Y721043D01*
X862805Y722537D01*
X862797Y722539D01*
X862781Y722549D01*
X859326Y724223D01*
X859318Y724226D01*
X859303Y724234D01*
X855801Y725848D01*
X855795Y725849D01*
X855784Y725855D01*
X853780Y726743D01*
X853776Y726745D01*
X853768Y726749D01*
X851761Y727613D01*
X851755Y727615D01*
X851743Y727621D01*
X848168Y729096D01*
X848162Y729097D01*
X848150Y729103D01*
X846644Y729697D01*
X846639Y729699D01*
X846629Y729703D01*
X844587Y730479D01*
X844582Y730481D01*
X844570Y730486D01*
X843055Y731037D01*
X843048Y731039D01*
X843036Y731044D01*
X841522Y731568D01*
X841514Y731570D01*
X841499Y731576D01*
X839988Y732067D01*
X839980Y732068D01*
X839963Y732075D01*
X838991Y732368D01*
X838982Y732370D01*
X838963Y732377D01*
X838895Y732395D01*
X838819Y732406D01*
X838745Y732427D01*
X838662Y732429D01*
X838580Y732441D01*
X838504Y732433D01*
X838427Y732435D01*
X838346Y732416D01*
X838264Y732407D01*
X838192Y732380D01*
X838117Y732363D01*
X838044Y732325D01*
X837966Y732296D01*
X837903Y732252D01*
X837835Y732216D01*
X837773Y732161D01*
X837705Y732114D01*
X837655Y732056D01*
X837598Y732004D01*
X837552Y731936D01*
X837498Y731873D01*
X837464Y731804D01*
X837421Y731740D01*
X837394Y731662D01*
X837357Y731588D01*
X837341Y731512D01*
X837315Y731440D01*
X837292Y731281D01*
X837194Y730146D01*
X837194Y730136D01*
X837192Y730114D01*
X837097Y728535D01*
X837097Y728528D01*
X837096Y728518D01*
X837096Y728514D01*
X837025Y726906D01*
X837026Y726899D01*
X837024Y726885D01*
X836917Y723020D01*
X836918Y723015D01*
X836917Y723003D01*
X836854Y718551D01*
X836855Y718547D01*
X836854Y718540D01*
X836821Y712199D01*
X836832Y712105D01*
X836833Y712069D01*
X836810Y710104D01*
X836810Y710101D01*
X836810Y710096D01*
X836806Y709331D01*
X836816Y709244D01*
X836817Y709156D01*
X836819Y709147D01*
X836801Y708325D01*
X836801Y708317D01*
X836800Y708302D01*
X836799Y708089D01*
X836797Y708060D01*
X836794Y708046D01*
X836795Y708040D01*
X836794Y708027D01*
X836776Y707260D01*
X836777Y707256D01*
X836776Y707246D01*
X836754Y705315D01*
X836759Y705268D01*
X836686Y703271D01*
X836686Y703265D01*
X836685Y703253D01*
X836643Y701394D01*
X836625Y701334D01*
X836613Y701213D01*
X836610Y701198D01*
X836611Y701190D01*
X836609Y701174D01*
X836595Y700790D01*
X836603Y700701D01*
X836601Y700611D01*
X836615Y700554D01*
X836520Y698713D01*
X836520Y698707D01*
X836519Y698694D01*
X836451Y696847D01*
X836430Y696778D01*
X836415Y696654D01*
X836412Y696639D01*
X836413Y696632D01*
X836411Y696618D01*
X836362Y695674D01*
X836369Y695583D01*
X836366Y695492D01*
X836375Y695452D01*
X836255Y693596D01*
X836255Y693590D01*
X836254Y693579D01*
X836213Y692796D01*
X836218Y692735D01*
X836193Y692405D01*
X836194Y692396D01*
X836192Y692377D01*
X836156Y691698D01*
X836150Y691678D01*
X836131Y691542D01*
X836129Y691532D01*
X836129Y691528D01*
X836128Y691519D01*
X836070Y690739D01*
X836070Y690735D01*
X836069Y690727D01*
X836051Y690441D01*
X836019Y689947D01*
X836024Y689862D01*
X836019Y689777D01*
X836022Y689761D01*
X835963Y689083D01*
X835963Y689074D01*
X835961Y689055D01*
X835943Y688774D01*
X835931Y688695D01*
X835928Y688685D01*
X835929Y688680D01*
X835927Y688671D01*
X835859Y687890D01*
X835859Y687885D01*
X835858Y687874D01*
X835720Y686012D01*
X835701Y685959D01*
X835683Y685838D01*
X835679Y685823D01*
X835679Y685815D01*
X835677Y685799D01*
X835594Y684850D01*
X835598Y684762D01*
X835591Y684674D01*
X835604Y684604D01*
X835604Y684592D01*
X835414Y682784D01*
X835414Y682777D01*
X835412Y682762D01*
X835254Y680942D01*
X835253Y680940D01*
X835222Y680857D01*
X835201Y680730D01*
X835197Y680717D01*
X835197Y680711D01*
X835195Y680699D01*
X835095Y679746D01*
X835097Y679656D01*
X835089Y679566D01*
X835098Y679513D01*
X834878Y677678D01*
X834878Y677672D01*
X834876Y677660D01*
X834794Y676875D01*
X834795Y676823D01*
X834762Y676568D01*
X834762Y676559D01*
X834758Y676538D01*
X834681Y675801D01*
X834669Y675772D01*
X834642Y675632D01*
X834640Y675624D01*
X834640Y675620D01*
X834639Y675614D01*
X834538Y674833D01*
X834538Y674829D01*
X834536Y674821D01*
X834511Y674609D01*
X834511Y674524D01*
X834502Y674440D01*
X834507Y674405D01*
X834380Y673518D01*
X834380Y673509D01*
X834377Y673490D01*
X834310Y672936D01*
X834306Y672926D01*
X834278Y672791D01*
X834276Y672781D01*
X834275Y672777D01*
X834274Y672769D01*
X834244Y672560D01*
X834244Y672555D01*
X834242Y672544D01*
X833993Y670621D01*
X833993Y670610D01*
X833988Y670573D01*
X833987Y670563D01*
X833983Y670540D01*
X833982Y670535D01*
X833981Y670531D01*
X833981Y670527D01*
X833979Y670519D01*
X833681Y668605D01*
X833680Y668599D01*
X833678Y668588D01*
X833648Y668374D01*
X833646Y668290D01*
X833635Y668206D01*
X833637Y668194D01*
X833539Y667606D01*
X833538Y667596D01*
X833534Y667576D01*
X833415Y666740D01*
X833399Y666703D01*
X833367Y666567D01*
X833364Y666558D01*
X833364Y666554D01*
X833362Y666547D01*
X833327Y666334D01*
X833326Y666329D01*
X833325Y666321D01*
X833292Y666111D01*
X833289Y666025D01*
X833277Y665940D01*
X833279Y665920D01*
X833145Y665167D01*
X833145Y665158D01*
X833140Y665140D01*
X833033Y664452D01*
X833025Y664434D01*
X832993Y664302D01*
X832989Y664291D01*
X832989Y664287D01*
X832987Y664277D01*
X832950Y664069D01*
X832949Y664065D01*
X832947Y664055D01*
X832912Y663843D01*
X832910Y663790D01*
X832909Y663787D01*
X832909Y663781D01*
X832908Y663758D01*
X832895Y663675D01*
X832898Y663649D01*
X832756Y662905D01*
X832755Y662896D01*
X832751Y662876D01*
X832638Y662198D01*
X832627Y662175D01*
X832593Y662042D01*
X832590Y662032D01*
X832589Y662028D01*
X832587Y662020D01*
X832547Y661808D01*
X832547Y661804D01*
X832544Y661794D01*
X832505Y661576D01*
X832501Y661492D01*
X832487Y661409D01*
X832490Y661378D01*
X832339Y660639D01*
X832338Y660629D01*
X832333Y660608D01*
X832215Y659945D01*
X832203Y659920D01*
X832165Y659781D01*
X832162Y659773D01*
X832162Y659770D01*
X832161Y659764D01*
X832117Y659549D01*
X832116Y659544D01*
X832114Y659533D01*
X832072Y659315D01*
X832067Y659232D01*
X832052Y659150D01*
X832053Y659125D01*
X831911Y658466D01*
X831910Y658456D01*
X831904Y658435D01*
X831740Y657571D01*
X831738Y657540D01*
X831476Y656403D01*
X831475Y656393D01*
X831469Y656371D01*
X831252Y655307D01*
X831251Y655296D01*
X831035Y654422D01*
X831034Y654411D01*
X831027Y654387D01*
X830859Y653610D01*
X830856Y653578D01*
X830583Y652532D01*
X830582Y652521D01*
X830574Y652497D01*
X830441Y651918D01*
X830434Y651846D01*
X830423Y651804D01*
X830379Y651646D01*
X830377Y651630D01*
X830366Y651591D01*
X830336Y651464D01*
X830322Y651422D01*
X830314Y651406D01*
X830312Y651394D01*
X830300Y651360D01*
X830137Y650773D01*
X830136Y650762D01*
X830128Y650737D01*
X830001Y650221D01*
X829993Y650152D01*
X829975Y650084D01*
X829975Y650067D01*
X829912Y649855D01*
X829909Y649838D01*
X829896Y649797D01*
X829882Y649739D01*
X829859Y649677D01*
X829681Y649077D01*
X829679Y649065D01*
X829670Y649037D01*
X829534Y648515D01*
X829525Y648448D01*
X829507Y648384D01*
X829506Y648358D01*
X829441Y648152D01*
X829438Y648134D01*
X829423Y648088D01*
X829414Y648056D01*
X829394Y648005D01*
X829199Y647389D01*
X829196Y647375D01*
X829185Y647344D01*
X829035Y646804D01*
X829026Y646743D01*
X829008Y646683D01*
X829006Y646646D01*
X828940Y646453D01*
X828936Y646434D01*
X828918Y646381D01*
X828916Y646375D01*
X828901Y646337D01*
X828681Y645696D01*
X828678Y645681D01*
X828665Y645646D01*
X828504Y645102D01*
X828494Y645043D01*
X828476Y644987D01*
X828474Y644968D01*
X828436Y644863D01*
X828431Y644843D01*
X828411Y644787D01*
X828398Y644743D01*
X828363Y644664D01*
X828153Y644090D01*
X828149Y644075D01*
X828135Y644038D01*
X828112Y643968D01*
X828102Y643912D01*
X828083Y643860D01*
X828073Y643757D01*
X828070Y643735D01*
X827928Y643376D01*
X827922Y643356D01*
X827898Y643294D01*
X827852Y643148D01*
X827844Y643137D01*
X827776Y642991D01*
X827632Y642627D01*
X827628Y642611D01*
X827611Y642572D01*
X827505Y642260D01*
X827494Y642210D01*
X827475Y642162D01*
X827463Y642058D01*
X827347Y641789D01*
X827341Y641768D01*
X827313Y641700D01*
X827245Y641500D01*
X827222Y641472D01*
X827150Y641328D01*
X827095Y641201D01*
X827090Y641183D01*
X827070Y641138D01*
X827062Y641116D01*
X827051Y641069D01*
X827033Y641025D01*
X827019Y640935D01*
X827008Y640896D01*
X827007Y640876D01*
X827006Y640870D01*
X826863Y640560D01*
X826856Y640539D01*
X826824Y640465D01*
X826788Y640368D01*
X826782Y640360D01*
X826705Y640219D01*
X826613Y640018D01*
X826590Y639945D01*
X826557Y639875D01*
X826542Y639794D01*
X826517Y639715D01*
X826514Y639658D01*
X826291Y639219D01*
X826284Y639199D01*
X826244Y639113D01*
X826077Y638689D01*
X826072Y638673D01*
X826064Y638657D01*
X826049Y638589D01*
X825756Y638060D01*
X825749Y638042D01*
X825700Y637945D01*
X825532Y637553D01*
X825528Y637537D01*
X825520Y637523D01*
X825518Y637516D01*
X825283Y637120D01*
X825276Y637103D01*
X825223Y637005D01*
X825011Y636545D01*
X825010Y636544D01*
X824916Y636413D01*
X824727Y636111D01*
X824718Y636091D01*
X824670Y636010D01*
X824385Y635445D01*
X824371Y635432D01*
X824274Y635304D01*
X824040Y634949D01*
X824030Y634929D01*
X823988Y634864D01*
X823732Y634400D01*
X823710Y634383D01*
X823660Y634320D01*
X823603Y634263D01*
X823516Y634135D01*
X823514Y634133D01*
X823514Y634132D01*
X823513Y634130D01*
X823431Y633993D01*
X823410Y633944D01*
X823381Y633900D01*
X823361Y633841D01*
X823252Y633682D01*
X823241Y633663D01*
X823202Y633605D01*
X823041Y633333D01*
X823020Y633307D01*
X822979Y633273D01*
X822879Y633147D01*
X822844Y633096D01*
X822836Y633081D01*
X822810Y633045D01*
X822464Y632491D01*
X822449Y632459D01*
X822437Y632442D01*
X822427Y632423D01*
X822388Y632369D01*
X822325Y632269D01*
X822322Y632267D01*
X822220Y632143D01*
X821887Y631683D01*
X821879Y631669D01*
X821855Y631637D01*
X821467Y631049D01*
X821455Y631026D01*
X821424Y630985D01*
X821308Y630808D01*
X821291Y630795D01*
X821186Y630673D01*
X820851Y630226D01*
X820844Y630214D01*
X820823Y630188D01*
X820441Y629639D01*
X820415Y629590D01*
X820360Y629519D01*
X820350Y629502D01*
X820318Y629462D01*
X820238Y629347D01*
X820137Y629233D01*
X819758Y628748D01*
X819751Y628737D01*
X819731Y628712D01*
X819106Y627850D01*
X819085Y627827D01*
X818538Y627152D01*
X818531Y627141D01*
X818511Y627117D01*
X818103Y626575D01*
X818057Y626540D01*
X817948Y626422D01*
X817789Y626227D01*
X817786Y626221D01*
X817776Y626209D01*
X817627Y626019D01*
X817587Y625951D01*
X817538Y625889D01*
X817521Y625851D01*
X817137Y625390D01*
X817130Y625379D01*
X817111Y625358D01*
X816537Y624623D01*
X815787Y623751D01*
X815781Y623741D01*
X815763Y623722D01*
X815157Y622973D01*
X815100Y622932D01*
X815014Y622841D01*
X815003Y622831D01*
X814999Y622826D01*
X814989Y622815D01*
X814680Y622444D01*
X814637Y622378D01*
X814587Y622318D01*
X814574Y622292D01*
X814242Y621919D01*
X814235Y621909D01*
X814215Y621888D01*
X813999Y621628D01*
X813994Y621625D01*
X813880Y621512D01*
X813337Y620902D01*
X813333Y620897D01*
X813323Y620886D01*
X813167Y620705D01*
X813123Y620639D01*
X813071Y620579D01*
X813054Y620544D01*
X812650Y620103D01*
X812643Y620093D01*
X812624Y620073D01*
X812126Y619495D01*
X812077Y619463D01*
X811961Y619352D01*
X811961Y619351D01*
X811799Y619175D01*
X811795Y619170D01*
X811787Y619161D01*
X811629Y618984D01*
X811583Y618918D01*
X811530Y618858D01*
X811507Y618814D01*
X811009Y618286D01*
X811002Y618277D01*
X810983Y618258D01*
X810551Y617773D01*
X810517Y617752D01*
X810430Y617671D01*
X810428Y617669D01*
X810427Y617668D01*
X810403Y617645D01*
X810401Y617644D01*
X810400Y617643D01*
X810399Y617642D01*
X810237Y617471D01*
X810233Y617466D01*
X810223Y617456D01*
X810061Y617279D01*
X810015Y617214D01*
X809962Y617156D01*
X809937Y617111D01*
X809452Y616614D01*
X809445Y616604D01*
X809424Y616584D01*
X808975Y616094D01*
X808935Y616070D01*
X808817Y615963D01*
X808816Y615963D01*
X808816Y615962D01*
X808815Y615962D01*
X808647Y615790D01*
X808643Y615785D01*
X808633Y615775D01*
X808461Y615594D01*
X808416Y615532D01*
X808363Y615476D01*
X808328Y615413D01*
X807796Y614889D01*
X807788Y614879D01*
X807765Y614857D01*
X807365Y614434D01*
X807327Y614413D01*
X807205Y614307D01*
X807028Y614132D01*
X807023Y614126D01*
X807011Y614115D01*
X806826Y613925D01*
X806781Y613867D01*
X806729Y613814D01*
X806686Y613741D01*
X806178Y613261D01*
X806168Y613249D01*
X806142Y613225D01*
X805735Y612809D01*
X805686Y612782D01*
X805562Y612679D01*
X805471Y612592D01*
X805370Y612497D01*
X805365Y612491D01*
X805351Y612479D01*
X805153Y612284D01*
X805109Y612228D01*
X805058Y612178D01*
X805011Y612103D01*
X805001Y612091D01*
X804507Y611645D01*
X804497Y611633D01*
X804466Y611607D01*
X804058Y611204D01*
X803999Y611173D01*
X803937Y611116D01*
X803869Y611067D01*
X803820Y611010D01*
X803764Y610959D01*
X803718Y610888D01*
X803668Y610828D01*
X803009Y610264D01*
X802998Y610251D01*
X802964Y610223D01*
X802488Y609774D01*
X802459Y609737D01*
X802423Y609707D01*
X802376Y609641D01*
X801600Y609020D01*
X801586Y609006D01*
X801543Y608971D01*
X801083Y608557D01*
X801060Y608530D01*
X801032Y608507D01*
X800964Y608420D01*
X800251Y607895D01*
X800235Y607880D01*
X800177Y607836D01*
X800072Y607746D01*
X800057Y607730D01*
X800040Y607718D01*
X799950Y607613D01*
X799858Y607511D01*
X799855Y607506D01*
X799636Y607360D01*
X799632Y607357D01*
X799581Y607318D01*
X799521Y607284D01*
X799101Y607005D01*
X799051Y606962D01*
X798996Y606928D01*
X798931Y606859D01*
X798860Y606797D01*
X798823Y606744D01*
X798778Y606696D01*
X798771Y606684D01*
X798502Y606525D01*
X798493Y606519D01*
X798484Y606514D01*
X798401Y606457D01*
X798387Y606449D01*
X798379Y606441D01*
X798352Y606422D01*
X798345Y606416D01*
X798298Y606368D01*
X798250Y606331D01*
X798214Y606284D01*
X798157Y606230D01*
X798148Y606216D01*
X797796Y606034D01*
X797757Y606007D01*
X797713Y605987D01*
X797626Y605917D01*
X797534Y605853D01*
X797503Y605817D01*
X797466Y605788D01*
X797399Y605698D01*
X797387Y605684D01*
X797200Y605606D01*
X797171Y605589D01*
X797154Y605586D01*
X797139Y605578D01*
X797100Y605564D01*
X796897Y605479D01*
X796890Y605475D01*
X796882Y605473D01*
X796753Y605396D01*
X796622Y605321D01*
X796616Y605315D01*
X796609Y605311D01*
X796502Y605204D01*
X796394Y605099D01*
X796390Y605092D01*
X796384Y605086D01*
X796361Y605051D01*
X796230Y605018D01*
X796156Y604988D01*
X796001Y604958D01*
X795888Y604929D01*
X795798Y604893D01*
X795706Y604867D01*
X795611Y604819D01*
X795593Y604811D01*
X795584Y604805D01*
X795562Y604794D01*
X795293Y604635D01*
X795240Y604629D01*
X795185Y604607D01*
X795127Y604594D01*
X795038Y604549D01*
X794945Y604512D01*
X794896Y604477D01*
X794843Y604450D01*
X794716Y604352D01*
X794653Y604297D01*
X794447Y604310D01*
X794394Y604307D01*
X794342Y604313D01*
X794236Y604297D01*
X794129Y604291D01*
X794079Y604274D01*
X794027Y604267D01*
X793875Y604214D01*
X793862Y604209D01*
X793824Y604219D01*
X793679Y604258D01*
X793670Y604258D01*
X793662Y604260D01*
X793511Y604260D01*
X793361Y604262D01*
X793353Y604260D01*
X793344Y604260D01*
X793186Y604229D01*
X792750Y604116D01*
X792562Y604227D01*
X792457Y604272D01*
X792356Y604325D01*
X792311Y604335D01*
X792269Y604353D01*
X792157Y604370D01*
X792046Y604396D01*
X791976Y604399D01*
X791955Y604402D01*
X791936Y604400D01*
X791885Y604402D01*
X791233Y604385D01*
X791221Y604394D01*
X791182Y604410D01*
X791146Y604433D01*
X791035Y604469D01*
X790988Y604488D01*
X790368Y605193D01*
X790337Y605221D01*
X790311Y605254D01*
X790218Y605326D01*
X790129Y605404D01*
X790092Y605423D01*
X790060Y605448D01*
X789916Y605521D01*
X789412Y605738D01*
X789296Y606029D01*
X789277Y606063D01*
X789265Y606100D01*
X789201Y606202D01*
X789142Y606307D01*
X789115Y606336D01*
X789094Y606369D01*
X789007Y606451D01*
X788924Y606538D01*
X788914Y606545D01*
X788892Y606594D01*
X788834Y606669D01*
X788784Y606749D01*
X788708Y606831D01*
X788697Y606845D01*
X788689Y606851D01*
X788675Y606867D01*
X788600Y606938D01*
X788594Y607164D01*
X788589Y607198D01*
X788590Y607232D01*
X788567Y607391D01*
X788383Y608272D01*
X788373Y608300D01*
X788369Y608328D01*
X788320Y608482D01*
X788166Y608866D01*
X788162Y608874D01*
X788156Y608891D01*
X788017Y609242D01*
X788025Y609270D01*
X788026Y609309D01*
X788035Y609347D01*
X788031Y609467D01*
X788034Y609588D01*
X788026Y609626D01*
X788025Y609665D01*
X787989Y609822D01*
X787854Y610284D01*
X787854Y610295D01*
X787859Y610317D01*
X787858Y610326D01*
X787865Y610383D01*
X787856Y610455D01*
X787857Y610527D01*
X787840Y610622D01*
X787839Y610634D01*
X787836Y610645D01*
X787828Y610685D01*
X787739Y611046D01*
X787743Y611072D01*
X787740Y611108D01*
X787744Y611145D01*
X787732Y611305D01*
X787703Y611505D01*
X787697Y611525D01*
X787689Y611584D01*
X787543Y612282D01*
X787553Y612332D01*
X787550Y612391D01*
X787556Y612450D01*
X787544Y612610D01*
X787539Y612641D01*
X787537Y612647D01*
X787537Y612649D01*
X787533Y612663D01*
X787515Y612727D01*
X787501Y612816D01*
X787477Y612872D01*
X787384Y613594D01*
X787380Y613609D01*
X787376Y613645D01*
X787239Y614456D01*
X787237Y614461D01*
X787236Y614470D01*
X787188Y614755D01*
X787193Y614788D01*
X787185Y614949D01*
X787114Y615585D01*
X787111Y615597D01*
X787109Y615626D01*
X786977Y616544D01*
X786986Y616617D01*
X786978Y616742D01*
X786978Y616757D01*
X786977Y616763D01*
X786976Y616778D01*
X786839Y617844D01*
X786820Y617918D01*
X786810Y617994D01*
X786808Y618000D01*
X786783Y618274D01*
X786780Y618288D01*
X786778Y618320D01*
X786767Y618402D01*
X786766Y618462D01*
X786638Y619860D01*
X786636Y619868D01*
X786635Y619885D01*
X786415Y621861D01*
X786415Y621881D01*
X786271Y623860D01*
X786269Y623868D01*
X786269Y623884D01*
X786104Y625687D01*
X786105Y625704D01*
X786121Y625790D01*
X786119Y625922D01*
X786120Y625935D01*
X786119Y625940D01*
X786119Y625951D01*
X785862Y629491D01*
X785861Y629497D01*
X785861Y629509D01*
X785673Y631670D01*
X785671Y631677D01*
X785671Y631694D01*
X785324Y634952D01*
X785322Y634960D01*
X785321Y634979D01*
X784904Y638237D01*
X784902Y638243D01*
X784901Y638257D01*
X784589Y640416D01*
X784588Y640421D01*
X784587Y640432D01*
X784247Y642596D01*
X784245Y642600D01*
X784244Y642610D01*
X783878Y644779D01*
X783876Y644784D01*
X783875Y644793D01*
X783486Y646954D01*
X783484Y646958D01*
X783483Y646968D01*
X783070Y649123D01*
X783069Y649127D01*
X783067Y649137D01*
X782516Y651842D01*
X782514Y651846D01*
X782513Y651856D01*
X782049Y654002D01*
X782048Y654006D01*
X782047Y654015D01*
X781560Y656160D01*
X781558Y656164D01*
X781557Y656173D01*
X780917Y658856D01*
X780915Y658861D01*
X780913Y658871D01*
X780378Y661003D01*
X780376Y661007D01*
X780374Y661015D01*
X779816Y663145D01*
X779815Y663149D01*
X779813Y663158D01*
X779233Y665280D01*
X779232Y665284D01*
X779230Y665293D01*
X778628Y667408D01*
X778626Y667412D01*
X778624Y667421D01*
X778000Y669526D01*
X777998Y669530D01*
X777995Y669540D01*
X777347Y671635D01*
X777345Y671639D01*
X777343Y671649D01*
X776674Y673723D01*
X776671Y673730D01*
X776667Y673745D01*
X775422Y677387D01*
X775418Y677394D01*
X775413Y677410D01*
X774673Y679444D01*
X774670Y679450D01*
X774666Y679462D01*
X773891Y681498D01*
X773888Y681503D01*
X773884Y681516D01*
X773285Y683019D01*
X773283Y683024D01*
X773279Y683035D01*
X772662Y684525D01*
X772659Y684531D01*
X772654Y684545D01*
X771926Y686221D01*
X771879Y686300D01*
X771841Y686384D01*
X771823Y686405D01*
X771225Y687826D01*
X771181Y687902D01*
X771146Y687983D01*
X771101Y688040D01*
X771095Y688050D01*
X770743Y688931D01*
X770701Y689006D01*
X770668Y689085D01*
X770624Y689144D01*
X770595Y689196D01*
X770358Y689829D01*
X770349Y689845D01*
X770334Y689888D01*
X770312Y689939D01*
X770292Y690004D01*
X770268Y690067D01*
X770231Y690138D01*
X770202Y690214D01*
X770157Y690278D01*
X770120Y690348D01*
X770101Y690369D01*
X769882Y691007D01*
X769873Y691026D01*
X769851Y691088D01*
X769744Y691341D01*
X769729Y691368D01*
X769719Y691397D01*
X769650Y691505D01*
X769622Y691554D01*
X769430Y692194D01*
X769422Y692213D01*
X769393Y692302D01*
X769269Y692612D01*
X769264Y692620D01*
X769262Y692629D01*
X769187Y692759D01*
X769153Y692820D01*
X769024Y693350D01*
X769022Y693357D01*
X768979Y693497D01*
X768866Y693798D01*
X768842Y693912D01*
X768841Y693914D01*
X768841Y693917D01*
X768770Y694061D01*
X768723Y694157D01*
X768656Y694534D01*
X768651Y694550D01*
X768649Y694568D01*
X768607Y694723D01*
X768582Y694796D01*
X768587Y694862D01*
X768587Y694863D01*
X768569Y695023D01*
X768559Y695081D01*
X768555Y695092D01*
X768525Y695223D01*
X768516Y695254D01*
X768480Y695336D01*
X768464Y695385D01*
X768446Y695415D01*
X768405Y695514D01*
X768394Y695528D01*
X768387Y695545D01*
X768361Y695578D01*
X768341Y695763D01*
X768333Y695798D01*
X768331Y695835D01*
X768295Y695992D01*
X768287Y696021D01*
X768296Y696088D01*
X768295Y696113D01*
X768297Y696124D01*
X768294Y696143D01*
X768290Y696249D01*
X768276Y696375D01*
X768275Y696379D01*
X768275Y696383D01*
X768247Y696541D01*
X768220Y696654D01*
X768173Y696776D01*
X768133Y696899D01*
X768117Y696924D01*
X768108Y696948D01*
X768105Y697015D01*
X768098Y697063D01*
X768098Y697110D01*
X768070Y697269D01*
X768061Y697306D01*
X768081Y697396D01*
X768082Y697438D01*
X768085Y697454D01*
X768083Y697476D01*
X768085Y697557D01*
X768080Y697704D01*
X768079Y697712D01*
X768079Y697720D01*
X768061Y697880D01*
X768035Y698029D01*
X767996Y698154D01*
X767963Y698280D01*
X767960Y698285D01*
X767960Y698300D01*
X767956Y698347D01*
X767959Y698394D01*
X767941Y698554D01*
X767924Y698649D01*
X767927Y698660D01*
X767962Y698785D01*
X767966Y698826D01*
X767970Y698842D01*
X767970Y698864D01*
X767977Y698945D01*
X767980Y699059D01*
X767979Y699062D01*
X767980Y699065D01*
X767973Y699226D01*
X767961Y699341D01*
X767928Y699481D01*
X767910Y699564D01*
X767913Y699597D01*
X767911Y699631D01*
X767916Y699665D01*
X767909Y699826D01*
X767887Y700034D01*
X767903Y700066D01*
X767915Y700121D01*
X767949Y700221D01*
X767952Y700243D01*
X767956Y700253D01*
X767956Y700272D01*
X767971Y700375D01*
X767971Y700377D01*
X767971Y700378D01*
X767972Y700380D01*
X767973Y700395D01*
X767972Y700408D01*
X767973Y700432D01*
X767973Y700434D01*
X767973Y700436D01*
X767976Y700538D01*
X767974Y700589D01*
X767973Y700593D01*
X767973Y700597D01*
X767958Y700685D01*
X767957Y700712D01*
X767955Y700718D01*
X767953Y700751D01*
X767941Y700789D01*
X767939Y700803D01*
X767948Y700889D01*
X767948Y700903D01*
X767951Y700918D01*
X767956Y701079D01*
X767940Y701508D01*
X767969Y701583D01*
X767970Y701587D01*
X767971Y701591D01*
X767989Y701744D01*
X768008Y701899D01*
X768007Y701903D01*
X768008Y701906D01*
X768005Y701924D01*
X768051Y702235D01*
X768051Y702242D01*
X768064Y702387D01*
X768075Y702829D01*
X768093Y702882D01*
X768132Y702966D01*
X768144Y703032D01*
X768166Y703096D01*
X768188Y703256D01*
X768216Y703623D01*
X768214Y703658D01*
X768219Y703693D01*
X768215Y703733D01*
X768220Y703761D01*
X768221Y703780D01*
X768236Y703888D01*
X768259Y704194D01*
X768284Y704242D01*
X768292Y704276D01*
X768307Y704308D01*
X768345Y704465D01*
X768365Y704576D01*
X768366Y704596D01*
X768376Y704655D01*
X768467Y705456D01*
X768489Y705495D01*
X768510Y705570D01*
X768541Y705643D01*
X768574Y705800D01*
X768787Y707251D01*
X768803Y707277D01*
X768827Y707354D01*
X768861Y707426D01*
X768898Y707578D01*
X768898Y707581D01*
X768899Y707583D01*
X769225Y709418D01*
X769225Y709428D01*
X769230Y709450D01*
X769464Y710995D01*
X769464Y711005D01*
X769468Y711026D01*
X769595Y712031D01*
X769595Y712040D01*
X769598Y712057D01*
X769764Y713623D01*
X769764Y713633D01*
X769767Y713655D01*
X769983Y716334D01*
X769982Y716344D01*
X769985Y716366D01*
X770134Y719059D01*
X770133Y719068D01*
X770135Y719087D01*
X770243Y722355D01*
X770242Y722364D01*
X770244Y722382D01*
X770289Y726223D01*
X770289Y726231D01*
X770289Y726247D01*
X770262Y730096D01*
X770261Y730103D01*
X770262Y730119D01*
X770152Y734547D01*
X770151Y734552D01*
X770151Y734563D01*
X770068Y736758D01*
X770067Y736762D01*
X770068Y736770D01*
X769936Y739534D01*
X769935Y739538D01*
X769935Y739547D01*
X769776Y742308D01*
X769776Y742312D01*
X769776Y742321D01*
X769590Y745072D01*
X769589Y745078D01*
X769589Y745089D01*
X769230Y749514D01*
X769229Y749519D01*
X769229Y749531D01*
X768969Y752274D01*
X768968Y752278D01*
X768968Y752286D01*
X768738Y754479D01*
X768737Y754482D01*
X768737Y754490D01*
X768487Y756682D01*
X768486Y756686D01*
X768485Y756695D01*
X768215Y758866D01*
X768214Y758873D01*
X768213Y758886D01*
X767677Y762713D01*
X767675Y762720D01*
X767674Y762733D01*
X767425Y764333D01*
X767424Y764338D01*
X767423Y764349D01*
X767061Y766499D01*
X767059Y766506D01*
X767057Y766520D01*
X766662Y768653D01*
X766660Y768660D01*
X766658Y768674D01*
X766342Y770242D01*
X766339Y770249D01*
X766336Y770266D01*
X765871Y772357D01*
X765868Y772366D01*
X765864Y772386D01*
X765484Y773922D01*
X765481Y773929D01*
X765478Y773945D01*
X764916Y776041D01*
X764914Y776046D01*
X764911Y776059D01*
X764164Y778696D01*
X764162Y778701D01*
X764159Y778714D01*
X763371Y781338D01*
X763369Y781344D01*
X763366Y781356D01*
X762538Y783973D01*
X762536Y783978D01*
X762533Y783989D01*
X761846Y786065D01*
X761844Y786070D01*
X761841Y786081D01*
X760943Y788679D01*
X760941Y788684D01*
X760938Y788696D01*
X760004Y791281D01*
X760002Y791286D01*
X759998Y791297D01*
X759031Y793866D01*
X759028Y793871D01*
X759025Y793883D01*
X758021Y796441D01*
X758018Y796446D01*
X758014Y796457D01*
X756976Y799004D01*
X756973Y799009D01*
X756969Y799019D01*
X755899Y801550D01*
X755896Y801555D01*
X755892Y801565D01*
X754785Y804089D01*
X754782Y804093D01*
X754779Y804102D01*
X753873Y806103D01*
X753870Y806107D01*
X753867Y806115D01*
X752938Y808111D01*
X752936Y808115D01*
X752933Y808123D01*
X751984Y810109D01*
X751982Y810113D01*
X751978Y810121D01*
X751013Y812089D01*
X751010Y812094D01*
X751005Y812106D01*
X749252Y815556D01*
X749249Y815561D01*
X749244Y815572D01*
X748223Y817512D01*
X748221Y817516D01*
X748217Y817523D01*
X747173Y819460D01*
X747171Y819463D01*
X747167Y819471D01*
X746102Y821398D01*
X746099Y821402D01*
X746095Y821410D01*
X745011Y823325D01*
X745009Y823329D01*
X745004Y823337D01*
X743900Y825240D01*
X743898Y825243D01*
X743894Y825251D01*
X742775Y827135D01*
X742771Y827139D01*
X742765Y827150D01*
X740742Y830444D01*
X740738Y830448D01*
X740732Y830460D01*
X739558Y832309D01*
X739555Y832312D01*
X739551Y832320D01*
X738359Y834153D01*
X738355Y834158D01*
X738348Y834169D01*
X736191Y837376D01*
X736187Y837381D01*
X736180Y837393D01*
X734933Y839185D01*
X734930Y839188D01*
X734925Y839197D01*
X733651Y840983D01*
X733647Y840987D01*
X733642Y840995D01*
X732349Y842763D01*
X732346Y842767D01*
X732340Y842776D01*
X731031Y844520D01*
X731026Y844525D01*
X731018Y844538D01*
X728652Y847579D01*
X728647Y847584D01*
X728638Y847597D01*
X727271Y849292D01*
X727267Y849296D01*
X727261Y849304D01*
X726220Y850565D01*
X726217Y850567D01*
X726211Y850575D01*
X725160Y851822D01*
X725156Y851825D01*
X725149Y851834D01*
X723720Y853486D01*
X723716Y853490D01*
X723708Y853500D01*
X722255Y855131D01*
X722251Y855134D01*
X722244Y855143D01*
X721150Y856340D01*
X721145Y856343D01*
X721137Y856353D01*
X719646Y857938D01*
X719641Y857942D01*
X719632Y857952D01*
X718509Y859109D01*
X718504Y859113D01*
X718496Y859122D01*
X716954Y860665D01*
X716950Y860669D01*
X716941Y860678D01*
X715377Y862199D01*
X715372Y862202D01*
X715365Y862211D01*
X713775Y863716D01*
X713771Y863719D01*
X713764Y863727D01*
X712151Y865216D01*
X712148Y865219D01*
X712141Y865226D01*
X710510Y866698D01*
X710506Y866701D01*
X710500Y866707D01*
X708853Y868163D01*
X708849Y868166D01*
X708842Y868173D01*
X706754Y869978D01*
X706751Y869980D01*
X706744Y869987D01*
X705060Y871412D01*
X705057Y871414D01*
X705052Y871419D01*
X703355Y872828D01*
X703352Y872830D01*
X703346Y872836D01*
X701202Y874582D01*
X701199Y874584D01*
X701192Y874590D01*
X699030Y876314D01*
X699026Y876316D01*
X699019Y876322D01*
X696838Y878023D01*
X696835Y878025D01*
X696829Y878031D01*
X695078Y879371D01*
X695074Y879373D01*
X695068Y879378D01*
X692856Y881038D01*
X692853Y881040D01*
X692846Y881046D01*
X690615Y882685D01*
X690611Y882687D01*
X690605Y882692D01*
X688825Y883973D01*
X688820Y883975D01*
X688811Y883983D01*
X685174Y886527D01*
X685169Y886530D01*
X685159Y886537D01*
X683350Y887765D01*
X683346Y887767D01*
X683338Y887773D01*
X681038Y889297D01*
X681033Y889299D01*
X681025Y889305D01*
X679182Y890494D01*
X679178Y890496D01*
X679170Y890502D01*
X677314Y891669D01*
X677309Y891672D01*
X677300Y891678D01*
X675431Y892821D01*
X675427Y892823D01*
X675418Y892829D01*
X674030Y893655D01*
X674024Y893658D01*
X674011Y893666D01*
X671170Y895291D01*
X671161Y895295D01*
X671143Y895306D01*
X668775Y896584D01*
X668765Y896588D01*
X668746Y896599D01*
X665226Y898387D01*
X665174Y898406D01*
X665134Y898428D01*
X665099Y898436D01*
X665049Y898460D01*
X664986Y898473D01*
X664926Y898494D01*
X664847Y898502D01*
X664826Y898507D01*
X664804Y898508D01*
X664737Y898522D01*
X664673Y898518D01*
X664610Y898524D01*
X664515Y898509D01*
X664419Y898503D01*
X664359Y898484D01*
X664296Y898474D01*
X664208Y898436D01*
X664116Y898406D01*
X664062Y898373D01*
X664004Y898347D01*
X663928Y898288D01*
X663847Y898237D01*
X663803Y898191D01*
X663753Y898152D01*
X663694Y898076D01*
X663628Y898007D01*
X663597Y897951D01*
X663582Y897931D01*
X663580Y897929D01*
X663579Y897928D01*
X663558Y897901D01*
X663520Y897812D01*
X663473Y897729D01*
X663458Y897671D01*
X663444Y897641D01*
X663443Y897633D01*
X663432Y897609D01*
X663417Y897514D01*
X663393Y897421D01*
X663387Y897345D01*
X663384Y897329D01*
X663385Y897313D01*
X663382Y897294D01*
X663383Y897284D01*
X663382Y897261D01*
X663283Y874197D01*
X663295Y874103D01*
X663297Y874008D01*
X663297Y874006D01*
X663275Y872108D01*
X663275Y872105D01*
X663275Y872098D01*
X663266Y870184D01*
X663262Y870166D01*
X663253Y870055D01*
X663250Y870037D01*
X663251Y870027D01*
X663250Y870005D01*
X663225Y867959D01*
X663235Y867868D01*
X663236Y867776D01*
X663245Y867743D01*
X663200Y865876D01*
X663201Y865871D01*
X663200Y865861D01*
X663178Y863984D01*
X663164Y863937D01*
X663154Y863819D01*
X663151Y863803D01*
X663152Y863794D01*
X663150Y863777D01*
X663128Y862838D01*
X663137Y862748D01*
X663136Y862658D01*
X663149Y862608D01*
X663079Y860758D01*
X663079Y860752D01*
X663078Y860740D01*
X663034Y858884D01*
X663015Y858822D01*
X663003Y858700D01*
X663000Y858684D01*
X663001Y858677D01*
X662999Y858662D01*
X662963Y857706D01*
X662970Y857618D01*
X662968Y857530D01*
X662984Y857460D01*
X662985Y857447D01*
X662884Y855634D01*
X662885Y855626D01*
X662883Y855611D01*
X662814Y853787D01*
X662813Y853784D01*
X662786Y853700D01*
X662771Y853571D01*
X662768Y853558D01*
X662769Y853552D01*
X662767Y853540D01*
X662745Y853144D01*
X662751Y853054D01*
X662748Y852965D01*
X662760Y852906D01*
X662629Y851068D01*
X662630Y851062D01*
X662628Y851048D01*
X662615Y850822D01*
X662621Y850740D01*
X662617Y850657D01*
X662621Y850635D01*
X662573Y850062D01*
X662574Y850052D01*
X662571Y850028D01*
X662525Y849203D01*
X662508Y849154D01*
X662486Y849006D01*
X662485Y849000D01*
X662485Y848998D01*
X662484Y848994D01*
X662465Y848767D01*
X662466Y848762D01*
X662464Y848752D01*
X662448Y848530D01*
X662453Y848446D01*
X662447Y848363D01*
X662454Y848329D01*
X662381Y847575D01*
X662381Y847564D01*
X662378Y847542D01*
X662331Y846880D01*
X662321Y846853D01*
X662298Y846711D01*
X662296Y846703D01*
X662296Y846700D01*
X662295Y846694D01*
X662274Y846474D01*
X662274Y846468D01*
X662272Y846457D01*
X662254Y846234D01*
X662257Y846151D01*
X662251Y846068D01*
X662256Y846040D01*
X662181Y845359D01*
X662181Y845349D01*
X662178Y845326D01*
X662106Y844461D01*
X662107Y844429D01*
X661966Y843284D01*
X661966Y843274D01*
X661962Y843250D01*
X661855Y842150D01*
X661856Y842121D01*
X661725Y841191D01*
X661725Y841179D01*
X661720Y841152D01*
X661657Y840583D01*
X661645Y840552D01*
X661613Y840396D01*
X661612Y840395D01*
X661612Y840394D01*
X661579Y840158D01*
X661579Y840151D01*
X661576Y840136D01*
X661545Y839886D01*
X661545Y839810D01*
X661535Y839734D01*
X661544Y839666D01*
X661433Y838974D01*
X661433Y838961D01*
X661427Y838929D01*
X661350Y838313D01*
X661330Y838267D01*
X661294Y838109D01*
X661255Y837861D01*
X661254Y837853D01*
X661251Y837838D01*
X661215Y837580D01*
X661213Y837504D01*
X661202Y837430D01*
X661210Y837355D01*
X661089Y836684D01*
X661088Y836670D01*
X661081Y836636D01*
X660995Y836028D01*
X660971Y835976D01*
X660933Y835820D01*
X660886Y835563D01*
X660886Y835555D01*
X660882Y835539D01*
X660840Y835276D01*
X660838Y835203D01*
X660825Y835130D01*
X660832Y835049D01*
X660701Y834400D01*
X660700Y834384D01*
X660692Y834349D01*
X660595Y833744D01*
X660567Y833687D01*
X660525Y833532D01*
X660473Y833271D01*
X660472Y833263D01*
X660468Y833245D01*
X660419Y832978D01*
X660416Y832906D01*
X660402Y832834D01*
X660407Y832749D01*
X660264Y832114D01*
X660263Y832099D01*
X660254Y832062D01*
X660146Y831462D01*
X660115Y831403D01*
X660070Y831249D01*
X660010Y830983D01*
X660010Y830975D01*
X660005Y830957D01*
X659952Y830696D01*
X659947Y830622D01*
X659931Y830551D01*
X659934Y830483D01*
X659796Y829917D01*
X659794Y829902D01*
X659784Y829867D01*
X659637Y829136D01*
X659629Y829121D01*
X659611Y829045D01*
X659584Y828972D01*
X659575Y828891D01*
X659557Y828812D01*
X659557Y828791D01*
X659308Y827854D01*
X659306Y827839D01*
X659297Y827806D01*
X659084Y826861D01*
X659079Y826851D01*
X659060Y826776D01*
X659031Y826704D01*
X659022Y826628D01*
X658809Y825885D01*
X658807Y825871D01*
X658796Y825838D01*
X658609Y825071D01*
X658582Y825007D01*
X658569Y824924D01*
X658547Y824844D01*
X658547Y824843D01*
X658263Y823917D01*
X658261Y823903D01*
X658250Y823871D01*
X657996Y822915D01*
X657991Y822906D01*
X657969Y822832D01*
X657938Y822762D01*
X657924Y822680D01*
X657905Y822615D01*
X657666Y821889D01*
X657663Y821875D01*
X657651Y821842D01*
X657488Y821273D01*
X657458Y821225D01*
X657398Y821076D01*
X657316Y820826D01*
X657314Y820818D01*
X657308Y820801D01*
X657230Y820547D01*
X657217Y820475D01*
X657195Y820404D01*
X657191Y820332D01*
X656986Y819749D01*
X656983Y819734D01*
X656970Y819700D01*
X656777Y819069D01*
X656738Y819011D01*
X656675Y818863D01*
X656587Y818613D01*
X656585Y818605D01*
X656579Y818589D01*
X656498Y818343D01*
X656483Y818269D01*
X656459Y818198D01*
X656455Y818134D01*
X656241Y817560D01*
X656238Y817546D01*
X656225Y817514D01*
X656010Y816862D01*
X655972Y816807D01*
X655906Y816660D01*
X655816Y816418D01*
X655814Y816410D01*
X655808Y816396D01*
X655725Y816159D01*
X655709Y816084D01*
X655683Y816012D01*
X655678Y815958D01*
X655452Y815380D01*
X655449Y815367D01*
X655436Y815338D01*
X655202Y814671D01*
X655166Y814621D01*
X655098Y814475D01*
X655006Y814242D01*
X655005Y814235D01*
X654999Y814222D01*
X654915Y813995D01*
X654896Y813918D01*
X654869Y813844D01*
X654864Y813800D01*
X654626Y813217D01*
X654622Y813205D01*
X654611Y813179D01*
X654357Y812498D01*
X654325Y812454D01*
X654254Y812309D01*
X654163Y812085D01*
X654161Y812079D01*
X654155Y812067D01*
X654069Y811846D01*
X654050Y811769D01*
X654020Y811695D01*
X654015Y811648D01*
X653744Y811014D01*
X653741Y811003D01*
X653729Y810978D01*
X653481Y810343D01*
X653453Y810308D01*
X653382Y810167D01*
X653381Y810165D01*
X653381Y810164D01*
X653287Y809945D01*
X653286Y809939D01*
X653280Y809927D01*
X652975Y809182D01*
X652954Y809104D01*
X652924Y809030D01*
X652924Y809027D01*
X652779Y808702D01*
X652776Y808691D01*
X652765Y808668D01*
X652572Y808197D01*
X652560Y808181D01*
X652488Y808045D01*
X652487Y808042D01*
X652486Y808041D01*
X652485Y808039D01*
X652160Y807304D01*
X652158Y807299D01*
X652153Y807288D01*
X652067Y807088D01*
X652044Y807007D01*
X652012Y806930D01*
X652010Y806920D01*
X651780Y806415D01*
X651777Y806406D01*
X651768Y806388D01*
X651421Y805574D01*
X651393Y805540D01*
X651326Y805415D01*
X651321Y805408D01*
X651320Y805404D01*
X651317Y805398D01*
X651226Y805199D01*
X651225Y805195D01*
X651221Y805187D01*
X651135Y804993D01*
X651110Y804911D01*
X651076Y804833D01*
X651072Y804804D01*
X650716Y804048D01*
X650713Y804039D01*
X650704Y804022D01*
X650454Y803458D01*
X650444Y803445D01*
X650377Y803324D01*
X650372Y803316D01*
X650370Y803312D01*
X650366Y803304D01*
X650276Y803112D01*
X650274Y803107D01*
X650269Y803098D01*
X649467Y801337D01*
X649461Y801317D01*
X649425Y801242D01*
X649424Y801240D01*
X648576Y799499D01*
X648574Y799494D01*
X648569Y799484D01*
X647775Y797797D01*
X647738Y797753D01*
X647678Y797648D01*
X647669Y797634D01*
X647666Y797627D01*
X647658Y797613D01*
X647490Y797268D01*
X647462Y797183D01*
X647424Y797102D01*
X647412Y797042D01*
X646581Y795399D01*
X646579Y795393D01*
X646572Y795381D01*
X645709Y793607D01*
X645684Y793535D01*
X645674Y793513D01*
X644771Y791821D01*
X644768Y791813D01*
X644759Y791797D01*
X644110Y790514D01*
X644086Y790449D01*
X644054Y790387D01*
X644050Y790369D01*
X643938Y790172D01*
X643932Y790157D01*
X643910Y790120D01*
X643885Y790069D01*
X643868Y790045D01*
X643867Y790042D01*
X643865Y790040D01*
X643850Y790016D01*
X643141Y788763D01*
X643137Y788754D01*
X643125Y788735D01*
X642710Y787956D01*
X642687Y787894D01*
X642654Y787838D01*
X642635Y787766D01*
X642423Y787415D01*
X642416Y787398D01*
X642390Y787356D01*
X642269Y787128D01*
X642254Y787114D01*
X642162Y786981D01*
X641705Y786224D01*
X641700Y786214D01*
X641687Y786193D01*
X641251Y785422D01*
X641226Y785362D01*
X641192Y785306D01*
X641180Y785262D01*
X641028Y785025D01*
X641020Y785008D01*
X640993Y784967D01*
X640804Y784632D01*
X640768Y784599D01*
X640673Y784469D01*
X640357Y783975D01*
X640319Y783895D01*
X640273Y783820D01*
X640251Y783752D01*
X640249Y783746D01*
X639834Y783122D01*
X639827Y783108D01*
X639805Y783076D01*
X639706Y782911D01*
X639681Y782854D01*
X639647Y782801D01*
X639640Y782780D01*
X639551Y782650D01*
X639542Y782633D01*
X639512Y782589D01*
X639268Y782186D01*
X639250Y782164D01*
X639202Y782122D01*
X639103Y781995D01*
X639085Y781969D01*
X639045Y781890D01*
X638996Y781817D01*
X638973Y781750D01*
X638967Y781738D01*
X638606Y781231D01*
X638598Y781216D01*
X638571Y781179D01*
X638242Y780664D01*
X638214Y780638D01*
X638189Y780617D01*
X638187Y780614D01*
X638178Y780606D01*
X638101Y780505D01*
X638092Y780494D01*
X638089Y780488D01*
X638080Y780478D01*
X638076Y780471D01*
X638046Y780410D01*
X638008Y780355D01*
X637990Y780308D01*
X637783Y780027D01*
X637775Y780011D01*
X637747Y779975D01*
X637547Y779673D01*
X637511Y779643D01*
X637508Y779639D01*
X637497Y779629D01*
X637423Y779534D01*
X637412Y779522D01*
X637408Y779515D01*
X637398Y779502D01*
X637393Y779495D01*
X637364Y779437D01*
X637326Y779385D01*
X637300Y779318D01*
X637052Y778993D01*
X637043Y778978D01*
X637013Y778939D01*
X636863Y778721D01*
X636846Y778707D01*
X636741Y778586D01*
X636563Y778353D01*
X636556Y778341D01*
X636536Y778317D01*
X636343Y778046D01*
X636315Y777992D01*
X636278Y777943D01*
X636241Y777856D01*
X635988Y777542D01*
X635978Y777525D01*
X635942Y777481D01*
X635822Y777311D01*
X635807Y777300D01*
X635698Y777181D01*
X635569Y777021D01*
X635560Y777007D01*
X635536Y776978D01*
X635089Y776372D01*
X635022Y776319D01*
X634938Y776222D01*
X634928Y776213D01*
X634924Y776207D01*
X634916Y776197D01*
X634560Y775731D01*
X634527Y775674D01*
X634486Y775623D01*
X634456Y775558D01*
X634201Y775259D01*
X634191Y775243D01*
X634158Y775205D01*
X633995Y774991D01*
X633975Y774977D01*
X633863Y774862D01*
X633287Y774187D01*
X633281Y774178D01*
X633264Y774160D01*
X632709Y773470D01*
X632674Y773414D01*
X632632Y773364D01*
X632613Y773324D01*
X632429Y773119D01*
X632418Y773104D01*
X632385Y773067D01*
X632140Y772764D01*
X632098Y772736D01*
X631983Y772623D01*
X631393Y771965D01*
X631387Y771957D01*
X631371Y771941D01*
X630433Y770840D01*
X630408Y770802D01*
X630347Y770738D01*
X630337Y770724D01*
X630307Y770692D01*
X630179Y770543D01*
X630177Y770542D01*
X630060Y770432D01*
X629072Y769380D01*
X629066Y769372D01*
X629052Y769359D01*
X627773Y767933D01*
X627705Y767873D01*
X626318Y766448D01*
X626314Y766442D01*
X626303Y766431D01*
X625055Y765103D01*
X625050Y765099D01*
X624975Y765053D01*
X624879Y764966D01*
X624868Y764958D01*
X624865Y764953D01*
X624856Y764945D01*
X624578Y764660D01*
X624524Y764589D01*
X624463Y764524D01*
X624432Y764469D01*
X623129Y763171D01*
X623125Y763166D01*
X623115Y763157D01*
X621748Y761753D01*
X621740Y761743D01*
X621717Y761721D01*
X621716Y761719D01*
X621714Y761718D01*
X621711Y761714D01*
X621702Y761707D01*
X620291Y760347D01*
X620287Y760341D01*
X620276Y760332D01*
X619292Y759352D01*
X619250Y759298D01*
X619072Y759132D01*
X619064Y759123D01*
X619042Y759104D01*
X618911Y758973D01*
X618831Y758907D01*
X618829Y758906D01*
X618454Y758556D01*
X617813Y757959D01*
X617809Y757954D01*
X617798Y757945D01*
X616793Y756976D01*
X616745Y756916D01*
X616718Y756891D01*
X616528Y756720D01*
X616520Y756710D01*
X616496Y756690D01*
X616398Y756595D01*
X616331Y756542D01*
X615293Y755608D01*
X615288Y755603D01*
X615276Y755593D01*
X614664Y755022D01*
X614616Y754965D01*
X614562Y754915D01*
X614533Y754870D01*
X614142Y754534D01*
X614132Y754523D01*
X614104Y754500D01*
X613914Y754323D01*
X613910Y754321D01*
X613782Y754224D01*
X613145Y753676D01*
X613139Y753669D01*
X613125Y753658D01*
X612475Y753073D01*
X612431Y753022D01*
X612380Y752978D01*
X612328Y752903D01*
X611921Y752573D01*
X611909Y752560D01*
X611872Y752531D01*
X611751Y752421D01*
X611623Y752331D01*
X610941Y751777D01*
X610933Y751769D01*
X610913Y751754D01*
X610647Y751525D01*
X610610Y751483D01*
X610566Y751449D01*
X610504Y751366D01*
X610434Y751289D01*
X610426Y751273D01*
X609919Y750894D01*
X609903Y750879D01*
X609851Y750839D01*
X609588Y750613D01*
X609563Y750598D01*
X609512Y750576D01*
X609377Y750488D01*
X609213Y750366D01*
X609168Y750322D01*
X609116Y750286D01*
X609054Y750212D01*
X608985Y750145D01*
X608952Y750091D01*
X608911Y750043D01*
X608898Y750018D01*
X608269Y749601D01*
X608254Y749588D01*
X608170Y749528D01*
X608009Y749397D01*
X607906Y749290D01*
X607801Y749183D01*
X607796Y749175D01*
X607789Y749167D01*
X607768Y749129D01*
X607300Y748867D01*
X607290Y748860D01*
X607278Y748855D01*
X607162Y748766D01*
X607044Y748679D01*
X607036Y748669D01*
X607026Y748662D01*
X606935Y748546D01*
X606843Y748432D01*
X606838Y748421D01*
X606830Y748412D01*
X606819Y748391D01*
X606463Y748251D01*
X606383Y748208D01*
X606313Y748179D01*
X606303Y748178D01*
X606179Y748138D01*
X606166Y748135D01*
X606161Y748133D01*
X606150Y748129D01*
X606030Y748082D01*
X605982Y748056D01*
X605931Y748038D01*
X605791Y747958D01*
X605334Y747655D01*
X605303Y747629D01*
X605268Y747608D01*
X605146Y747503D01*
X604971Y747331D01*
X604895Y747332D01*
X604807Y747321D01*
X604717Y747321D01*
X604649Y747303D01*
X604580Y747295D01*
X604496Y747262D01*
X604410Y747240D01*
X604406Y747238D01*
X604345Y747247D01*
X604342Y747247D01*
X604340Y747247D01*
X604185Y747231D01*
X604028Y747215D01*
X604026Y747214D01*
X604024Y747214D01*
X603874Y747158D01*
X603730Y747105D01*
X603728Y747104D01*
X603726Y747103D01*
X603722Y747101D01*
X603681Y747103D01*
X603574Y747081D01*
X603466Y747068D01*
X603391Y747044D01*
X603370Y747039D01*
X603354Y747032D01*
X603323Y747022D01*
X603289Y747031D01*
X603158Y747070D01*
X603136Y747071D01*
X603114Y747076D01*
X603046Y747076D01*
X602497Y747236D01*
X602450Y747244D01*
X602405Y747259D01*
X602293Y747268D01*
X602183Y747286D01*
X602136Y747282D01*
X602088Y747285D01*
X601978Y747267D01*
X601961Y747265D01*
X601927Y747278D01*
X601786Y747312D01*
X601646Y747350D01*
X601627Y747351D01*
X601618Y747353D01*
X601600Y747353D01*
X601486Y747361D01*
X601237Y747363D01*
X601191Y747400D01*
X601122Y747455D01*
X601088Y747484D01*
X601084Y747486D01*
X601073Y747495D01*
X601064Y747500D01*
X601061Y747503D01*
X601050Y747507D01*
X600931Y747571D01*
X600923Y747574D01*
X600860Y747594D01*
X600801Y747623D01*
X600781Y747627D01*
X600770Y747631D01*
X600705Y747642D01*
X600620Y747669D01*
X600554Y747672D01*
X600490Y747685D01*
X600459Y747684D01*
X600456Y747684D01*
X600453Y747684D01*
X600360Y747726D01*
X600289Y747744D01*
X600269Y747751D01*
X600251Y747753D01*
X600204Y747765D01*
X600034Y747795D01*
X600022Y747809D01*
X599989Y747830D01*
X599961Y747858D01*
X599827Y747947D01*
X599726Y748005D01*
X599660Y748032D01*
X599599Y748069D01*
X599448Y748124D01*
X599150Y748210D01*
X599126Y748214D01*
X599087Y748246D01*
X599080Y748253D01*
X599062Y748275D01*
X599057Y748279D01*
X599036Y748301D01*
X598907Y748397D01*
X598892Y748406D01*
X598845Y748429D01*
X598803Y748459D01*
X598656Y748526D01*
X598294Y748664D01*
X598257Y748707D01*
X598180Y748769D01*
X598165Y748784D01*
X598155Y748790D01*
X598132Y748808D01*
X598065Y748855D01*
X598032Y748873D01*
X598002Y748897D01*
X597860Y748973D01*
X597571Y749105D01*
X597551Y749131D01*
X597505Y749170D01*
X597491Y749185D01*
X597475Y749197D01*
X597429Y749236D01*
X597353Y749294D01*
X597329Y749307D01*
X597310Y749325D01*
X597172Y749408D01*
X596924Y749537D01*
X596914Y749546D01*
X596859Y749614D01*
X596801Y749657D01*
X596750Y749708D01*
X596616Y749797D01*
X596504Y749861D01*
X596431Y749892D01*
X596305Y749975D01*
X596288Y749999D01*
X596279Y750007D01*
X596275Y750012D01*
X596265Y750020D01*
X596171Y750109D01*
X595936Y750304D01*
X595929Y750308D01*
X595814Y750394D01*
X595203Y750788D01*
X595111Y750882D01*
X594865Y751104D01*
X594858Y751109D01*
X594747Y751199D01*
X594673Y751251D01*
X594667Y751260D01*
X594651Y751276D01*
X594638Y751296D01*
X594525Y751411D01*
X594397Y751527D01*
X594379Y751539D01*
X594313Y751596D01*
X593694Y752065D01*
X593685Y752074D01*
X593670Y752098D01*
X593561Y752216D01*
X593117Y752639D01*
X593100Y752652D01*
X593052Y752697D01*
X592816Y752893D01*
X592782Y752915D01*
X592752Y752943D01*
X592717Y752962D01*
X592681Y752998D01*
X592664Y753011D01*
X592594Y753077D01*
X592337Y753291D01*
X592318Y753328D01*
X592291Y753359D01*
X592270Y753394D01*
X592163Y753515D01*
X591902Y753776D01*
X591888Y753787D01*
X591855Y753820D01*
X591551Y754095D01*
X591506Y754126D01*
X591466Y754165D01*
X591449Y754175D01*
X591392Y754234D01*
X591375Y754248D01*
X591327Y754297D01*
X591001Y754591D01*
X590994Y754607D01*
X590961Y754647D01*
X590936Y754693D01*
X590904Y754731D01*
X590896Y754743D01*
X590866Y754776D01*
X590832Y754816D01*
X590829Y754819D01*
X590816Y754830D01*
X590798Y754849D01*
X590794Y754854D01*
X590792Y754855D01*
X590787Y754861D01*
X590724Y754921D01*
X590675Y754957D01*
X590632Y755000D01*
X590580Y755032D01*
X590389Y755237D01*
X590374Y755250D01*
X590335Y755292D01*
X590094Y755522D01*
X590070Y755565D01*
X589969Y755690D01*
X589778Y755895D01*
X589767Y755904D01*
X589744Y755930D01*
X589492Y756181D01*
X589442Y756221D01*
X589398Y756267D01*
X589369Y756285D01*
X589227Y756443D01*
X589213Y756456D01*
X589178Y756495D01*
X588870Y756803D01*
X588868Y756805D01*
X588839Y756862D01*
X588739Y756988D01*
X588711Y757020D01*
X588701Y757029D01*
X588680Y757053D01*
X588287Y757462D01*
X588235Y757504D01*
X588234Y757505D01*
X588150Y757602D01*
X588136Y757614D01*
X588105Y757650D01*
X588013Y757746D01*
X587931Y757854D01*
X587578Y758262D01*
X587568Y758271D01*
X587548Y758294D01*
X587116Y758760D01*
X587085Y758786D01*
X587040Y758840D01*
X587027Y758851D01*
X586998Y758887D01*
X586858Y759038D01*
X586855Y759043D01*
X586760Y759173D01*
X586413Y759584D01*
X586405Y759592D01*
X586388Y759614D01*
X585979Y760070D01*
X585944Y760100D01*
X585880Y760178D01*
X585868Y760190D01*
X585843Y760221D01*
X585704Y760378D01*
X585703Y760379D01*
X585609Y760510D01*
X585274Y760919D01*
X585266Y760927D01*
X585251Y760946D01*
X584851Y761408D01*
X584799Y761455D01*
X584753Y761508D01*
X584740Y761518D01*
X584603Y761692D01*
X584591Y761704D01*
X584565Y761737D01*
X584525Y761784D01*
X584487Y761839D01*
X584055Y762387D01*
X584046Y762395D01*
X584029Y762418D01*
X583481Y763069D01*
X583456Y763123D01*
X583385Y763222D01*
X583377Y763236D01*
X583372Y763241D01*
X583362Y763254D01*
X582686Y764080D01*
X582650Y764115D01*
X582551Y764244D01*
X582542Y764253D01*
X582524Y764278D01*
X582373Y764462D01*
X582295Y764579D01*
X581655Y765418D01*
X581590Y765484D01*
X581533Y765556D01*
X581508Y765575D01*
X581005Y766250D01*
X580997Y766258D01*
X580983Y766279D01*
X580198Y767273D01*
X580194Y767280D01*
X579559Y768165D01*
X579551Y768173D01*
X579537Y768194D01*
X579240Y768583D01*
X579234Y768599D01*
X579153Y768728D01*
X579151Y768732D01*
X579150Y768733D01*
X579148Y768736D01*
X579013Y768924D01*
X579009Y768929D01*
X579000Y768942D01*
X577813Y770536D01*
X577799Y770559D01*
X577797Y770562D01*
X577796Y770563D01*
X577795Y770565D01*
X576675Y772179D01*
X576671Y772183D01*
X576663Y772195D01*
X576531Y772379D01*
X576514Y772397D01*
X576512Y772400D01*
X576505Y772407D01*
X576475Y772440D01*
X576427Y772506D01*
X576416Y772515D01*
X576133Y772932D01*
X576126Y772940D01*
X576113Y772961D01*
X575588Y773692D01*
X575568Y773748D01*
X575492Y773876D01*
X575490Y773881D01*
X575488Y773883D01*
X575486Y773887D01*
X575358Y774075D01*
X575355Y774078D01*
X575350Y774086D01*
X575223Y774270D01*
X575167Y774332D01*
X575120Y774400D01*
X575083Y774431D01*
X574607Y775157D01*
X574600Y775165D01*
X574588Y775185D01*
X574275Y775635D01*
X574270Y775652D01*
X574197Y775779D01*
X574194Y775785D01*
X574193Y775787D01*
X574190Y775792D01*
X574067Y775979D01*
X574063Y775983D01*
X574057Y775995D01*
X572962Y777609D01*
X572958Y777614D01*
X572951Y777626D01*
X572931Y777655D01*
X572924Y777668D01*
X572921Y777673D01*
X572920Y777675D01*
X572918Y777678D01*
X571872Y779323D01*
X571868Y779327D01*
X571862Y779338D01*
X571741Y779522D01*
X571687Y779586D01*
X571641Y779655D01*
X571631Y779664D01*
X571339Y780135D01*
X571333Y780142D01*
X571322Y780162D01*
X570843Y780890D01*
X570829Y780936D01*
X570761Y781063D01*
X570758Y781070D01*
X570756Y781073D01*
X570753Y781078D01*
X570636Y781266D01*
X570633Y781270D01*
X570629Y781278D01*
X570510Y781464D01*
X570457Y781528D01*
X570412Y781598D01*
X570380Y781627D01*
X569934Y782369D01*
X569928Y782377D01*
X569918Y782396D01*
X569615Y782871D01*
X569611Y782887D01*
X569545Y783014D01*
X569542Y783022D01*
X569540Y783024D01*
X569537Y783030D01*
X569422Y783220D01*
X569419Y783224D01*
X569413Y783235D01*
X568386Y784888D01*
X568377Y784900D01*
X568354Y784938D01*
X568351Y784943D01*
X568349Y784948D01*
X568346Y784952D01*
X568342Y784960D01*
X567362Y786643D01*
X567359Y786648D01*
X567353Y786659D01*
X567238Y786850D01*
X567187Y786915D01*
X567144Y786986D01*
X567134Y786996D01*
X566865Y787469D01*
X566859Y787477D01*
X566849Y787497D01*
X566396Y788249D01*
X566383Y788298D01*
X566320Y788428D01*
X566317Y788435D01*
X566315Y788437D01*
X566313Y788442D01*
X566203Y788636D01*
X566200Y788640D01*
X566196Y788648D01*
X566083Y788842D01*
X566033Y788907D01*
X565991Y788979D01*
X565956Y789014D01*
X565528Y789796D01*
X565522Y789804D01*
X565511Y789825D01*
X565247Y790280D01*
X565243Y790295D01*
X565180Y790429D01*
X565178Y790435D01*
X565177Y790436D01*
X565175Y790440D01*
X565067Y790637D01*
X565064Y790642D01*
X565058Y790653D01*
X564086Y792366D01*
X564043Y792423D01*
X563142Y794152D01*
X563137Y794159D01*
X563130Y794175D01*
X562199Y795875D01*
X562170Y795944D01*
X561285Y797713D01*
X561281Y797719D01*
X561275Y797732D01*
X561168Y797937D01*
X561122Y798004D01*
X561084Y798076D01*
X561073Y798089D01*
X560857Y798533D01*
X560851Y798542D01*
X560841Y798565D01*
X560376Y799458D01*
X560349Y799526D01*
X559862Y800560D01*
X559857Y800568D01*
X559849Y800587D01*
X559348Y801588D01*
X559338Y801614D01*
X558987Y802385D01*
X558982Y802393D01*
X558974Y802413D01*
X558618Y803146D01*
X558595Y803182D01*
X558134Y804228D01*
X558129Y804236D01*
X558121Y804257D01*
X557710Y805130D01*
X557701Y805181D01*
X557658Y805293D01*
X557653Y805309D01*
X557650Y805315D01*
X557644Y805331D01*
X557211Y806281D01*
X557169Y806348D01*
X557137Y806419D01*
X557119Y806441D01*
X556407Y808150D01*
X556403Y808157D01*
X556397Y808174D01*
X555823Y809480D01*
X555786Y809541D01*
X555758Y809607D01*
X555748Y809620D01*
X555659Y809849D01*
X555651Y809863D01*
X555637Y809901D01*
X555614Y809955D01*
X555595Y810012D01*
X555077Y811345D01*
X555072Y811354D01*
X555065Y811373D01*
X554510Y812707D01*
X554498Y812727D01*
X554492Y812748D01*
X554469Y812783D01*
X554450Y812831D01*
X554449Y812833D01*
X554401Y812965D01*
X554393Y812980D01*
X554379Y813022D01*
X554338Y813120D01*
X554309Y813220D01*
X553818Y814580D01*
X553814Y814589D01*
X553807Y814609D01*
X553492Y815421D01*
X553459Y815480D01*
X553436Y815544D01*
X553407Y815586D01*
X553294Y815925D01*
X553286Y815941D01*
X553272Y815984D01*
X553148Y816303D01*
X553146Y816336D01*
X553105Y816491D01*
X552829Y817318D01*
X552825Y817326D01*
X552819Y817347D01*
X552522Y818172D01*
X552491Y818231D01*
X552470Y818295D01*
X552435Y818348D01*
X552321Y818722D01*
X552314Y818739D01*
X552301Y818784D01*
X552201Y819059D01*
X552200Y819084D01*
X552163Y819241D01*
X551908Y820081D01*
X551903Y820091D01*
X551898Y820113D01*
X551617Y820955D01*
X551589Y821014D01*
X551570Y821076D01*
X551535Y821133D01*
X551438Y821485D01*
X551431Y821503D01*
X551418Y821551D01*
X551326Y821829D01*
X551325Y821859D01*
X551293Y822017D01*
X551058Y822873D01*
X551054Y822883D01*
X551048Y822907D01*
X550788Y823764D01*
X550762Y823822D01*
X550745Y823883D01*
X550711Y823942D01*
X550630Y824275D01*
X550623Y824292D01*
X550611Y824344D01*
X550524Y824630D01*
X550525Y824665D01*
X550497Y824824D01*
X550285Y825694D01*
X550281Y825705D01*
X550276Y825729D01*
X550039Y826596D01*
X550015Y826654D01*
X550000Y826715D01*
X549969Y826772D01*
X549901Y827090D01*
X549895Y827109D01*
X549884Y827161D01*
X549802Y827460D01*
X549803Y827499D01*
X549780Y827659D01*
X549593Y828538D01*
X549589Y828548D01*
X549585Y828574D01*
X549373Y829445D01*
X549350Y829504D01*
X549337Y829565D01*
X549309Y829621D01*
X549252Y829931D01*
X549246Y829950D01*
X549237Y830002D01*
X549161Y830315D01*
X549164Y830357D01*
X549145Y830517D01*
X548983Y831399D01*
X548980Y831409D01*
X548976Y831434D01*
X548790Y832307D01*
X548769Y832367D01*
X548757Y832430D01*
X548734Y832481D01*
X548687Y832781D01*
X548682Y832799D01*
X548674Y832850D01*
X548602Y833189D01*
X548607Y833233D01*
X548592Y833393D01*
X548455Y834274D01*
X548452Y834285D01*
X548449Y834308D01*
X548293Y835161D01*
X548272Y835227D01*
X548261Y835295D01*
X548256Y835306D01*
X548232Y835488D01*
X548227Y835504D01*
X548222Y835548D01*
X548126Y836069D01*
X548134Y836135D01*
X548123Y836295D01*
X548050Y836836D01*
X548027Y836923D01*
X548014Y837012D01*
X547991Y837065D01*
X547894Y837877D01*
X547891Y837890D01*
X547888Y837921D01*
X547776Y838645D01*
X547760Y838699D01*
X547750Y838795D01*
X547746Y838813D01*
X547742Y838863D01*
X547719Y839007D01*
X547714Y839160D01*
X547645Y839839D01*
X547642Y839852D01*
X547640Y839881D01*
X547523Y840749D01*
X547533Y840819D01*
X547526Y840942D01*
X547526Y840958D01*
X547525Y840965D01*
X547524Y840980D01*
X547462Y841496D01*
X547445Y841567D01*
X547437Y841639D01*
X547415Y841698D01*
X547374Y842229D01*
X547371Y842244D01*
X547369Y842281D01*
X547342Y842508D01*
X547342Y842509D01*
X547339Y842670D01*
X547274Y843513D01*
X547272Y843522D01*
X547271Y843542D01*
X547127Y844971D01*
X547112Y845037D01*
X547104Y845193D01*
X547101Y845210D01*
X547099Y845251D01*
X547083Y845405D01*
X547085Y845537D01*
X547006Y846970D01*
X547004Y846979D01*
X547004Y846998D01*
X546893Y848422D01*
X546881Y848479D01*
X546877Y848621D01*
X546874Y848637D01*
X546873Y848676D01*
X546859Y848859D01*
X546863Y849003D01*
X546815Y850427D01*
X546813Y850435D01*
X546813Y850453D01*
X546706Y852398D01*
X546709Y852461D01*
X546676Y854445D01*
X546675Y854452D01*
X546676Y854468D01*
X546628Y855857D01*
X546623Y855888D01*
X546623Y855987D01*
X546621Y856000D01*
X546622Y856028D01*
X546612Y856338D01*
X546612Y856340D01*
X546622Y856501D01*
X546620Y857887D01*
X546619Y857894D01*
X546619Y857906D01*
X546587Y859900D01*
X546589Y859929D01*
X546590Y859935D01*
X546589Y859937D01*
X546590Y859942D01*
X546612Y861887D01*
X546612Y861892D01*
X546612Y861904D01*
X546609Y863891D01*
X546611Y863921D01*
X546613Y863932D01*
X546613Y863937D01*
X546614Y863947D01*
X546658Y865878D01*
X546658Y865883D01*
X546659Y865893D01*
X546680Y867771D01*
X546693Y867816D01*
X546704Y867934D01*
X546706Y867950D01*
X546706Y867959D01*
X546707Y867977D01*
X546716Y868341D01*
X546706Y868433D01*
X546707Y868526D01*
X546700Y868550D01*
X546764Y870427D01*
X546764Y870432D01*
X546764Y870441D01*
X546808Y872326D01*
X546820Y872365D01*
X546831Y872480D01*
X546834Y872497D01*
X546833Y872506D01*
X546835Y872525D01*
X546943Y875692D01*
X546934Y875787D01*
X546935Y875874D01*
X547014Y877783D01*
X547013Y877786D01*
X547014Y877793D01*
X547079Y879707D01*
X547083Y879722D01*
X547095Y879832D01*
X547098Y879850D01*
X547098Y879860D01*
X547100Y879882D01*
X547161Y881361D01*
X547153Y881453D01*
X547155Y881545D01*
X547149Y881573D01*
X547247Y883445D01*
X547247Y883450D01*
X547248Y883459D01*
X547328Y885394D01*
X547322Y885461D01*
X547456Y887432D01*
X547456Y887439D01*
X547458Y887452D01*
X547531Y888848D01*
X547525Y888925D01*
X547530Y889002D01*
X547526Y889019D01*
X547558Y889372D01*
X547557Y889385D01*
X547561Y889418D01*
X547562Y889443D01*
X547566Y889469D01*
X547566Y889470D01*
X547691Y890869D01*
X547690Y890877D01*
X547693Y890895D01*
X547751Y891745D01*
X547747Y891817D01*
X547752Y891888D01*
X547743Y891944D01*
X547794Y892399D01*
X547794Y892415D01*
X547799Y892455D01*
X547818Y892736D01*
X547823Y892749D01*
X547851Y892907D01*
X547947Y893756D01*
X547947Y893765D01*
X547950Y893785D01*
X547976Y894080D01*
X547974Y894147D01*
X547981Y894214D01*
X547968Y894305D01*
X547966Y894348D01*
X548055Y894981D01*
X548055Y894999D01*
X548062Y895044D01*
X548108Y895561D01*
X548119Y895586D01*
X548124Y895608D01*
X548136Y895639D01*
X548169Y895796D01*
X548209Y896088D01*
X548209Y896099D01*
X548214Y896122D01*
X548248Y896427D01*
X548247Y896491D01*
X548256Y896556D01*
X548245Y896650D01*
X548244Y896691D01*
X548340Y897263D01*
X548341Y897281D01*
X548350Y897331D01*
X548410Y897863D01*
X548421Y897903D01*
X548447Y897963D01*
X548484Y898119D01*
X548490Y898157D01*
X548494Y898240D01*
X548507Y898321D01*
X548500Y898398D01*
X548503Y898475D01*
X548500Y898487D01*
X548650Y899260D01*
X548652Y899278D01*
X548662Y899326D01*
X548762Y900049D01*
X548763Y900095D01*
X548772Y900141D01*
X548770Y900170D01*
X548783Y900225D01*
X548785Y900247D01*
X548799Y900315D01*
X548817Y900378D01*
X548988Y901133D01*
X548990Y901152D01*
X549001Y901203D01*
X549123Y901929D01*
X549127Y901935D01*
X549154Y902013D01*
X549189Y902088D01*
X549226Y902230D01*
X549228Y902236D01*
X549229Y902239D01*
X549230Y902244D01*
X549244Y902315D01*
X549248Y902374D01*
X549261Y902432D01*
X549258Y902532D01*
X549263Y902610D01*
X549401Y903138D01*
X549404Y903158D01*
X549419Y903216D01*
X549508Y903677D01*
X549511Y903680D01*
X549531Y903736D01*
X549560Y903788D01*
X549610Y903941D01*
X549694Y904264D01*
X549696Y904276D01*
X549704Y904304D01*
X549776Y904621D01*
X549782Y904681D01*
X549797Y904740D01*
X549797Y904839D01*
X549799Y904859D01*
X549927Y905302D01*
X549930Y905322D01*
X549946Y905376D01*
X550080Y905968D01*
X550093Y905985D01*
X550115Y906042D01*
X550147Y906095D01*
X550201Y906246D01*
X550292Y906559D01*
X550294Y906569D01*
X550301Y906592D01*
X550374Y906874D01*
X550383Y906942D01*
X550402Y907007D01*
X550403Y907085D01*
X550548Y907546D01*
X550551Y907563D01*
X550565Y907605D01*
X550737Y908266D01*
X550738Y908267D01*
X550765Y908329D01*
X550801Y908387D01*
X550859Y908537D01*
X550946Y908816D01*
X550948Y908824D01*
X550954Y908842D01*
X551026Y909088D01*
X551037Y909163D01*
X551059Y909236D01*
X551061Y909278D01*
X551215Y909745D01*
X551218Y909759D01*
X551229Y909791D01*
X551454Y910566D01*
X551461Y910580D01*
X551502Y910644D01*
X551562Y910793D01*
X551643Y911037D01*
X551644Y911043D01*
X551649Y911056D01*
X551717Y911273D01*
X551731Y911354D01*
X551756Y911432D01*
X551756Y911450D01*
X551933Y911963D01*
X551935Y911974D01*
X551943Y911996D01*
X552202Y912819D01*
X552232Y912865D01*
X552290Y913003D01*
X552292Y913008D01*
X552292Y913010D01*
X552294Y913013D01*
X552368Y913229D01*
X552369Y913234D01*
X552372Y913243D01*
X552616Y913979D01*
X552627Y914037D01*
X552745Y914371D01*
X552747Y914379D01*
X552754Y914395D01*
X552967Y915039D01*
X552975Y915051D01*
X553027Y915174D01*
X553033Y915185D01*
X553034Y915190D01*
X553038Y915199D01*
X553296Y915930D01*
X553297Y915933D01*
X553300Y915940D01*
X553921Y917746D01*
X553929Y917787D01*
X554622Y919683D01*
X554623Y919687D01*
X554627Y919696D01*
X555254Y921473D01*
X555277Y921506D01*
X555324Y921614D01*
X555333Y921629D01*
X555335Y921637D01*
X555342Y921654D01*
X556046Y923580D01*
X556066Y923670D01*
X556096Y923758D01*
X556098Y923779D01*
X556762Y925539D01*
X556763Y925543D01*
X556766Y925551D01*
X557030Y926274D01*
X557042Y926326D01*
X557174Y926668D01*
X557176Y926675D01*
X557182Y926689D01*
X557419Y927339D01*
X557424Y927346D01*
X557479Y927464D01*
X557485Y927476D01*
X557487Y927482D01*
X557492Y927493D01*
X557769Y928211D01*
X557769Y928214D01*
X557772Y928220D01*
X558240Y929461D01*
X558252Y929510D01*
X558395Y929874D01*
X558397Y929880D01*
X558403Y929892D01*
X558481Y930101D01*
X558490Y930119D01*
X558497Y930132D01*
X558499Y930139D01*
X558506Y930153D01*
X558994Y931389D01*
X558994Y931392D01*
X558997Y931399D01*
X559476Y932641D01*
X559485Y932676D01*
X559586Y932927D01*
X559588Y932934D01*
X559594Y932946D01*
X559712Y933253D01*
X559734Y933298D01*
X559741Y933310D01*
X559743Y933317D01*
X559749Y933329D01*
X560247Y934564D01*
X560248Y934567D01*
X560251Y934573D01*
X560534Y935289D01*
X560555Y935373D01*
X560586Y935454D01*
X560587Y935461D01*
X560863Y936124D01*
X560865Y936132D01*
X560872Y936147D01*
X560977Y936413D01*
X561002Y936462D01*
X561009Y936474D01*
X561011Y936480D01*
X561017Y936492D01*
X561313Y937204D01*
X561314Y937208D01*
X561319Y937217D01*
X562024Y938965D01*
X562050Y938999D01*
X562102Y939104D01*
X562111Y939119D01*
X562113Y939127D01*
X562121Y939143D01*
X562695Y940521D01*
X562720Y940609D01*
X562753Y940694D01*
X562757Y940726D01*
X563497Y942445D01*
X563498Y942449D01*
X563503Y942458D01*
X563801Y943175D01*
X563816Y943229D01*
X563954Y943542D01*
X563957Y943550D01*
X563964Y943565D01*
X564231Y944205D01*
X564240Y944217D01*
X564301Y944334D01*
X564308Y944345D01*
X564309Y944350D01*
X564314Y944360D01*
X564627Y945070D01*
X564628Y945073D01*
X564631Y945080D01*
X564938Y945792D01*
X564962Y945875D01*
X564995Y945954D01*
X564997Y945967D01*
X565296Y946625D01*
X565298Y946632D01*
X565306Y946648D01*
X565411Y946893D01*
X565441Y946948D01*
X565447Y946958D01*
X565449Y946963D01*
X565454Y946972D01*
X565776Y947680D01*
X565778Y947685D01*
X565782Y947695D01*
X566537Y949409D01*
X566569Y949449D01*
X566626Y949554D01*
X566635Y949568D01*
X566637Y949576D01*
X566645Y949591D01*
X567037Y950453D01*
X567064Y950538D01*
X567099Y950619D01*
X567110Y950686D01*
X567897Y952343D01*
X567899Y952349D01*
X567906Y952362D01*
X568667Y954035D01*
X568718Y954097D01*
X568780Y954208D01*
X568788Y954220D01*
X568790Y954226D01*
X568796Y954238D01*
X568967Y954597D01*
X568994Y954680D01*
X569031Y954761D01*
X569044Y954831D01*
X569046Y954836D01*
X569857Y956472D01*
X569859Y956478D01*
X569866Y956491D01*
X570652Y958146D01*
X570708Y958210D01*
X570773Y958322D01*
X570780Y958333D01*
X570782Y958339D01*
X570788Y958350D01*
X570963Y958701D01*
X570992Y958786D01*
X571031Y958867D01*
X571041Y958920D01*
X571887Y960564D01*
X571889Y960570D01*
X571895Y960580D01*
X571993Y960777D01*
X572020Y960857D01*
X572057Y960932D01*
X572059Y960942D01*
X572310Y961419D01*
X572314Y961428D01*
X572325Y961447D01*
X572720Y962244D01*
X572753Y962280D01*
X572828Y962403D01*
X572832Y962410D01*
X572834Y962412D01*
X572837Y962418D01*
X572940Y962613D01*
X572941Y962617D01*
X572946Y962624D01*
X573049Y962826D01*
X573077Y962903D01*
X573115Y962976D01*
X573127Y963034D01*
X573580Y963859D01*
X573584Y963869D01*
X573596Y963889D01*
X573810Y964306D01*
X573818Y964314D01*
X573896Y964438D01*
X573900Y964444D01*
X573901Y964446D01*
X573904Y964450D01*
X574012Y964647D01*
X574015Y964654D01*
X574022Y964666D01*
X574942Y966412D01*
X574960Y966458D01*
X575939Y968164D01*
X575943Y968171D01*
X575952Y968186D01*
X576355Y968920D01*
X576382Y968989D01*
X576418Y969054D01*
X576425Y969081D01*
X576615Y969397D01*
X576621Y969411D01*
X576640Y969441D01*
X576838Y969802D01*
X576858Y969822D01*
X576949Y969954D01*
X577380Y970672D01*
X577383Y970679D01*
X577392Y970693D01*
X577809Y971419D01*
X577838Y971487D01*
X577875Y971551D01*
X577885Y971587D01*
X578110Y971944D01*
X578116Y971958D01*
X578136Y971987D01*
X578314Y972297D01*
X578327Y972310D01*
X578422Y972441D01*
X578866Y973150D01*
X578870Y973157D01*
X578880Y973171D01*
X578999Y973370D01*
X579032Y973445D01*
X579036Y973451D01*
X579219Y973738D01*
X579224Y973748D01*
X579238Y973768D01*
X579809Y974720D01*
X579818Y974731D01*
X579877Y974786D01*
X579968Y974909D01*
X579970Y974912D01*
X579971Y974913D01*
X579972Y974916D01*
X580097Y975111D01*
X580099Y975114D01*
X580103Y975120D01*
X580192Y975261D01*
X580875Y976350D01*
X580896Y976396D01*
X580925Y976437D01*
X580963Y976539D01*
X581009Y976638D01*
X581018Y976688D01*
X581036Y976735D01*
X581047Y976843D01*
X581067Y976951D01*
X581064Y977001D01*
X581069Y977051D01*
X581053Y977159D01*
X581046Y977268D01*
X581030Y977316D01*
X581022Y977366D01*
X580980Y977467D01*
X580946Y977570D01*
X580919Y977613D01*
X580899Y977659D01*
X580833Y977746D01*
X580774Y977838D01*
X580738Y977872D01*
X580707Y977913D01*
X580621Y977980D01*
X580542Y978055D01*
X580497Y978079D01*
X580458Y978110D01*
X580358Y978154D01*
X580262Y978207D01*
X580213Y978219D01*
X580167Y978240D01*
X580060Y978258D01*
X579954Y978284D01*
X579904Y978284D01*
X579854Y978293D01*
X579693Y978289D01*
X575320Y977918D01*
X575311Y977916D01*
X575294Y977916D01*
X572042Y977573D01*
X572033Y977571D01*
X572013Y977569D01*
X568765Y977151D01*
X568758Y977149D01*
X568742Y977148D01*
X566592Y976832D01*
X566586Y976830D01*
X566575Y976829D01*
X564416Y976482D01*
X564411Y976480D01*
X564400Y976479D01*
X562244Y976103D01*
X562239Y976101D01*
X562228Y976100D01*
X560077Y975697D01*
X560072Y975695D01*
X560062Y975694D01*
X557909Y975264D01*
X557904Y975263D01*
X557894Y975261D01*
X555748Y974806D01*
X555744Y974804D01*
X555734Y974803D01*
X553591Y974323D01*
X553587Y974322D01*
X553578Y974320D01*
X551439Y973817D01*
X551435Y973815D01*
X551424Y973813D01*
X548750Y973149D01*
X548746Y973147D01*
X548736Y973145D01*
X546611Y972590D01*
X546607Y972589D01*
X546598Y972587D01*
X544478Y972010D01*
X544474Y972009D01*
X544464Y972007D01*
X541811Y971252D01*
X541807Y971250D01*
X541796Y971248D01*
X539158Y970462D01*
X539153Y970460D01*
X539142Y970457D01*
X536513Y969638D01*
X536509Y969636D01*
X536498Y969634D01*
X533876Y968781D01*
X533872Y968779D01*
X533862Y968777D01*
X531781Y968074D01*
X531777Y968072D01*
X531767Y968070D01*
X529164Y967159D01*
X529160Y967157D01*
X529150Y967154D01*
X526562Y966213D01*
X526557Y966210D01*
X526547Y966207D01*
X523971Y965234D01*
X523967Y965231D01*
X523958Y965229D01*
X521907Y964427D01*
X521904Y964425D01*
X521895Y964422D01*
X519858Y963601D01*
X519854Y963599D01*
X519844Y963596D01*
X517304Y962537D01*
X517299Y962535D01*
X517288Y962531D01*
X514762Y961438D01*
X514757Y961435D01*
X514747Y961432D01*
X512746Y960537D01*
X512742Y960534D01*
X512733Y960531D01*
X510738Y959612D01*
X510734Y959610D01*
X510725Y959606D01*
X508744Y958665D01*
X508740Y958662D01*
X508730Y958658D01*
X506762Y957695D01*
X506758Y957692D01*
X506749Y957688D01*
X504792Y956700D01*
X504788Y956697D01*
X504777Y956693D01*
X502839Y955682D01*
X502835Y955679D01*
X502825Y955674D01*
X500903Y954639D01*
X500898Y954636D01*
X500887Y954631D01*
X498977Y953567D01*
X498973Y953564D01*
X498963Y953559D01*
X497554Y952751D01*
X497550Y952748D01*
X497540Y952743D01*
X496143Y951918D01*
X496138Y951914D01*
X496127Y951908D01*
X494748Y951066D01*
X494743Y951062D01*
X494733Y951056D01*
X493368Y950197D01*
X493363Y950193D01*
X493352Y950186D01*
X491527Y948995D01*
X491523Y948992D01*
X491512Y948985D01*
X490169Y948082D01*
X490165Y948078D01*
X490155Y948072D01*
X488360Y946827D01*
X488356Y946824D01*
X488347Y946818D01*
X487022Y945874D01*
X487018Y945870D01*
X487010Y945865D01*
X485242Y944572D01*
X485238Y944569D01*
X485228Y944562D01*
X483480Y943248D01*
X483477Y943245D01*
X483468Y943239D01*
X481735Y941902D01*
X481731Y941898D01*
X481722Y941891D01*
X479567Y940183D01*
X479563Y940179D01*
X479555Y940173D01*
X477853Y938788D01*
X477850Y938785D01*
X477843Y938779D01*
X476151Y937371D01*
X476148Y937368D01*
X476141Y937363D01*
X474463Y935937D01*
X474460Y935934D01*
X474453Y935929D01*
X472792Y934488D01*
X472789Y934484D01*
X472781Y934479D01*
X470717Y932649D01*
X470714Y932645D01*
X470706Y932639D01*
X468660Y930783D01*
X468658Y930779D01*
X468651Y930774D01*
X467035Y929276D01*
X467032Y929273D01*
X467026Y929269D01*
X465420Y927754D01*
X465418Y927751D01*
X465412Y927745D01*
X463417Y925827D01*
X463414Y925824D01*
X463408Y925818D01*
X461833Y924275D01*
X461831Y924272D01*
X461824Y924266D01*
X459868Y922312D01*
X459865Y922308D01*
X459859Y922302D01*
X457921Y920326D01*
X457918Y920323D01*
X457913Y920318D01*
X456380Y918726D01*
X456378Y918723D01*
X456373Y918718D01*
X454472Y916708D01*
X454470Y916705D01*
X454464Y916699D01*
X452960Y915079D01*
X452958Y915076D01*
X452953Y915071D01*
X451085Y913023D01*
X451083Y913020D01*
X451078Y913014D01*
X449607Y911372D01*
X449605Y911369D01*
X449599Y911363D01*
X447770Y909281D01*
X447768Y909278D01*
X447763Y909273D01*
X446320Y907601D01*
X446318Y907598D01*
X446312Y907592D01*
X444524Y905481D01*
X444522Y905477D01*
X444516Y905471D01*
X442752Y903345D01*
X442750Y903341D01*
X442743Y903334D01*
X440999Y901185D01*
X440997Y901182D01*
X440991Y901176D01*
X439620Y899453D01*
X439618Y899449D01*
X439612Y899443D01*
X437913Y897264D01*
X437910Y897260D01*
X437904Y897253D01*
X436227Y895054D01*
X436225Y895050D01*
X436219Y895043D01*
X434905Y893282D01*
X434902Y893278D01*
X434897Y893271D01*
X433268Y891039D01*
X433265Y891035D01*
X433260Y891028D01*
X431982Y889238D01*
X431980Y889234D01*
X431975Y889227D01*
X430713Y887421D01*
X430711Y887417D01*
X430706Y887410D01*
X429467Y885596D01*
X429465Y885592D01*
X429459Y885585D01*
X428239Y883756D01*
X428237Y883752D01*
X428231Y883744D01*
X427032Y881904D01*
X427030Y881900D01*
X427024Y881892D01*
X426730Y881428D01*
X425846Y880037D01*
X425844Y880033D01*
X425839Y880025D01*
X424679Y878155D01*
X424677Y878151D01*
X424671Y878144D01*
X423531Y876261D01*
X423529Y876257D01*
X423524Y876250D01*
X422404Y874358D01*
X422402Y874354D01*
X422397Y874346D01*
X421018Y871957D01*
X421016Y871953D01*
X421011Y871944D01*
X419660Y869539D01*
X419659Y869534D01*
X419654Y869527D01*
X418595Y867592D01*
X418593Y867589D01*
X418589Y867583D01*
X417547Y865639D01*
X417546Y865635D01*
X417541Y865627D01*
X416266Y863188D01*
X416264Y863182D01*
X416257Y863172D01*
X414258Y859211D01*
X414256Y859206D01*
X414250Y859197D01*
X413285Y857221D01*
X413283Y857218D01*
X413279Y857210D01*
X412088Y854715D01*
X412087Y854711D01*
X412083Y854703D01*
X410918Y852196D01*
X410917Y852191D01*
X410913Y852184D01*
X409775Y849665D01*
X409774Y849661D01*
X409769Y849653D01*
X408658Y847123D01*
X408657Y847119D01*
X408653Y847111D01*
X407567Y844568D01*
X407566Y844564D01*
X407562Y844556D01*
X406502Y842002D01*
X406501Y841998D01*
X406497Y841990D01*
X405465Y839427D01*
X405464Y839423D01*
X405460Y839415D01*
X404455Y836841D01*
X404454Y836837D01*
X404450Y836828D01*
X403474Y834247D01*
X403473Y834242D01*
X403469Y834234D01*
X402519Y831638D01*
X402518Y831634D01*
X402515Y831625D01*
X401595Y829022D01*
X401594Y829018D01*
X401590Y829010D01*
X400878Y826925D01*
X400877Y826921D01*
X400873Y826913D01*
X400008Y824293D01*
X400007Y824288D01*
X400003Y824278D01*
X399169Y821649D01*
X399168Y821644D01*
X399165Y821635D01*
X398525Y819537D01*
X398524Y819532D01*
X398521Y819523D01*
X397747Y816876D01*
X397746Y816871D01*
X397743Y816861D01*
X397152Y814747D01*
X397152Y814743D01*
X397149Y814734D01*
X396581Y812612D01*
X396580Y812608D01*
X396577Y812598D01*
X396035Y810474D01*
X396034Y810469D01*
X396031Y810459D01*
X395515Y808328D01*
X395515Y808323D01*
X395512Y808313D01*
X395024Y806183D01*
X395024Y806177D01*
X395021Y806166D01*
X394562Y804030D01*
X394561Y804024D01*
X394558Y804012D01*
X394131Y801877D01*
X394130Y801871D01*
X394127Y801858D01*
X393733Y799715D01*
X393732Y799710D01*
X393730Y799698D01*
X393459Y798102D01*
X393459Y798096D01*
X393456Y798083D01*
X393125Y795936D01*
X393125Y795930D01*
X393122Y795916D01*
X392903Y794326D01*
X392903Y794319D01*
X392900Y794304D01*
X392642Y792157D01*
X392642Y792150D01*
X392639Y792134D01*
X392479Y790543D01*
X392479Y790536D01*
X392477Y790521D01*
X392344Y788930D01*
X392344Y788922D01*
X392342Y788906D01*
X392240Y787327D01*
X392240Y787317D01*
X392238Y787296D01*
X392168Y785564D01*
X392176Y785466D01*
X392175Y785367D01*
X392189Y785308D01*
X392195Y785248D01*
X392199Y785235D01*
X392181Y784786D01*
X392186Y784724D01*
X392182Y784661D01*
X392199Y784566D01*
X392208Y784469D01*
X392228Y784410D01*
X392240Y784348D01*
X392253Y784321D01*
X392225Y784037D01*
X392227Y783966D01*
X392219Y783896D01*
X392231Y783808D01*
X392233Y783719D01*
X392253Y783651D01*
X392257Y783620D01*
X392209Y783281D01*
X392207Y783214D01*
X392197Y783149D01*
X392205Y783056D01*
X392203Y782963D01*
X392219Y782898D01*
X392224Y782832D01*
X392226Y782826D01*
X392131Y782341D01*
X392129Y782308D01*
X392120Y782275D01*
X392107Y782115D01*
X392101Y781694D01*
X392091Y781661D01*
X392077Y781608D01*
X392071Y781558D01*
X392057Y781510D01*
X392040Y781350D01*
X392033Y781168D01*
X392032Y781166D01*
X391998Y781075D01*
X391956Y780988D01*
X391944Y780926D01*
X391922Y780867D01*
X391896Y780709D01*
X391866Y780404D01*
X391867Y780390D01*
X391862Y780363D01*
X391860Y780342D01*
X391827Y780286D01*
X391816Y780257D01*
X391810Y780245D01*
X391804Y780225D01*
X391771Y780135D01*
X391768Y780125D01*
X391766Y780113D01*
X391762Y780102D01*
X391729Y779944D01*
X391679Y779596D01*
X391647Y779546D01*
X391647Y779545D01*
X391593Y779370D01*
X391553Y779242D01*
X391553Y779241D01*
X391547Y779116D01*
X391456Y778850D01*
X391455Y778844D01*
X391453Y778839D01*
X391412Y778683D01*
X391351Y778375D01*
X391318Y778314D01*
X391265Y778237D01*
X391242Y778175D01*
X391210Y778117D01*
X391161Y777964D01*
X391041Y777486D01*
X391039Y777467D01*
X391033Y777450D01*
X391023Y777346D01*
X391004Y777298D01*
X390955Y777145D01*
X390927Y777034D01*
X390907Y777008D01*
X390900Y776991D01*
X390889Y776976D01*
X390821Y776830D01*
X390731Y776600D01*
X390725Y776579D01*
X390695Y776497D01*
X390472Y775743D01*
X390418Y775635D01*
X390138Y774988D01*
X390132Y774967D01*
X390103Y774896D01*
X390014Y774636D01*
X390007Y774603D01*
X389994Y774573D01*
X389984Y774511D01*
X389960Y774458D01*
X389955Y774441D01*
X389911Y774336D01*
X389829Y774096D01*
X389801Y774065D01*
X389785Y774036D01*
X389764Y774010D01*
X389687Y773868D01*
X389564Y773602D01*
X389540Y773528D01*
X389507Y773457D01*
X389492Y773377D01*
X389468Y773299D01*
X389465Y773252D01*
X389282Y772890D01*
X389275Y772870D01*
X389234Y772781D01*
X389084Y772398D01*
X389048Y772362D01*
X389009Y772295D01*
X388961Y772233D01*
X388888Y772090D01*
X388783Y771846D01*
X388772Y771809D01*
X388754Y771774D01*
X388728Y771656D01*
X388725Y771646D01*
X388621Y771457D01*
X388613Y771437D01*
X388568Y771348D01*
X388509Y771212D01*
X388483Y771185D01*
X388397Y771049D01*
X388324Y770916D01*
X388317Y770897D01*
X388285Y770839D01*
X388234Y770728D01*
X388223Y770693D01*
X388205Y770661D01*
X388175Y770542D01*
X388167Y770517D01*
X388057Y770331D01*
X388050Y770313D01*
X387999Y770219D01*
X387951Y770117D01*
X387931Y770097D01*
X387840Y769964D01*
X387704Y769732D01*
X387670Y769655D01*
X387628Y769582D01*
X387608Y769509D01*
X387578Y769440D01*
X387577Y769434D01*
X387414Y769173D01*
X387405Y769153D01*
X387359Y769073D01*
X387109Y768578D01*
X387065Y768541D01*
X387020Y768478D01*
X386967Y768422D01*
X386881Y768286D01*
X386444Y767490D01*
X386416Y767469D01*
X386368Y767406D01*
X386311Y767350D01*
X386222Y767219D01*
X386222Y767218D01*
X386221Y767217D01*
X386221Y767216D01*
X385756Y766428D01*
X385704Y766365D01*
X385643Y766307D01*
X385560Y766191D01*
X385555Y766184D01*
X385553Y766181D01*
X385550Y766176D01*
X381896Y760304D01*
X381864Y760235D01*
X381824Y760171D01*
X381765Y760021D01*
X381474Y759116D01*
X381320Y759037D01*
X381235Y758979D01*
X381146Y758929D01*
X381104Y758889D01*
X381057Y758857D01*
X380990Y758780D01*
X380915Y758709D01*
X380862Y758634D01*
X380848Y758618D01*
X380841Y758605D01*
X380822Y758578D01*
X380730Y758431D01*
X379804Y758215D01*
X379733Y758189D01*
X379659Y758172D01*
X379512Y758108D01*
X379094Y757893D01*
X379065Y757873D01*
X379033Y757859D01*
X378933Y757792D01*
X378910Y757787D01*
X378889Y757778D01*
X378879Y757775D01*
X378863Y757766D01*
X378762Y757723D01*
X378666Y757673D01*
X378501Y757727D01*
X378400Y757745D01*
X378302Y757773D01*
X378244Y757775D01*
X378188Y757785D01*
X378086Y757778D01*
X377984Y757781D01*
X377892Y757765D01*
X377871Y757764D01*
X377858Y757760D01*
X377825Y757754D01*
X377655Y757715D01*
X377126Y758045D01*
X377097Y758058D01*
X377071Y758077D01*
X376952Y758124D01*
X376837Y758177D01*
X376805Y758183D01*
X376776Y758195D01*
X376618Y758226D01*
X375947Y758312D01*
X375848Y758412D01*
X375750Y758516D01*
X375736Y758525D01*
X375724Y758536D01*
X375603Y758609D01*
X375481Y758685D01*
X375460Y758694D01*
X375451Y758699D01*
X375433Y758704D01*
X375334Y758743D01*
X375180Y759043D01*
X375122Y759128D01*
X375072Y759217D01*
X375032Y759258D01*
X375000Y759305D01*
X374991Y759313D01*
X374986Y759337D01*
X374959Y759408D01*
X374943Y759481D01*
X374879Y759629D01*
X374824Y759735D01*
X374804Y759764D01*
X374790Y759796D01*
X374700Y759930D01*
X368670Y767751D01*
X368607Y767814D01*
X368553Y767883D01*
X368496Y767926D01*
X368493Y767929D01*
X367593Y769138D01*
X367532Y769202D01*
X367478Y769272D01*
X367422Y769316D01*
X367416Y769323D01*
X366867Y770088D01*
X366858Y770098D01*
X366840Y770124D01*
X366481Y770590D01*
X366435Y770636D01*
X366397Y770688D01*
X366383Y770699D01*
X366292Y770831D01*
X366280Y770845D01*
X366252Y770887D01*
X366215Y770935D01*
X366173Y771004D01*
X365805Y771539D01*
X365796Y771549D01*
X365778Y771577D01*
X365170Y772394D01*
X365137Y772457D01*
X365097Y772501D01*
X364666Y773155D01*
X364656Y773165D01*
X364638Y773195D01*
X364173Y773843D01*
X364142Y773905D01*
X364087Y773968D01*
X364051Y774022D01*
X363522Y774855D01*
X363513Y774866D01*
X363496Y774895D01*
X362934Y775711D01*
X362932Y775718D01*
X362890Y775783D01*
X362857Y775852D01*
X362804Y775916D01*
X362780Y775953D01*
X362372Y776627D01*
X362363Y776638D01*
X362345Y776669D01*
X362018Y777164D01*
X362002Y777218D01*
X361927Y777360D01*
X361792Y777584D01*
X361787Y777591D01*
X361778Y777606D01*
X361635Y777832D01*
X361588Y777888D01*
X361550Y777951D01*
X361494Y778004D01*
X361177Y778552D01*
X361168Y778564D01*
X361150Y778596D01*
X360807Y779138D01*
X360789Y779203D01*
X360717Y779347D01*
X360584Y779578D01*
X360579Y779585D01*
X360571Y779600D01*
X360434Y779827D01*
X360388Y779885D01*
X360350Y779948D01*
X360298Y780000D01*
X359995Y780549D01*
X359986Y780561D01*
X359969Y780593D01*
X359631Y781152D01*
X359614Y781218D01*
X359545Y781363D01*
X359417Y781596D01*
X359412Y781602D01*
X359404Y781617D01*
X359274Y781844D01*
X359229Y781903D01*
X359192Y781968D01*
X359141Y782020D01*
X358842Y782588D01*
X358834Y782600D01*
X358818Y782632D01*
X358495Y783191D01*
X358480Y783254D01*
X358414Y783401D01*
X358292Y783632D01*
X358287Y783639D01*
X358280Y783654D01*
X358150Y783890D01*
X358106Y783949D01*
X358072Y784013D01*
X358013Y784077D01*
X358010Y784081D01*
X357702Y784697D01*
X357694Y784710D01*
X357678Y784744D01*
X357399Y785248D01*
X357387Y785306D01*
X357324Y785454D01*
X357204Y785695D01*
X357199Y785702D01*
X357191Y785719D01*
X356794Y786473D01*
X356753Y786532D01*
X356721Y786595D01*
X356693Y786626D01*
X356532Y786968D01*
X356523Y786981D01*
X356507Y787017D01*
X356337Y787341D01*
X356332Y787368D01*
X356272Y787518D01*
X355908Y788289D01*
X355903Y788296D01*
X355896Y788313D01*
X355776Y788554D01*
X355735Y788615D01*
X355703Y788681D01*
X355658Y788733D01*
X355423Y789258D01*
X355415Y789271D01*
X355400Y789305D01*
X355092Y789921D01*
X355090Y789930D01*
X355077Y790002D01*
X355021Y790153D01*
X354911Y790397D01*
X354907Y790404D01*
X354901Y790420D01*
X354788Y790658D01*
X354748Y790721D01*
X354717Y790788D01*
X354670Y790846D01*
X354414Y791448D01*
X354406Y791460D01*
X354393Y791493D01*
X354123Y792067D01*
X354113Y792129D01*
X354060Y792280D01*
X353957Y792523D01*
X353953Y792530D01*
X353947Y792546D01*
X353839Y792786D01*
X353800Y792849D01*
X353770Y792917D01*
X353723Y792977D01*
X353480Y793581D01*
X353473Y793594D01*
X353461Y793628D01*
X353202Y794203D01*
X353194Y794267D01*
X353144Y794420D01*
X353045Y794665D01*
X353041Y794672D01*
X353035Y794689D01*
X352931Y794934D01*
X352912Y794966D01*
X352908Y794978D01*
X352890Y795007D01*
X352866Y795065D01*
X352818Y795129D01*
X352587Y795740D01*
X352580Y795753D01*
X352568Y795788D01*
X352324Y796360D01*
X352317Y796424D01*
X352270Y796578D01*
X352176Y796826D01*
X352172Y796834D01*
X352166Y796851D01*
X352065Y797102D01*
X352030Y797166D01*
X352004Y797233D01*
X351955Y797301D01*
X351740Y797910D01*
X351733Y797923D01*
X351721Y797959D01*
X351490Y798533D01*
X351484Y798600D01*
X351440Y798755D01*
X351350Y799010D01*
X351346Y799017D01*
X351341Y799035D01*
X351244Y799291D01*
X351210Y799354D01*
X351186Y799422D01*
X351136Y799494D01*
X351135Y799497D01*
X350932Y800113D01*
X350925Y800128D01*
X350913Y800165D01*
X350701Y800726D01*
X350697Y800794D01*
X350656Y800949D01*
X350570Y801210D01*
X350566Y801218D01*
X350561Y801237D01*
X350468Y801500D01*
X350436Y801563D01*
X350413Y801630D01*
X350365Y801705D01*
X350361Y801712D01*
X350177Y802318D01*
X350170Y802333D01*
X350159Y802372D01*
X349960Y802934D01*
X349959Y802936D01*
X349956Y803007D01*
X349919Y803164D01*
X349838Y803431D01*
X349834Y803439D01*
X349829Y803459D01*
X349740Y803730D01*
X349710Y803793D01*
X349689Y803859D01*
X349642Y803936D01*
X349634Y803953D01*
X349465Y804559D01*
X349459Y804574D01*
X349448Y804616D01*
X349268Y805162D01*
X349267Y805170D01*
X349265Y805239D01*
X349232Y805396D01*
X349156Y805671D01*
X349152Y805680D01*
X349147Y805701D01*
X349062Y805982D01*
X349034Y806044D01*
X349015Y806109D01*
X348969Y806188D01*
X348957Y806216D01*
X348808Y806811D01*
X348801Y806828D01*
X348791Y806872D01*
X348629Y807404D01*
X348626Y807422D01*
X348627Y807490D01*
X348598Y807648D01*
X348526Y807933D01*
X348523Y807942D01*
X348518Y807964D01*
X348437Y808256D01*
X348411Y808317D01*
X348395Y808381D01*
X348350Y808463D01*
X348333Y808503D01*
X348203Y809089D01*
X348197Y809106D01*
X348187Y809154D01*
X348045Y809664D01*
X348042Y809694D01*
X348044Y809760D01*
X348021Y809905D01*
X348021Y809907D01*
X348021Y809908D01*
X348019Y809919D01*
X347953Y810215D01*
X347950Y810225D01*
X347945Y810249D01*
X347872Y810543D01*
X347848Y810604D01*
X347833Y810668D01*
X347790Y810752D01*
X347783Y810770D01*
X347679Y811303D01*
X347673Y811320D01*
X347664Y811369D01*
X347523Y811934D01*
X347518Y811991D01*
X347522Y812056D01*
X347501Y812216D01*
X347494Y812250D01*
X347468Y812328D01*
X347452Y812409D01*
X347419Y812479D01*
X347395Y812552D01*
X347383Y812571D01*
X347244Y813401D01*
X347239Y813418D01*
X347232Y813467D01*
X347061Y814236D01*
X347062Y814243D01*
X347057Y814326D01*
X347062Y814409D01*
X347043Y814553D01*
X347043Y814561D01*
X347042Y814564D01*
X347041Y814569D01*
X347034Y814608D01*
X347014Y814669D01*
X347003Y814733D01*
X346964Y814820D01*
X346952Y814855D01*
X346875Y815412D01*
X346870Y815430D01*
X346863Y815481D01*
X346759Y816014D01*
X346757Y816066D01*
X346765Y816130D01*
X346753Y816290D01*
X346710Y816596D01*
X346707Y816606D01*
X346705Y816631D01*
X346658Y816913D01*
X346638Y816979D01*
X346628Y817047D01*
X346602Y817108D01*
X346549Y817555D01*
X346545Y817572D01*
X346541Y817615D01*
X346420Y818336D01*
X346421Y818339D01*
X346420Y818408D01*
X346429Y818476D01*
X346421Y818637D01*
X346387Y818921D01*
X346385Y818929D01*
X346384Y818947D01*
X346344Y819229D01*
X346326Y819296D01*
X346318Y819365D01*
X346285Y819449D01*
X346270Y819503D01*
X346203Y820235D01*
X346200Y820251D01*
X346197Y820294D01*
X346133Y820750D01*
X346141Y820800D01*
X346137Y820961D01*
X346111Y821243D01*
X346109Y821253D01*
X346107Y821277D01*
X346069Y821599D01*
X346054Y821659D01*
X346049Y821720D01*
X346016Y821813D01*
X345993Y821905D01*
X345957Y822525D01*
X345953Y822544D01*
X345950Y822600D01*
X345899Y823028D01*
X345900Y823052D01*
X345912Y823113D01*
X345913Y823274D01*
X345894Y823597D01*
X345892Y823610D01*
X345891Y823639D01*
X345860Y823978D01*
X345848Y824034D01*
X345844Y824092D01*
X345813Y824189D01*
X345800Y824250D01*
X345787Y824744D01*
X345784Y824764D01*
X345782Y824826D01*
X345735Y825338D01*
X345741Y825356D01*
X345745Y825413D01*
X345758Y825469D01*
X345764Y825630D01*
X345761Y825736D01*
X345749Y825814D01*
X345747Y825892D01*
X345725Y825970D01*
X345713Y826051D01*
X345695Y826093D01*
X345701Y826868D01*
X345698Y826889D01*
X345698Y826951D01*
X345654Y827705D01*
X345669Y827745D01*
X345677Y827824D01*
X345694Y827900D01*
X345700Y828061D01*
X345697Y828174D01*
X345689Y828230D01*
X345689Y828286D01*
X345665Y828387D01*
X345652Y828470D01*
X345673Y828982D01*
X345672Y829003D01*
X345674Y829068D01*
X345662Y829534D01*
X345667Y829548D01*
X345675Y829604D01*
X345691Y829658D01*
X345708Y829818D01*
X345723Y830166D01*
X345721Y830179D01*
X345724Y830210D01*
X345726Y830527D01*
X345718Y830590D01*
X345721Y830652D01*
X345704Y830729D01*
X345728Y831099D01*
X345726Y831119D01*
X345730Y831173D01*
X345736Y831975D01*
X345747Y832009D01*
X345771Y832168D01*
X345840Y833023D01*
X345840Y833038D01*
X345844Y833074D01*
X345861Y833503D01*
X345856Y833562D01*
X345861Y833622D01*
X345852Y833670D01*
X345875Y833893D01*
X345875Y833913D01*
X345881Y833971D01*
X345897Y834348D01*
X345898Y834354D01*
X345919Y834411D01*
X345945Y834569D01*
X345963Y834734D01*
X345962Y834749D01*
X345967Y834783D01*
X346019Y835593D01*
X346046Y835669D01*
X346064Y835796D01*
X346067Y835809D01*
X346067Y835816D01*
X346069Y835829D01*
X346114Y836374D01*
X346110Y836445D01*
X346117Y836516D01*
X346110Y836560D01*
X346159Y836942D01*
X346159Y836958D01*
X346164Y836998D01*
X346193Y837347D01*
X346203Y837372D01*
X346233Y837530D01*
X346341Y838379D01*
X346341Y838388D01*
X346344Y838408D01*
X346491Y839817D01*
X346490Y839825D01*
X346491Y839826D01*
X346491Y839841D01*
X346497Y839876D01*
X346534Y840238D01*
X346542Y840257D01*
X346575Y840415D01*
X346776Y841810D01*
X346776Y841817D01*
X346779Y841832D01*
X346953Y843202D01*
X346953Y843223D01*
X346964Y843292D01*
X346964Y843304D01*
X346969Y843330D01*
X347015Y843693D01*
X347017Y843697D01*
X347051Y843849D01*
X347052Y843852D01*
X347052Y843853D01*
X347052Y843854D01*
X347266Y845214D01*
X347266Y845219D01*
X347268Y845230D01*
X347534Y847079D01*
X347557Y847131D01*
X347583Y847249D01*
X347588Y847264D01*
X347588Y847272D01*
X347592Y847288D01*
X347736Y848204D01*
X347739Y848297D01*
X347751Y848391D01*
X347750Y848403D01*
X348060Y850268D01*
X348060Y850272D01*
X348062Y850279D01*
X348357Y852157D01*
X348368Y852182D01*
X348394Y852293D01*
X348400Y852310D01*
X348400Y852319D01*
X348405Y852339D01*
X348464Y852693D01*
X348467Y852785D01*
X348481Y852876D01*
X348478Y852905D01*
X348806Y854751D01*
X348806Y854756D01*
X348809Y854765D01*
X349031Y856104D01*
X349034Y856177D01*
X349104Y856540D01*
X349104Y856550D01*
X349109Y856570D01*
X349134Y856723D01*
X349145Y856765D01*
X349148Y856774D01*
X349149Y856778D01*
X349151Y856786D01*
X349406Y858121D01*
X349406Y858127D01*
X349409Y858137D01*
X349748Y860043D01*
X349748Y860050D01*
X349752Y860070D01*
X349753Y860080D01*
X349758Y860102D01*
X349763Y860128D01*
X349766Y860136D01*
X349766Y860140D01*
X349768Y860147D01*
X350155Y862042D01*
X350156Y862048D01*
X350158Y862058D01*
X350415Y863397D01*
X350418Y863454D01*
X350474Y863712D01*
X350475Y863722D01*
X350481Y863743D01*
X350525Y863974D01*
X350547Y864051D01*
X350550Y864059D01*
X350550Y864063D01*
X350552Y864070D01*
X350841Y865401D01*
X350842Y865406D01*
X350845Y865416D01*
X351232Y867314D01*
X351234Y867331D01*
X351249Y867399D01*
X351250Y867405D01*
X351253Y867416D01*
X351690Y869302D01*
X351690Y869308D01*
X351693Y869319D01*
X352105Y871213D01*
X352106Y871222D01*
X352112Y871245D01*
X352113Y871256D01*
X352120Y871279D01*
X352122Y871291D01*
X352124Y871295D01*
X352125Y871301D01*
X352128Y871311D01*
X352590Y873194D01*
X352591Y873200D01*
X352594Y873211D01*
X353030Y875097D01*
X353031Y875108D01*
X353037Y875127D01*
X353047Y875171D01*
X353051Y875181D01*
X353052Y875186D01*
X353056Y875197D01*
X353541Y877071D01*
X353542Y877077D01*
X353545Y877087D01*
X353869Y878410D01*
X353875Y878455D01*
X353932Y878666D01*
X353933Y878676D01*
X353940Y878696D01*
X354006Y878969D01*
X354037Y879060D01*
X354041Y879068D01*
X354041Y879071D01*
X354043Y879077D01*
X354400Y880391D01*
X354401Y880395D01*
X354404Y880405D01*
X354744Y881720D01*
X354752Y881779D01*
X354833Y882066D01*
X354835Y882075D01*
X354841Y882095D01*
X354896Y882306D01*
X354918Y882370D01*
X354922Y882378D01*
X354923Y882382D01*
X354925Y882389D01*
X355297Y883695D01*
X355298Y883700D01*
X355301Y883710D01*
X355658Y885025D01*
X355667Y885086D01*
X355752Y885372D01*
X355754Y885382D01*
X355761Y885402D01*
X355815Y885605D01*
X355840Y885670D01*
X355843Y885678D01*
X355844Y885681D01*
X355846Y885687D01*
X356236Y886993D01*
X356236Y886999D01*
X356240Y887009D01*
X356613Y888320D01*
X356623Y888385D01*
X356713Y888673D01*
X356715Y888683D01*
X356722Y888704D01*
X356776Y888894D01*
X356801Y888957D01*
X356804Y888965D01*
X356805Y888968D01*
X356808Y888975D01*
X357215Y890277D01*
X357216Y890283D01*
X357220Y890293D01*
X357611Y891607D01*
X357623Y891676D01*
X357718Y891965D01*
X357720Y891975D01*
X357728Y891998D01*
X357780Y892172D01*
X357806Y892237D01*
X357809Y892243D01*
X357810Y892246D01*
X357812Y892251D01*
X358239Y893554D01*
X358240Y893559D01*
X358245Y893571D01*
X358655Y894884D01*
X358668Y894957D01*
X358767Y895242D01*
X358769Y895253D01*
X358778Y895277D01*
X358828Y895436D01*
X358856Y895504D01*
X358859Y895509D01*
X358859Y895511D01*
X358861Y895515D01*
X359310Y896817D01*
X359311Y896823D01*
X359316Y896835D01*
X359746Y898146D01*
X359758Y898207D01*
X359839Y898430D01*
X359841Y898441D01*
X359851Y898466D01*
X359918Y898669D01*
X359959Y898763D01*
X359960Y898766D01*
X359960Y898767D01*
X359961Y898769D01*
X360431Y900066D01*
X360432Y900072D01*
X360437Y900084D01*
X360700Y900847D01*
X360717Y900925D01*
X360743Y901001D01*
X360744Y901013D01*
X360894Y901411D01*
X360897Y901423D01*
X360907Y901447D01*
X361049Y901857D01*
X361056Y901867D01*
X361120Y902008D01*
X361121Y902011D01*
X361121Y902012D01*
X361122Y902014D01*
X361408Y902769D01*
X361409Y902775D01*
X361414Y902786D01*
X361690Y903548D01*
X361708Y903626D01*
X361735Y903701D01*
X361737Y903724D01*
X361916Y904174D01*
X361919Y904185D01*
X361930Y904210D01*
X362053Y904552D01*
X362057Y904558D01*
X362125Y904702D01*
X362126Y904703D01*
X362425Y905457D01*
X362427Y905464D01*
X362433Y905477D01*
X362721Y906239D01*
X362740Y906315D01*
X362768Y906388D01*
X362769Y906406D01*
X362928Y906787D01*
X362931Y906799D01*
X362943Y906825D01*
X363094Y907222D01*
X363103Y907236D01*
X363174Y907379D01*
X363175Y907380D01*
X363487Y908132D01*
X363489Y908138D01*
X363495Y908151D01*
X363584Y908375D01*
X363604Y908452D01*
X363633Y908525D01*
X363639Y908574D01*
X363907Y909191D01*
X363910Y909202D01*
X363923Y909228D01*
X364176Y909866D01*
X364206Y909905D01*
X364279Y910047D01*
X364280Y910048D01*
X364376Y910270D01*
X364378Y910276D01*
X364384Y910288D01*
X364478Y910514D01*
X364499Y910590D01*
X364529Y910662D01*
X364538Y910724D01*
X364840Y911388D01*
X364844Y911401D01*
X364857Y911427D01*
X365093Y911994D01*
X365121Y912028D01*
X365197Y912170D01*
X365298Y912393D01*
X365300Y912400D01*
X365307Y912414D01*
X365410Y912650D01*
X365431Y912723D01*
X365462Y912792D01*
X365475Y912868D01*
X365784Y913513D01*
X365788Y913526D01*
X365804Y913556D01*
X366038Y914096D01*
X366071Y914136D01*
X366150Y914276D01*
X366262Y914508D01*
X366264Y914516D01*
X366272Y914531D01*
X366389Y914788D01*
X366410Y914855D01*
X366440Y914918D01*
X366457Y915006D01*
X366471Y915052D01*
X366803Y915700D01*
X366809Y915716D01*
X366829Y915753D01*
X367026Y916187D01*
X367061Y916226D01*
X367143Y916364D01*
X367271Y916614D01*
X367275Y916624D01*
X367286Y916644D01*
X367662Y917428D01*
X367684Y917493D01*
X367715Y917554D01*
X367721Y917585D01*
X367849Y917822D01*
X367856Y917838D01*
X367877Y917877D01*
X368066Y918271D01*
X368100Y918307D01*
X368186Y918444D01*
X368475Y918979D01*
X368519Y919090D01*
X368569Y919199D01*
X368576Y919238D01*
X368590Y919275D01*
X368605Y919394D01*
X368626Y919512D01*
X368623Y919551D01*
X368628Y919591D01*
X368612Y919709D01*
X368604Y919829D01*
X368591Y919867D01*
X368586Y919906D01*
X368541Y920017D01*
X368504Y920131D01*
X368482Y920164D01*
X368467Y920201D01*
X368396Y920297D01*
X368331Y920398D01*
X368302Y920425D01*
X368279Y920457D01*
X368186Y920533D01*
X368098Y920614D01*
X368063Y920633D01*
X368032Y920658D01*
X367924Y920709D01*
X367819Y920766D01*
X367780Y920775D01*
X367744Y920792D01*
X367626Y920814D01*
X367510Y920843D01*
X367470Y920843D01*
X367431Y920850D01*
X367312Y920842D01*
X367192Y920841D01*
X367134Y920829D01*
X367114Y920828D01*
X367094Y920822D01*
X367034Y920810D01*
X363937Y919990D01*
X363933Y919988D01*
X363925Y919986D01*
X360720Y919102D01*
X360716Y919100D01*
X360707Y919099D01*
X357509Y918180D01*
X357505Y918178D01*
X357496Y918176D01*
X354310Y917223D01*
X354306Y917221D01*
X354297Y917219D01*
X351125Y916231D01*
X351121Y916229D01*
X351111Y916227D01*
X347950Y915203D01*
X347946Y915201D01*
X347936Y915199D01*
X344789Y914140D01*
X344785Y914137D01*
X344775Y914135D01*
X341644Y913038D01*
X341639Y913036D01*
X341629Y913033D01*
X338510Y911899D01*
X338506Y911896D01*
X338495Y911893D01*
X335395Y910721D01*
X335391Y910719D01*
X335380Y910715D01*
X332294Y909504D01*
X332290Y909501D01*
X332279Y909498D01*
X329209Y908245D01*
X329204Y908243D01*
X329194Y908239D01*
X326660Y907169D01*
X326656Y907166D01*
X326646Y907162D01*
X323606Y905833D01*
X323601Y905830D01*
X323591Y905826D01*
X321087Y904691D01*
X321083Y904689D01*
X321072Y904684D01*
X318074Y903277D01*
X318069Y903274D01*
X318058Y903270D01*
X315589Y902069D01*
X315585Y902066D01*
X315573Y902061D01*
X312619Y900573D01*
X312614Y900570D01*
X312603Y900565D01*
X310173Y899296D01*
X310168Y899292D01*
X310156Y899287D01*
X307251Y897714D01*
X307246Y897710D01*
X307233Y897704D01*
X304845Y896363D01*
X304840Y896360D01*
X304829Y896354D01*
X302456Y894976D01*
X302451Y894972D01*
X302439Y894966D01*
X300092Y893557D01*
X300087Y893553D01*
X300075Y893546D01*
X297748Y892100D01*
X297743Y892096D01*
X297731Y892089D01*
X295432Y890610D01*
X295427Y890606D01*
X295415Y890599D01*
X293140Y889082D01*
X293135Y889077D01*
X293122Y889070D01*
X290877Y887518D01*
X290872Y887514D01*
X290859Y887506D01*
X288640Y885915D01*
X288635Y885911D01*
X288622Y885902D01*
X286440Y884279D01*
X286434Y884274D01*
X286419Y884264D01*
X283834Y882259D01*
X283828Y882253D01*
X283812Y882241D01*
X281280Y880184D01*
X281274Y880177D01*
X281257Y880165D01*
X278778Y878051D01*
X278772Y878044D01*
X278755Y878031D01*
X276332Y875860D01*
X276325Y875852D01*
X276308Y875838D01*
X273933Y873599D01*
X273928Y873592D01*
X273915Y873581D01*
X272768Y872455D01*
X272764Y872451D01*
X272756Y872443D01*
X271616Y871294D01*
X271613Y871290D01*
X271604Y871282D01*
X270477Y870114D01*
X270474Y870110D01*
X270465Y870101D01*
X269369Y868933D01*
X269364Y868926D01*
X269352Y868915D01*
X267538Y866905D01*
X267532Y866897D01*
X267518Y866882D01*
X264653Y863547D01*
X264649Y863541D01*
X264637Y863529D01*
X261827Y860129D01*
X261823Y860123D01*
X261812Y860111D01*
X259067Y856659D01*
X259063Y856652D01*
X259052Y856640D01*
X256374Y853138D01*
X256370Y853131D01*
X256359Y853118D01*
X253749Y849565D01*
X253746Y849558D01*
X253735Y849545D01*
X251196Y845943D01*
X251193Y845936D01*
X251182Y845923D01*
X248706Y842260D01*
X248704Y842254D01*
X248696Y842244D01*
X247497Y840412D01*
X247495Y840408D01*
X247490Y840401D01*
X246940Y839543D01*
X246307Y838554D01*
X246304Y838549D01*
X246297Y838540D01*
X244259Y835260D01*
X244256Y835254D01*
X244247Y835240D01*
X241987Y831449D01*
X241984Y831442D01*
X241975Y831429D01*
X240065Y828085D01*
X240062Y828078D01*
X240054Y828065D01*
X238201Y824687D01*
X238199Y824680D01*
X238190Y824666D01*
X236140Y820758D01*
X236138Y820751D01*
X236130Y820737D01*
X234404Y817293D01*
X234401Y817287D01*
X234394Y817274D01*
X232727Y813800D01*
X232725Y813793D01*
X232717Y813779D01*
X230881Y809767D01*
X230879Y809759D01*
X230871Y809744D01*
X229114Y805699D01*
X229112Y805692D01*
X229105Y805678D01*
X227633Y802113D01*
X227631Y802107D01*
X227625Y802094D01*
X226212Y798507D01*
X226210Y798500D01*
X226204Y798486D01*
X224658Y794348D01*
X224656Y794341D01*
X224650Y794326D01*
X223181Y790162D01*
X223180Y790155D01*
X223174Y790142D01*
X221954Y786482D01*
X221953Y786475D01*
X221948Y786462D01*
X220620Y782245D01*
X220619Y782238D01*
X220614Y782225D01*
X219516Y778522D01*
X219515Y778516D01*
X219510Y778503D01*
X218468Y774784D01*
X218468Y774777D01*
X218463Y774764D01*
X217338Y770484D01*
X217338Y770478D01*
X217333Y770464D01*
X216281Y766166D01*
X216280Y766160D01*
X216276Y766147D01*
X215415Y762377D01*
X215414Y762371D01*
X215411Y762360D01*
X214602Y758574D01*
X214601Y758568D01*
X214598Y758555D01*
X213737Y754209D01*
X213736Y754204D01*
X213733Y754191D01*
X213036Y750383D01*
X213035Y750377D01*
X213033Y750365D01*
X212296Y745994D01*
X212296Y745988D01*
X212293Y745975D01*
X211622Y741595D01*
X211622Y741589D01*
X211619Y741576D01*
X211011Y737183D01*
X211011Y737178D01*
X211008Y737166D01*
X210462Y732763D01*
X210462Y732757D01*
X210460Y732745D01*
X209974Y728334D01*
X209974Y728329D01*
X209972Y728317D01*
X209545Y723901D01*
X209545Y723895D01*
X209543Y723883D01*
X209131Y718901D01*
X209131Y718895D01*
X209129Y718883D01*
X208864Y715029D01*
X208865Y715022D01*
X208863Y715007D01*
X208636Y710589D01*
X208637Y710583D01*
X208635Y710570D01*
X208496Y706701D01*
X208496Y706695D01*
X208495Y706683D01*
X208384Y701685D01*
X208384Y701680D01*
X208384Y701668D01*
X208341Y696666D01*
X208342Y696661D01*
X208341Y696649D01*
X208367Y691079D01*
X208368Y691074D01*
X208367Y691064D01*
X208451Y686057D01*
X208452Y686052D01*
X208452Y686042D01*
X208611Y680470D01*
X208611Y680465D01*
X208611Y680455D01*
X208812Y675447D01*
X208813Y675442D01*
X208813Y675432D01*
X209103Y669867D01*
X209104Y669862D01*
X209104Y669853D01*
X209350Y665970D01*
X209351Y665966D01*
X209351Y665956D01*
X209680Y661522D01*
X209681Y661517D01*
X209681Y661507D01*
X210014Y657639D01*
X210015Y657633D01*
X210015Y657623D01*
X210395Y653769D01*
X210397Y653762D01*
X210398Y653749D01*
X210900Y649359D01*
X210902Y649351D01*
X210903Y649335D01*
X211412Y645529D01*
X211415Y645521D01*
X211416Y645502D01*
X211919Y642274D01*
X211921Y642265D01*
X211923Y642245D01*
X212144Y641018D01*
X212172Y640930D01*
X212190Y640839D01*
X212199Y640820D01*
X212458Y639288D01*
X212483Y639205D01*
X212499Y639120D01*
X212529Y639054D01*
X212542Y639011D01*
X212717Y637833D01*
X212720Y637821D01*
X212723Y637795D01*
X212776Y637503D01*
X212796Y637438D01*
X212807Y637371D01*
X212830Y637317D01*
X212948Y636400D01*
X212952Y636385D01*
X212956Y636350D01*
X212964Y636298D01*
X212981Y636242D01*
X212989Y636183D01*
X213027Y636090D01*
X213034Y636068D01*
X213079Y635638D01*
X213083Y635618D01*
X213090Y635558D01*
X213114Y635416D01*
X213113Y635410D01*
X213119Y635249D01*
X213160Y634860D01*
X213164Y634844D01*
X213167Y634805D01*
X213214Y634486D01*
X213228Y634438D01*
X213233Y634388D01*
X213271Y634285D01*
X213285Y634233D01*
X213311Y633859D01*
X213316Y633838D01*
X213322Y633761D01*
X213335Y633674D01*
X213335Y633672D01*
X213336Y633511D01*
X213349Y633315D01*
X213365Y633237D01*
X213370Y633158D01*
X213396Y633082D01*
X213411Y633003D01*
X213428Y632969D01*
X213441Y632633D01*
X213453Y632555D01*
X213456Y632477D01*
X213479Y632399D01*
X213493Y632319D01*
X213510Y632279D01*
X213512Y631880D01*
X213521Y631817D01*
X213520Y631753D01*
X213542Y631660D01*
X213554Y631565D01*
X213578Y631506D01*
X213593Y631443D01*
X213603Y631424D01*
X213581Y630971D01*
X213582Y630954D01*
X213580Y630938D01*
X213586Y630777D01*
X213602Y630628D01*
X213618Y630560D01*
X213624Y630489D01*
X213654Y630405D01*
X213674Y630319D01*
X213707Y630256D01*
X213730Y630190D01*
X213730Y630189D01*
X213643Y629740D01*
X213637Y629654D01*
X213622Y629570D01*
X213622Y629554D01*
X213602Y629497D01*
X213595Y629418D01*
X213578Y629340D01*
X213574Y629181D01*
X213574Y629180D01*
X213574Y629179D01*
X213586Y628851D01*
X213571Y628809D01*
X213561Y628731D01*
X213542Y628655D01*
X213533Y628494D01*
X213534Y628246D01*
X213508Y628162D01*
X213471Y628074D01*
X213461Y628011D01*
X213442Y627949D01*
X213424Y627789D01*
X213411Y627539D01*
X213388Y627512D01*
X213366Y627467D01*
X213336Y627426D01*
X213296Y627325D01*
X213248Y627227D01*
X213237Y627177D01*
X213219Y627130D01*
X213188Y626972D01*
X213150Y626665D01*
X213132Y626644D01*
X213103Y626583D01*
X211890Y625765D01*
X211836Y625718D01*
X211776Y625678D01*
X211660Y625566D01*
X210903Y624734D01*
X210788Y624714D01*
X210642Y624691D01*
X210632Y624687D01*
X210622Y624685D01*
X210485Y624623D01*
X210350Y624565D01*
X210338Y624557D01*
X210332Y624554D01*
X210320Y624544D01*
X210242Y624491D01*
X210077Y624512D01*
X210032Y624512D01*
X209989Y624520D01*
X209874Y624512D01*
X209759Y624512D01*
X209716Y624501D01*
X209671Y624498D01*
X209562Y624462D01*
X209451Y624433D01*
X209412Y624412D01*
X209370Y624397D01*
X209345Y624384D01*
X208931Y624473D01*
X208914Y624474D01*
X208898Y624479D01*
X208756Y624488D01*
X208614Y624500D01*
X208597Y624497D01*
X208580Y624498D01*
X208441Y624471D01*
X208301Y624448D01*
X208285Y624441D01*
X208269Y624438D01*
X208067Y624509D01*
X208061Y624511D01*
X208055Y624513D01*
X207905Y624545D01*
X207756Y624577D01*
X207750Y624577D01*
X207744Y624578D01*
X207583Y624581D01*
X207450Y624575D01*
X207372Y624561D01*
X207215Y624564D01*
X207185Y624562D01*
X207153Y624585D01*
X207086Y624644D01*
X206977Y624708D01*
X206965Y624717D01*
X206959Y624719D01*
X206948Y624726D01*
X206508Y624950D01*
X206430Y624978D01*
X206355Y625016D01*
X206216Y625055D01*
X206209Y625058D01*
X206206Y625058D01*
X206200Y625060D01*
X206181Y625064D01*
X206121Y625069D01*
X206063Y625083D01*
X206015Y625083D01*
X205995Y625093D01*
X205936Y625110D01*
X205917Y625118D01*
X205897Y625121D01*
X205840Y625137D01*
X205667Y625174D01*
X205666Y625175D01*
X205574Y625284D01*
X205560Y625294D01*
X205549Y625307D01*
X205454Y625371D01*
X205438Y625385D01*
X205411Y625400D01*
X205315Y625469D01*
X205300Y625475D01*
X205285Y625485D01*
X205166Y625536D01*
X205160Y625539D01*
X205156Y625540D01*
X205137Y625548D01*
X204993Y625599D01*
X204942Y625610D01*
X204847Y625651D01*
X204676Y625711D01*
X204669Y625717D01*
X204639Y625757D01*
X204553Y625825D01*
X204473Y625900D01*
X204429Y625924D01*
X204390Y625955D01*
X204247Y626029D01*
X203873Y626196D01*
X203816Y626263D01*
X203786Y626287D01*
X203775Y626299D01*
X203757Y626311D01*
X203691Y626364D01*
X203663Y626384D01*
X203652Y626390D01*
X203643Y626398D01*
X203504Y626480D01*
X203250Y626610D01*
X203192Y626666D01*
X203132Y626739D01*
X203080Y626777D01*
X203033Y626823D01*
X202899Y626912D01*
X202435Y627182D01*
X202419Y627188D01*
X202405Y627198D01*
X202377Y627209D01*
X202310Y627254D01*
X202095Y627378D01*
X202036Y627459D01*
X202022Y627470D01*
X202012Y627483D01*
X201891Y627589D01*
X201754Y627694D01*
X201735Y627705D01*
X201671Y627752D01*
X200966Y628210D01*
X200949Y628233D01*
X200831Y628342D01*
X200325Y628753D01*
X200308Y628764D01*
X200260Y628802D01*
X199495Y629346D01*
X199491Y629350D01*
X199466Y629386D01*
X199350Y629498D01*
X198882Y629896D01*
X198867Y629906D01*
X198832Y629936D01*
X198234Y630395D01*
X198204Y630413D01*
X198201Y630415D01*
X198147Y630462D01*
X198050Y630537D01*
X198045Y630544D01*
X197932Y630658D01*
X197443Y631094D01*
X197429Y631103D01*
X197399Y631131D01*
X196708Y631692D01*
X196693Y631709D01*
X196650Y631773D01*
X196587Y631827D01*
X196532Y631889D01*
X196468Y631931D01*
X196410Y631982D01*
X196348Y632014D01*
X195885Y632445D01*
X195872Y632454D01*
X195843Y632483D01*
X195375Y632880D01*
X195371Y632885D01*
X195333Y632945D01*
X195222Y633062D01*
X195018Y633252D01*
X195011Y633257D01*
X194997Y633271D01*
X194793Y633453D01*
X194734Y633494D01*
X194681Y633542D01*
X194613Y633578D01*
X194194Y633985D01*
X194181Y633994D01*
X194154Y634022D01*
X193658Y634464D01*
X193650Y634473D01*
X193612Y634535D01*
X193504Y634654D01*
X193308Y634844D01*
X193301Y634849D01*
X193289Y634862D01*
X193097Y635042D01*
X193036Y635085D01*
X192983Y635136D01*
X192923Y635169D01*
X192494Y635601D01*
X192482Y635610D01*
X192458Y635636D01*
X191963Y636097D01*
X191927Y636158D01*
X191822Y636279D01*
X191636Y636466D01*
X191630Y636471D01*
X191619Y636483D01*
X191433Y636663D01*
X191373Y636708D01*
X191320Y636761D01*
X191261Y636795D01*
X190816Y637260D01*
X190805Y637269D01*
X190783Y637294D01*
X190310Y637753D01*
X190280Y637807D01*
X190244Y637850D01*
X190237Y637860D01*
X190228Y637869D01*
X190176Y637930D01*
X189998Y638117D01*
X189992Y638122D01*
X189981Y638134D01*
X189800Y638317D01*
X189740Y638364D01*
X189687Y638418D01*
X189628Y638453D01*
X189183Y638937D01*
X189172Y638946D01*
X189150Y638972D01*
X188696Y639430D01*
X188667Y639483D01*
X188566Y639608D01*
X188392Y639797D01*
X188386Y639802D01*
X188375Y639815D01*
X188200Y639999D01*
X188140Y640047D01*
X188088Y640103D01*
X188039Y640133D01*
X187630Y640594D01*
X187619Y640603D01*
X187598Y640628D01*
X187000Y641255D01*
X186999Y641256D01*
X186265Y642109D01*
X186255Y642117D01*
X186237Y642140D01*
X185808Y642606D01*
X185755Y642651D01*
X185664Y642760D01*
X185651Y642772D01*
X185623Y642807D01*
X185529Y642909D01*
X185451Y643016D01*
X185059Y643487D01*
X185050Y643496D01*
X185032Y643518D01*
X184663Y643934D01*
X184611Y643979D01*
X184567Y644031D01*
X184556Y644039D01*
X184446Y644176D01*
X184433Y644188D01*
X184424Y644200D01*
X184420Y644206D01*
X184417Y644209D01*
X184405Y644225D01*
X184357Y644278D01*
X184311Y644344D01*
X183922Y644828D01*
X183913Y644837D01*
X183894Y644862D01*
X183526Y645290D01*
X183478Y645333D01*
X183437Y645383D01*
X183419Y645397D01*
X183309Y645538D01*
X183296Y645552D01*
X183266Y645592D01*
X183235Y645627D01*
X183196Y645685D01*
X182804Y646195D01*
X182794Y646205D01*
X182774Y646232D01*
X182412Y646667D01*
X182366Y646710D01*
X182327Y646759D01*
X182317Y646767D01*
X182244Y646865D01*
X182231Y646879D01*
X182199Y646922D01*
X182155Y646976D01*
X182103Y647056D01*
X181745Y647539D01*
X181735Y647550D01*
X181715Y647579D01*
X181085Y648364D01*
X181029Y648454D01*
X180586Y649073D01*
X180577Y649082D01*
X180559Y649108D01*
X179972Y649871D01*
X179292Y650855D01*
X179284Y650864D01*
X179268Y650888D01*
X178624Y651758D01*
X178623Y651759D01*
X178128Y652504D01*
X178119Y652514D01*
X178103Y652539D01*
X177599Y653244D01*
X177575Y653269D01*
X176984Y654193D01*
X176976Y654203D01*
X176959Y654230D01*
X176347Y655115D01*
X176330Y655151D01*
X176309Y655176D01*
X175862Y655905D01*
X175853Y655916D01*
X175836Y655945D01*
X175405Y656593D01*
X175387Y656633D01*
X175334Y656699D01*
X175289Y656770D01*
X175286Y656773D01*
X174784Y657628D01*
X174775Y657639D01*
X174759Y657670D01*
X174244Y658473D01*
X174240Y658489D01*
X174200Y658556D01*
X174169Y658626D01*
X174118Y658691D01*
X174076Y658762D01*
X174072Y658765D01*
X173725Y659386D01*
X173716Y659398D01*
X173699Y659430D01*
X173346Y660005D01*
X173308Y660071D01*
X173278Y660143D01*
X173229Y660208D01*
X173188Y660279D01*
X173182Y660285D01*
X172747Y661098D01*
X172738Y661110D01*
X172723Y661141D01*
X172387Y661713D01*
X172350Y661761D01*
X172307Y661846D01*
X172296Y661862D01*
X172271Y661910D01*
X172209Y662016D01*
X172152Y662149D01*
X171868Y662703D01*
X171860Y662714D01*
X171846Y662744D01*
X171556Y663262D01*
X171518Y663313D01*
X171489Y663369D01*
X171482Y663376D01*
X171431Y663481D01*
X171421Y663497D01*
X171398Y663544D01*
X171360Y663612D01*
X171321Y663706D01*
X171050Y664263D01*
X171042Y664275D01*
X171028Y664306D01*
X170745Y664833D01*
X170709Y664884D01*
X170681Y664941D01*
X170674Y664949D01*
X170627Y665050D01*
X170616Y665066D01*
X170594Y665116D01*
X170560Y665179D01*
X170524Y665272D01*
X170261Y665840D01*
X170253Y665852D01*
X170239Y665885D01*
X169964Y666422D01*
X169929Y666472D01*
X169903Y666528D01*
X169896Y666536D01*
X169856Y666627D01*
X169846Y666644D01*
X169824Y666696D01*
X169791Y666760D01*
X169755Y666857D01*
X169505Y667428D01*
X169497Y667441D01*
X169483Y667475D01*
X169219Y668017D01*
X169190Y668060D01*
X169161Y668129D01*
X169152Y668145D01*
X169131Y668196D01*
X169071Y668320D01*
X169019Y668470D01*
X168811Y668966D01*
X168804Y668978D01*
X168792Y669009D01*
X168760Y669078D01*
X168725Y669135D01*
X168698Y669196D01*
X168674Y669226D01*
X168573Y669479D01*
X168564Y669495D01*
X168547Y669539D01*
X168374Y669912D01*
X168367Y669962D01*
X168357Y669992D01*
X168357Y669994D01*
X168317Y670115D01*
X168311Y670128D01*
X168308Y670133D01*
X168307Y670138D01*
X168278Y670187D01*
X168269Y670205D01*
X168235Y670286D01*
X168192Y670343D01*
X168184Y670357D01*
X167961Y670941D01*
X167953Y670957D01*
X167937Y670999D01*
X167694Y671554D01*
X167681Y671640D01*
X167639Y671761D01*
X167636Y671774D01*
X167633Y671779D01*
X167628Y671792D01*
X167621Y671810D01*
X167597Y671851D01*
X167594Y671861D01*
X167585Y671875D01*
X167565Y671927D01*
X167518Y671992D01*
X167371Y672401D01*
X167363Y672418D01*
X167347Y672464D01*
X167258Y672677D01*
X167256Y672693D01*
X167212Y672847D01*
X167182Y672931D01*
X167176Y672944D01*
X167164Y672978D01*
X166966Y673472D01*
X166935Y673527D01*
X166913Y673586D01*
X166910Y673590D01*
X166882Y673675D01*
X166873Y673692D01*
X166856Y673744D01*
X166824Y673825D01*
X166794Y673934D01*
X166622Y674446D01*
X166616Y674459D01*
X166605Y674493D01*
X166575Y674572D01*
X166545Y674629D01*
X166523Y674690D01*
X166500Y674725D01*
X166421Y674970D01*
X166413Y674987D01*
X166398Y675035D01*
X166255Y675411D01*
X166252Y675465D01*
X166212Y675621D01*
X166204Y675649D01*
X166166Y675728D01*
X166139Y675811D01*
X166100Y675872D01*
X166090Y675892D01*
X165918Y676466D01*
X165911Y676483D01*
X165898Y676528D01*
X165694Y677098D01*
X165692Y677108D01*
X165686Y677196D01*
X165652Y677321D01*
X165650Y677334D01*
X165647Y677339D01*
X165644Y677352D01*
X165638Y677370D01*
X165609Y677429D01*
X165589Y677493D01*
X165560Y677539D01*
X165466Y677877D01*
X165459Y677893D01*
X165446Y677939D01*
X165340Y678255D01*
X165339Y678290D01*
X165332Y678325D01*
X165331Y678337D01*
X165318Y678389D01*
X165306Y678447D01*
X165305Y678449D01*
X165301Y678459D01*
X165299Y678470D01*
X165296Y678477D01*
X165292Y678493D01*
X165286Y678512D01*
X165259Y678570D01*
X165241Y678631D01*
X165198Y678702D01*
X165093Y679106D01*
X165086Y679123D01*
X165074Y679173D01*
X165003Y679394D01*
X165003Y679413D01*
X164972Y679571D01*
X164892Y679877D01*
X164887Y679890D01*
X164880Y679923D01*
X164789Y680225D01*
X164764Y680281D01*
X164748Y680341D01*
X164714Y680401D01*
X164641Y680711D01*
X164634Y680729D01*
X164621Y680783D01*
X164534Y681073D01*
X164535Y681113D01*
X164508Y681272D01*
X164484Y681372D01*
X164479Y681386D01*
X164471Y681422D01*
X164322Y681954D01*
X164299Y682010D01*
X164284Y682068D01*
X164271Y682092D01*
X164241Y682232D01*
X164235Y682251D01*
X164222Y682310D01*
X164215Y682335D01*
X164205Y682400D01*
X164074Y683014D01*
X164069Y683030D01*
X164061Y683069D01*
X163900Y683689D01*
X163879Y683743D01*
X163866Y683799D01*
X163864Y683804D01*
X163854Y683856D01*
X163847Y683876D01*
X163835Y683939D01*
X163818Y684004D01*
X163804Y684119D01*
X163684Y684744D01*
X163680Y684760D01*
X163673Y684799D01*
X163528Y685413D01*
X163513Y685451D01*
X163506Y685492D01*
X163502Y685507D01*
X163501Y685520D01*
X163497Y685533D01*
X163490Y685570D01*
X163458Y685705D01*
X163459Y685708D01*
X163442Y685868D01*
X163349Y686407D01*
X163345Y686422D01*
X163340Y686458D01*
X163316Y686570D01*
X163296Y686627D01*
X163285Y686686D01*
X163248Y686766D01*
X163195Y687124D01*
X163189Y687143D01*
X163181Y687201D01*
X163131Y687435D01*
X163134Y687463D01*
X163120Y687623D01*
X163065Y687991D01*
X163061Y688005D01*
X163057Y688041D01*
X162891Y688909D01*
X162873Y688964D01*
X162864Y689022D01*
X162863Y689025D01*
X162857Y689075D01*
X162852Y689095D01*
X162844Y689156D01*
X162829Y689233D01*
X162822Y689355D01*
X162769Y689784D01*
X162765Y689800D01*
X162760Y689842D01*
X162667Y690387D01*
X162672Y690435D01*
X162661Y690515D01*
X162660Y690595D01*
X162640Y690672D01*
X162629Y690750D01*
X162610Y690796D01*
X162527Y691581D01*
X162523Y691596D01*
X162520Y691635D01*
X162492Y691822D01*
X162485Y691844D01*
X162484Y691866D01*
X162473Y691900D01*
X162468Y691939D01*
X162445Y692001D01*
X162421Y692280D01*
X162416Y692300D01*
X162411Y692359D01*
X162364Y692672D01*
X162373Y692720D01*
X162369Y692881D01*
X162337Y693251D01*
X162334Y693265D01*
X162332Y693299D01*
X162222Y694188D01*
X162208Y694242D01*
X162203Y694298D01*
X162188Y694340D01*
X162179Y694507D01*
X162175Y694528D01*
X162172Y694573D01*
X162173Y694618D01*
X162140Y695195D01*
X162137Y695212D01*
X162135Y695258D01*
X162093Y695655D01*
X162102Y695699D01*
X162103Y695860D01*
X162087Y696153D01*
X162085Y696165D01*
X162084Y696191D01*
X162006Y697099D01*
X161993Y697159D01*
X161990Y697219D01*
X161965Y697296D01*
X161957Y697639D01*
X161954Y697659D01*
X161953Y697717D01*
X161930Y697976D01*
X161938Y698009D01*
X161944Y698169D01*
X161922Y699082D01*
X161920Y699094D01*
X161920Y699122D01*
X161871Y700006D01*
X161859Y700071D01*
X161856Y700137D01*
X161856Y700139D01*
X161856Y700242D01*
X161853Y700260D01*
X161854Y700309D01*
X161823Y700859D01*
X161827Y700900D01*
X161843Y700964D01*
X161853Y701124D01*
X161850Y702005D01*
X161849Y702014D01*
X161850Y702032D01*
X161807Y703808D01*
X161813Y703857D01*
X161835Y703939D01*
X161843Y704076D01*
X161844Y704087D01*
X161844Y704091D01*
X161844Y704100D01*
X161831Y708713D01*
X161813Y708850D01*
X161800Y708988D01*
X161793Y709008D01*
X161790Y709028D01*
X161739Y709157D01*
X161692Y709287D01*
X161680Y709304D01*
X161672Y709324D01*
X161590Y709435D01*
X161512Y709550D01*
X161497Y709564D01*
X161484Y709580D01*
X161378Y709668D01*
X161274Y709760D01*
X161255Y709769D01*
X161239Y709783D01*
X161114Y709841D01*
X160990Y709904D01*
X160970Y709908D01*
X160951Y709917D01*
X160815Y709943D01*
X160680Y709973D01*
X160659Y709972D01*
X160638Y709976D01*
X160499Y709967D01*
X160362Y709963D01*
X160342Y709957D01*
X160321Y709955D01*
X160189Y709912D01*
X160056Y709874D01*
X160031Y709860D01*
X160019Y709857D01*
X160001Y709845D01*
X159913Y709800D01*
X159873Y709776D01*
X159863Y709769D01*
X159839Y709756D01*
X159019Y709233D01*
X159010Y709226D01*
X158988Y709213D01*
X158162Y708652D01*
X158156Y708646D01*
X158140Y708637D01*
X157308Y708045D01*
X157302Y708040D01*
X157287Y708030D01*
X156013Y707086D01*
X156007Y707080D01*
X155992Y707070D01*
X154290Y705750D01*
X154285Y705745D01*
X154272Y705736D01*
X153020Y704730D01*
X153015Y704725D01*
X153005Y704718D01*
X151329Y703329D01*
X151324Y703324D01*
X151313Y703316D01*
X149661Y701903D01*
X149657Y701898D01*
X149647Y701890D01*
X148014Y700451D01*
X148010Y700446D01*
X148000Y700437D01*
X146393Y698976D01*
X146389Y698971D01*
X146378Y698962D01*
X146314Y698901D01*
X144964Y697632D01*
X144797Y697475D01*
X144793Y697470D01*
X144782Y697461D01*
X143627Y696339D01*
X143623Y696334D01*
X143613Y696325D01*
X141677Y694385D01*
X141673Y694380D01*
X141665Y694372D01*
X139748Y692398D01*
X139745Y692394D01*
X139737Y692386D01*
X138229Y690794D01*
X138227Y690791D01*
X138220Y690784D01*
X136726Y689173D01*
X136723Y689169D01*
X136715Y689162D01*
X134867Y687119D01*
X134864Y687114D01*
X134857Y687107D01*
X133402Y685461D01*
X133400Y685457D01*
X133394Y685451D01*
X131957Y683790D01*
X131954Y683786D01*
X131947Y683778D01*
X130168Y681672D01*
X130165Y681668D01*
X130159Y681661D01*
X128760Y679965D01*
X128758Y679962D01*
X128752Y679955D01*
X127370Y678244D01*
X127367Y678240D01*
X127360Y678233D01*
X125654Y676070D01*
X125652Y676066D01*
X125644Y676057D01*
X123965Y673872D01*
X123962Y673868D01*
X123956Y673861D01*
X122637Y672105D01*
X122635Y672101D01*
X122629Y672094D01*
X120996Y669868D01*
X120994Y669864D01*
X120988Y669856D01*
X119706Y668068D01*
X119704Y668064D01*
X119699Y668058D01*
X118435Y666257D01*
X118432Y666253D01*
X118427Y666245D01*
X116872Y663978D01*
X116869Y663972D01*
X116861Y663961D01*
X114416Y660272D01*
X114413Y660266D01*
X114405Y660255D01*
X113800Y659310D01*
X113799Y659309D01*
X112922Y657939D01*
X112920Y657934D01*
X112914Y657927D01*
X111748Y656061D01*
X111746Y656058D01*
X111742Y656051D01*
X110590Y654170D01*
X110588Y654166D01*
X110583Y654158D01*
X109174Y651800D01*
X109171Y651794D01*
X109164Y651783D01*
X106951Y647947D01*
X106949Y647941D01*
X106941Y647930D01*
X105604Y645526D01*
X105602Y645522D01*
X105597Y645515D01*
X104546Y643577D01*
X104545Y643574D01*
X104540Y643567D01*
X103507Y641621D01*
X103506Y641617D01*
X103501Y641609D01*
X102238Y639168D01*
X102236Y639162D01*
X102229Y639150D01*
X100257Y635192D01*
X100254Y635185D01*
X100246Y635170D01*
X98349Y631177D01*
X98347Y631171D01*
X98341Y631160D01*
X97198Y628657D01*
X97196Y628653D01*
X97192Y628645D01*
X96299Y626634D01*
X96298Y626629D01*
X96294Y626621D01*
X95199Y624086D01*
X95198Y624082D01*
X95194Y624074D01*
X94342Y622040D01*
X94341Y622036D01*
X94337Y622029D01*
X93505Y619991D01*
X93504Y619987D01*
X93500Y619979D01*
X92484Y617412D01*
X92483Y617407D01*
X92478Y617397D01*
X91494Y614822D01*
X91493Y614818D01*
X91489Y614810D01*
X90726Y612746D01*
X90725Y612741D01*
X90721Y612733D01*
X89789Y610131D01*
X89788Y610127D01*
X89785Y610118D01*
X89066Y608039D01*
X89065Y608035D01*
X89062Y608027D01*
X88361Y605939D01*
X88360Y605935D01*
X88357Y605926D01*
X87511Y603310D01*
X87510Y603304D01*
X87505Y603291D01*
X86213Y599066D01*
X86212Y599059D01*
X86206Y599044D01*
X85147Y595337D01*
X85146Y595330D01*
X85141Y595316D01*
X84144Y591585D01*
X84143Y591579D01*
X84140Y591568D01*
X83602Y589440D01*
X83602Y589436D01*
X83599Y589427D01*
X83084Y587297D01*
X83084Y587292D01*
X83080Y587280D01*
X82226Y583515D01*
X82226Y583508D01*
X82221Y583492D01*
X81438Y579722D01*
X81437Y579714D01*
X81433Y579699D01*
X80719Y575917D01*
X80719Y575910D01*
X80715Y575894D01*
X80073Y572101D01*
X80073Y572093D01*
X80070Y572077D01*
X79500Y568273D01*
X79500Y568265D01*
X79497Y568248D01*
X79003Y564438D01*
X79003Y564430D01*
X79000Y564413D01*
X78582Y560595D01*
X78582Y560586D01*
X78579Y560569D01*
X78239Y556741D01*
X78240Y556733D01*
X78237Y556716D01*
X78011Y553445D01*
X78011Y553437D01*
X78009Y553420D01*
X77820Y549583D01*
X77821Y549575D01*
X77819Y549557D01*
X77725Y546284D01*
X77726Y546276D01*
X77724Y546258D01*
X77694Y542421D01*
X77695Y542413D01*
X77694Y542394D01*
X77738Y539121D01*
X77740Y539113D01*
X77739Y539095D01*
X77850Y535822D01*
X77852Y535813D01*
X77852Y535795D01*
X78031Y532527D01*
X78033Y532519D01*
X78033Y532500D01*
X78282Y529240D01*
X78284Y529231D01*
X78284Y529212D01*
X78605Y525962D01*
X78607Y525953D01*
X78608Y525933D01*
X79002Y522695D01*
X79005Y522686D01*
X79006Y522665D01*
X79476Y519439D01*
X79478Y519430D01*
X79480Y519409D01*
X80026Y516198D01*
X80029Y516189D01*
X80032Y516167D01*
X80657Y512971D01*
X80660Y512962D01*
X80663Y512942D01*
X81244Y510303D01*
X81247Y510295D01*
X81250Y510276D01*
X81889Y507648D01*
X81892Y507640D01*
X81896Y507621D01*
X82593Y505010D01*
X82597Y505001D01*
X82601Y504982D01*
X83358Y502386D01*
X83361Y502378D01*
X83366Y502360D01*
X84014Y500302D01*
X84017Y500295D01*
X84020Y500281D01*
X84532Y498747D01*
X84534Y498743D01*
X84536Y498733D01*
X88607Y486960D01*
X88623Y486927D01*
X88633Y486891D01*
X88704Y486746D01*
X89252Y485786D01*
X89250Y485779D01*
X89230Y485640D01*
X89206Y485501D01*
X89207Y485482D01*
X89205Y485464D01*
X89220Y485324D01*
X89231Y485184D01*
X89238Y485159D01*
X89240Y485148D01*
X89247Y485129D01*
X89274Y485029D01*
X89277Y485022D01*
X89158Y484778D01*
X89152Y484759D01*
X89127Y484710D01*
X88659Y483582D01*
X88607Y483430D01*
X88267Y482187D01*
X88159Y482106D01*
X88148Y482091D01*
X88133Y482079D01*
X88048Y481966D01*
X87960Y481858D01*
X87953Y481840D01*
X87941Y481825D01*
X87870Y481681D01*
X82062Y467687D01*
X82061Y467685D01*
X82059Y467682D01*
X80578Y464066D01*
X80577Y464062D01*
X80573Y464054D01*
X79140Y460446D01*
X79138Y460441D01*
X79133Y460430D01*
X77555Y456296D01*
X77554Y456289D01*
X77547Y456275D01*
X76044Y452116D01*
X76043Y452109D01*
X76038Y452097D01*
X75327Y450032D01*
X75326Y450027D01*
X75322Y450018D01*
X74633Y447935D01*
X74632Y447930D01*
X74628Y447920D01*
X73966Y445836D01*
X73965Y445830D01*
X73961Y445819D01*
X73329Y443731D01*
X73329Y443726D01*
X73324Y443714D01*
X72721Y441613D01*
X72720Y441608D01*
X72717Y441597D01*
X72289Y440031D01*
X72288Y440025D01*
X72284Y440014D01*
X71739Y437905D01*
X71738Y437899D01*
X71734Y437886D01*
X71222Y435770D01*
X71221Y435764D01*
X71218Y435752D01*
X70860Y434175D01*
X70859Y434169D01*
X70856Y434157D01*
X70405Y432029D01*
X70404Y432022D01*
X70401Y432009D01*
X69984Y429876D01*
X69984Y429870D01*
X69981Y429856D01*
X69599Y427717D01*
X69598Y427711D01*
X69595Y427698D01*
X69246Y425550D01*
X69246Y425544D01*
X69243Y425532D01*
X68926Y423375D01*
X68926Y423369D01*
X68923Y423357D01*
X68637Y421196D01*
X68637Y421190D01*
X68635Y421179D01*
X68376Y419005D01*
X68376Y419000D01*
X68374Y418989D01*
X68143Y416813D01*
X68143Y416807D01*
X68142Y416796D01*
X67887Y414056D01*
X67887Y414051D01*
X67886Y414041D01*
X67709Y411853D01*
X67709Y411848D01*
X67708Y411839D01*
X67514Y409081D01*
X67515Y409077D01*
X67514Y409068D01*
X67349Y406307D01*
X67350Y406303D01*
X67349Y406295D01*
X67210Y403534D01*
X67210Y403530D01*
X67209Y403520D01*
X67014Y398519D01*
X67015Y398513D01*
X67014Y398500D01*
X66905Y394074D01*
X66906Y394067D01*
X66905Y394053D01*
X66872Y389638D01*
X66873Y389630D01*
X66872Y389614D01*
X66915Y385769D01*
X66916Y385761D01*
X66916Y385743D01*
X67036Y381898D01*
X67038Y381891D01*
X67037Y381876D01*
X67144Y379700D01*
X67145Y379695D01*
X67145Y379685D01*
X67244Y378062D01*
X67245Y378057D01*
X67245Y378046D01*
X67406Y375865D01*
X67407Y375859D01*
X67408Y375847D01*
X67548Y374245D01*
X67550Y374238D01*
X67550Y374222D01*
X67897Y370961D01*
X67899Y370952D01*
X67900Y370934D01*
X68174Y368793D01*
X68176Y368786D01*
X68177Y368773D01*
X68407Y367175D01*
X68409Y367169D01*
X68410Y367157D01*
X68663Y365560D01*
X68665Y365555D01*
X68666Y365543D01*
X68942Y363948D01*
X68944Y363942D01*
X68945Y363929D01*
X69244Y362343D01*
X69246Y362338D01*
X69248Y362325D01*
X69570Y360741D01*
X69572Y360735D01*
X69574Y360723D01*
X69919Y359146D01*
X69921Y359140D01*
X69923Y359127D01*
X70292Y357556D01*
X70294Y357551D01*
X70296Y357538D01*
X70689Y355971D01*
X70691Y355965D01*
X70694Y355953D01*
X71109Y354391D01*
X71112Y354386D01*
X71114Y354373D01*
X71553Y352819D01*
X71555Y352813D01*
X71558Y352801D01*
X72019Y351252D01*
X72021Y351246D01*
X72024Y351234D01*
X72508Y349690D01*
X72510Y349685D01*
X72513Y349673D01*
X73019Y348133D01*
X73022Y348128D01*
X73025Y348117D01*
X73551Y346586D01*
X73553Y346581D01*
X73557Y346568D01*
X74290Y344535D01*
X74294Y344528D01*
X74299Y344511D01*
X75471Y341457D01*
X75476Y341449D01*
X75482Y341430D01*
X76723Y338406D01*
X76727Y338399D01*
X76733Y338381D01*
X78042Y335373D01*
X78046Y335367D01*
X78051Y335352D01*
X79417Y332362D01*
X79421Y332356D01*
X79427Y332342D01*
X81091Y328867D01*
X81095Y328861D01*
X81101Y328847D01*
X82572Y325912D01*
X82576Y325905D01*
X82584Y325889D01*
X84111Y322991D01*
X84116Y322984D01*
X84123Y322968D01*
X85710Y320103D01*
X85715Y320096D01*
X85723Y320080D01*
X87369Y317245D01*
X87374Y317238D01*
X87382Y317223D01*
X89084Y314423D01*
X89089Y314417D01*
X89098Y314402D01*
X90857Y311635D01*
X90862Y311629D01*
X90871Y311614D01*
X92686Y308881D01*
X92691Y308875D01*
X92700Y308860D01*
X94569Y306162D01*
X94574Y306156D01*
X94583Y306142D01*
X96503Y303479D01*
X96508Y303474D01*
X96517Y303460D01*
X98489Y300830D01*
X98495Y300825D01*
X98503Y300812D01*
X100524Y298216D01*
X100529Y298211D01*
X100537Y298198D01*
X102603Y295638D01*
X102609Y295632D01*
X102618Y295620D01*
X105091Y292666D01*
X105096Y292661D01*
X105106Y292649D01*
X107264Y290161D01*
X107269Y290157D01*
X107278Y290145D01*
X109855Y287274D01*
X109860Y287270D01*
X109869Y287259D01*
X112113Y284838D01*
X112118Y284833D01*
X112127Y284823D01*
X114797Y282030D01*
X114802Y282025D01*
X114811Y282015D01*
X117525Y279264D01*
X117530Y279260D01*
X117539Y279250D01*
X120298Y276535D01*
X120302Y276531D01*
X120310Y276523D01*
X123110Y273844D01*
X123114Y273841D01*
X123122Y273832D01*
X125957Y271191D01*
X125961Y271188D01*
X125969Y271179D01*
X129260Y268195D01*
X129264Y268192D01*
X129271Y268185D01*
X131760Y265980D01*
X131764Y265977D01*
X131769Y265972D01*
X134285Y263786D01*
X134288Y263783D01*
X134293Y263778D01*
X136827Y261617D01*
X136831Y261614D01*
X136838Y261607D01*
X145211Y254629D01*
X145281Y254584D01*
X145344Y254531D01*
X145414Y254499D01*
X145479Y254457D01*
X145494Y254452D01*
X146794Y253310D01*
X146802Y253304D01*
X146819Y253288D01*
X148026Y252283D01*
X148059Y251769D01*
X148088Y251616D01*
X148118Y251459D01*
X148119Y251458D01*
X148119Y251457D01*
X148187Y251313D01*
X148253Y251171D01*
X148254Y251170D01*
X148255Y251169D01*
X148256Y251168D01*
X148304Y251102D01*
X148207Y250065D01*
X148208Y250028D01*
X148202Y249993D01*
X148207Y249832D01*
X148286Y248961D01*
X148282Y248951D01*
X148277Y248869D01*
X148261Y248787D01*
X148262Y248640D01*
X148261Y248634D01*
X148262Y248631D01*
X148262Y248626D01*
X148267Y248534D01*
X148226Y248472D01*
X148136Y248340D01*
X148135Y248339D01*
X148135Y248338D01*
X148081Y248187D01*
X148028Y248041D01*
X148028Y248040D01*
X148027Y248039D01*
X148027Y248037D01*
X148003Y247882D01*
X146062Y227114D01*
X146062Y227110D01*
X146061Y227101D01*
X145831Y224350D01*
X145832Y224345D01*
X145830Y224334D01*
X145596Y221024D01*
X145596Y221019D01*
X145595Y221009D01*
X145466Y218814D01*
X145466Y218810D01*
X145465Y218801D01*
X145331Y216053D01*
X145332Y216047D01*
X145330Y216034D01*
X145180Y211604D01*
X145180Y211598D01*
X145179Y211585D01*
X145126Y208832D01*
X145127Y208828D01*
X145126Y208819D01*
X145106Y206626D01*
X145106Y206621D01*
X145106Y206609D01*
X145125Y202172D01*
X145126Y202166D01*
X145125Y202154D01*
X145177Y199404D01*
X145177Y199400D01*
X145177Y199390D01*
X145260Y196631D01*
X145261Y196627D01*
X145260Y196617D01*
X145374Y193857D01*
X145374Y193853D01*
X145374Y193843D01*
X145518Y191088D01*
X145519Y191083D01*
X145519Y191074D01*
X145694Y188319D01*
X145695Y188315D01*
X145695Y188306D01*
X145900Y185549D01*
X145901Y185545D01*
X145901Y185535D01*
X146136Y182786D01*
X146137Y182782D01*
X146138Y182773D01*
X146348Y180576D01*
X146349Y180572D01*
X146349Y180564D01*
X146579Y178374D01*
X146580Y178370D01*
X146580Y178361D01*
X146896Y175617D01*
X146897Y175612D01*
X146898Y175601D01*
X147318Y172308D01*
X147319Y172304D01*
X147320Y172294D01*
X147623Y170116D01*
X147624Y170112D01*
X147624Y170105D01*
X147948Y167922D01*
X147949Y167918D01*
X147950Y167910D01*
X148383Y165183D01*
X148384Y165178D01*
X148385Y165168D01*
X148849Y162448D01*
X148850Y162443D01*
X148852Y162434D01*
X149346Y159718D01*
X149348Y159713D01*
X149349Y159704D01*
X149766Y157542D01*
X149768Y157538D01*
X149769Y157529D01*
X150320Y154826D01*
X150322Y154822D01*
X150323Y154812D01*
X150907Y152116D01*
X150908Y152111D01*
X150910Y152101D01*
X151523Y149415D01*
X151525Y149411D01*
X151527Y149400D01*
X152174Y146721D01*
X152176Y146716D01*
X152178Y146707D01*
X152856Y144037D01*
X152858Y144032D01*
X152860Y144021D01*
X153571Y141361D01*
X153573Y141357D01*
X153575Y141346D01*
X154319Y138694D01*
X154321Y138689D01*
X154323Y138678D01*
X155100Y136036D01*
X155102Y136031D01*
X155104Y136022D01*
X155748Y133921D01*
X155750Y133917D01*
X155752Y133907D01*
X156590Y131285D01*
X156592Y131281D01*
X156595Y131270D01*
X157466Y128656D01*
X157468Y128651D01*
X157471Y128641D01*
X158189Y126572D01*
X158191Y126567D01*
X158194Y126557D01*
X159128Y123969D01*
X159130Y123964D01*
X159133Y123953D01*
X160101Y121377D01*
X160104Y121373D01*
X160107Y121362D01*
X160904Y119320D01*
X160906Y119316D01*
X160909Y119307D01*
X161730Y117272D01*
X161732Y117268D01*
X161736Y117257D01*
X162795Y114724D01*
X162798Y114719D01*
X162803Y114707D01*
X163899Y112190D01*
X163902Y112185D01*
X163906Y112175D01*
X164806Y110181D01*
X164809Y110177D01*
X164813Y110166D01*
X165976Y107678D01*
X165980Y107673D01*
X165984Y107662D01*
X166937Y105696D01*
X166940Y105692D01*
X166945Y105682D01*
X167925Y103724D01*
X167928Y103719D01*
X167933Y103709D01*
X168934Y101771D01*
X168938Y101766D01*
X168943Y101755D01*
X170238Y99337D01*
X170242Y99332D01*
X170247Y99320D01*
X171305Y97413D01*
X171309Y97409D01*
X171314Y97398D01*
X172400Y95504D01*
X172403Y95499D01*
X172409Y95489D01*
X173517Y93616D01*
X173521Y93611D01*
X173528Y93599D01*
X174958Y91267D01*
X174962Y91262D01*
X174969Y91249D01*
X176136Y89416D01*
X176140Y89411D01*
X176146Y89400D01*
X177344Y87579D01*
X177348Y87574D01*
X177354Y87564D01*
X178578Y85760D01*
X178582Y85755D01*
X178588Y85745D01*
X179838Y83958D01*
X179842Y83953D01*
X179848Y83943D01*
X181124Y82174D01*
X181128Y82170D01*
X181135Y82159D01*
X182435Y80409D01*
X182439Y80405D01*
X182446Y80395D01*
X183772Y78662D01*
X183776Y78658D01*
X183783Y78648D01*
X185133Y76936D01*
X185137Y76932D01*
X185144Y76922D01*
X186519Y75228D01*
X186523Y75224D01*
X186530Y75214D01*
X187928Y73541D01*
X187932Y73537D01*
X187940Y73527D01*
X189363Y71871D01*
X189368Y71867D01*
X189375Y71858D01*
X190820Y70224D01*
X190825Y70220D01*
X190832Y70210D01*
X192301Y68597D01*
X192305Y68593D01*
X192313Y68584D01*
X193804Y66990D01*
X193808Y66986D01*
X193816Y66977D01*
X195330Y65404D01*
X195335Y65400D01*
X195342Y65391D01*
X196880Y63837D01*
X196884Y63834D01*
X196891Y63826D01*
X198051Y62681D01*
X198055Y62678D01*
X198062Y62670D01*
X199638Y61152D01*
X199642Y61148D01*
X199650Y61140D01*
X201244Y59645D01*
X201249Y59642D01*
X201257Y59634D01*
X202870Y58162D01*
X202874Y58159D01*
X202883Y58150D01*
X204516Y56700D01*
X204521Y56696D01*
X204529Y56688D01*
X206183Y55259D01*
X206188Y55256D01*
X206196Y55248D01*
X207868Y53841D01*
X207872Y53838D01*
X207881Y53831D01*
X209572Y52446D01*
X209577Y52443D01*
X209585Y52435D01*
X211297Y51072D01*
X211301Y51069D01*
X211310Y51061D01*
X213034Y49724D01*
X213039Y49721D01*
X213048Y49713D01*
X215240Y48063D01*
X215245Y48060D01*
X215255Y48052D01*
X217019Y46763D01*
X217024Y46761D01*
X217032Y46754D01*
X218815Y45486D01*
X218820Y45484D01*
X218829Y45477D01*
X220629Y44231D01*
X220633Y44228D01*
X220642Y44222D01*
X222458Y42999D01*
X222463Y42997D01*
X222471Y42990D01*
X224300Y41792D01*
X224305Y41789D01*
X224315Y41782D01*
X226633Y40308D01*
X226638Y40306D01*
X226648Y40299D01*
X228510Y39151D01*
X228515Y39148D01*
X228523Y39142D01*
X230402Y38015D01*
X230407Y38013D01*
X230416Y38007D01*
X232306Y36904D01*
X232311Y36902D01*
X232321Y36896D01*
X234713Y35543D01*
X234718Y35541D01*
X234727Y35535D01*
X236647Y34481D01*
X236652Y34480D01*
X236660Y34474D01*
X238598Y33441D01*
X238603Y33439D01*
X238611Y33434D01*
X240555Y32427D01*
X240560Y32425D01*
X240569Y32419D01*
X243029Y31184D01*
X243034Y31183D01*
X243044Y31177D01*
X245014Y30219D01*
X245019Y30218D01*
X245028Y30213D01*
X247011Y29277D01*
X247016Y29275D01*
X247025Y29270D01*
X249529Y28126D01*
X249534Y28125D01*
X249543Y28120D01*
X251551Y27232D01*
X251555Y27231D01*
X251564Y27227D01*
X253584Y26361D01*
X253588Y26359D01*
X253597Y26355D01*
X255629Y25510D01*
X255632Y25509D01*
X255639Y25506D01*
X257160Y24889D01*
X257164Y24888D01*
X257173Y24884D01*
X259741Y23876D01*
X259746Y23875D01*
X259755Y23870D01*
X261804Y23094D01*
X261809Y23092D01*
X261818Y23088D01*
X264409Y22141D01*
X264414Y22140D01*
X264423Y22136D01*
X266495Y21406D01*
X266499Y21405D01*
X266508Y21401D01*
X268590Y20692D01*
X268595Y20691D01*
X268603Y20687D01*
X271223Y19827D01*
X271228Y19826D01*
X271237Y19822D01*
X273332Y19161D01*
X273336Y19160D01*
X273345Y19157D01*
X275986Y18354D01*
X275991Y18354D01*
X276000Y18350D01*
X278110Y17736D01*
X278114Y17735D01*
X278122Y17732D01*
X280783Y16988D01*
X280788Y16987D01*
X280797Y16984D01*
X282910Y16418D01*
X282916Y16417D01*
X282927Y16413D01*
X287227Y15326D01*
X287233Y15325D01*
X287245Y15321D01*
X289377Y14814D01*
X289382Y14814D01*
X289390Y14811D01*
X292083Y14200D01*
X292088Y14199D01*
X292097Y14196D01*
X294796Y13617D01*
X294801Y13616D01*
X294809Y13614D01*
X296967Y13173D01*
X296971Y13173D01*
X296979Y13171D01*
X299692Y12645D01*
X299696Y12645D01*
X299706Y12643D01*
X302407Y12150D01*
X302413Y12149D01*
X302428Y12146D01*
X305111Y11703D01*
X305120Y11703D01*
X305138Y11699D01*
X307819Y11317D01*
X307827Y11317D01*
X307845Y11314D01*
X310539Y10987D01*
X310547Y10987D01*
X310564Y10984D01*
X313265Y10710D01*
X313274Y10710D01*
X313291Y10708D01*
X316557Y10444D01*
X316565Y10444D01*
X316582Y10442D01*
X319298Y10277D01*
X319306Y10277D01*
X319322Y10276D01*
X322606Y10136D01*
X322613Y10137D01*
X322628Y10135D01*
X325360Y10068D01*
X325366Y10069D01*
X325379Y10068D01*
X328113Y10042D01*
X328120Y10043D01*
X328135Y10042D01*
X331985Y10074D01*
G37*
%LPC*%
G36*
X355305Y128015D02*
X355305Y128015D01*
X351944Y129407D01*
X349371Y131980D01*
X347979Y135341D01*
X347979Y154219D01*
X349371Y157580D01*
X351944Y160153D01*
X353546Y160816D01*
X353571Y160831D01*
X353599Y160840D01*
X353709Y160909D01*
X353822Y160974D01*
X353843Y160994D01*
X353868Y161010D01*
X353957Y161105D01*
X354050Y161195D01*
X354066Y161220D01*
X354086Y161242D01*
X354149Y161355D01*
X354217Y161466D01*
X354225Y161494D01*
X354240Y161520D01*
X354272Y161646D01*
X354310Y161770D01*
X354312Y161799D01*
X354319Y161828D01*
X354329Y161989D01*
X354329Y172354D01*
X378141Y196165D01*
X433867Y196165D01*
X433896Y196169D01*
X433926Y196167D01*
X434054Y196189D01*
X434182Y196205D01*
X434210Y196216D01*
X434239Y196221D01*
X434357Y196274D01*
X434478Y196322D01*
X434502Y196339D01*
X434529Y196352D01*
X434630Y196433D01*
X434735Y196509D01*
X434754Y196532D01*
X434777Y196550D01*
X434855Y196654D01*
X434938Y196754D01*
X434951Y196781D01*
X434969Y196804D01*
X435039Y196949D01*
X436895Y201428D01*
X440896Y205430D01*
X446124Y207595D01*
X451784Y207595D01*
X457012Y205430D01*
X461013Y201428D01*
X463179Y196200D01*
X463179Y190541D01*
X461013Y185313D01*
X457012Y181311D01*
X451784Y179146D01*
X446124Y179146D01*
X440896Y181311D01*
X436895Y185313D01*
X435039Y189792D01*
X435025Y189818D01*
X435016Y189846D01*
X434946Y189956D01*
X434882Y190068D01*
X434861Y190090D01*
X434846Y190115D01*
X434751Y190204D01*
X434661Y190297D01*
X434635Y190312D01*
X434614Y190333D01*
X434500Y190395D01*
X434389Y190463D01*
X434361Y190472D01*
X434335Y190486D01*
X434210Y190519D01*
X434086Y190557D01*
X434056Y190558D01*
X434027Y190566D01*
X433867Y190576D01*
X380982Y190576D01*
X380884Y190563D01*
X380785Y190560D01*
X380726Y190544D01*
X380666Y190536D01*
X380574Y190499D01*
X380479Y190472D01*
X380427Y190441D01*
X380371Y190419D01*
X380291Y190361D01*
X380205Y190310D01*
X380130Y190244D01*
X380113Y190232D01*
X380106Y190223D01*
X380084Y190204D01*
X360290Y170410D01*
X360230Y170332D01*
X360162Y170260D01*
X360133Y170207D01*
X360096Y170159D01*
X360056Y170068D01*
X360008Y169981D01*
X359993Y169923D01*
X359969Y169867D01*
X359954Y169769D01*
X359929Y169673D01*
X359923Y169573D01*
X359919Y169553D01*
X359921Y169541D01*
X359919Y169513D01*
X359919Y161989D01*
X359922Y161959D01*
X359920Y161930D01*
X359942Y161802D01*
X359959Y161673D01*
X359969Y161646D01*
X359974Y161617D01*
X360028Y161498D01*
X360076Y161377D01*
X360093Y161354D01*
X360105Y161327D01*
X360186Y161225D01*
X360262Y161120D01*
X360285Y161101D01*
X360304Y161078D01*
X360407Y161000D01*
X360507Y160917D01*
X360534Y160905D01*
X360558Y160887D01*
X360702Y160816D01*
X362304Y160153D01*
X364877Y157580D01*
X366269Y154219D01*
X366269Y135341D01*
X364877Y131980D01*
X362304Y129407D01*
X358943Y128015D01*
X355305Y128015D01*
G37*
%LPD*%
%LPC*%
G36*
X876877Y572261D02*
X876877Y572261D01*
X875537Y573601D01*
X875537Y579228D01*
X875535Y579248D01*
X875537Y579268D01*
X875515Y579405D01*
X875497Y579544D01*
X875490Y579562D01*
X875487Y579582D01*
X875432Y579710D01*
X875380Y579839D01*
X875369Y579856D01*
X875361Y579874D01*
X875276Y579984D01*
X875194Y580097D01*
X875178Y580110D01*
X875166Y580125D01*
X875056Y580210D01*
X874949Y580300D01*
X874931Y580308D01*
X874915Y580320D01*
X874787Y580376D01*
X874661Y580435D01*
X874641Y580439D01*
X874623Y580447D01*
X874485Y580469D01*
X874349Y580495D01*
X874329Y580494D01*
X874309Y580497D01*
X874170Y580484D01*
X874031Y580475D01*
X874012Y580469D01*
X873992Y580467D01*
X873861Y580420D01*
X873729Y580377D01*
X873712Y580366D01*
X873693Y580360D01*
X873578Y580282D01*
X873460Y580207D01*
X873446Y580192D01*
X873430Y580181D01*
X873338Y580077D01*
X873242Y579975D01*
X873232Y579958D01*
X873219Y579943D01*
X873137Y579804D01*
X872250Y578064D01*
X871122Y576511D01*
X869765Y575154D01*
X868212Y574026D01*
X866502Y573155D01*
X864677Y572561D01*
X863853Y572431D01*
X863853Y593344D01*
X863838Y593462D01*
X863831Y593581D01*
X863818Y593619D01*
X863813Y593659D01*
X863770Y593770D01*
X863733Y593883D01*
X863711Y593917D01*
X863696Y593955D01*
X863627Y594051D01*
X863593Y594103D01*
X863610Y594121D01*
X863630Y594156D01*
X863655Y594188D01*
X863706Y594295D01*
X863764Y594400D01*
X863774Y594439D01*
X863791Y594475D01*
X863813Y594592D01*
X863843Y594708D01*
X863847Y594768D01*
X863851Y594788D01*
X863849Y594808D01*
X863853Y594868D01*
X863853Y615781D01*
X864677Y615651D01*
X866502Y615057D01*
X868212Y614186D01*
X869765Y613058D01*
X871122Y611701D01*
X872250Y610148D01*
X873137Y608408D01*
X873148Y608391D01*
X873156Y608373D01*
X873237Y608260D01*
X873316Y608145D01*
X873331Y608131D01*
X873342Y608115D01*
X873450Y608026D01*
X873554Y607934D01*
X873572Y607925D01*
X873587Y607912D01*
X873714Y607853D01*
X873838Y607790D01*
X873857Y607785D01*
X873875Y607777D01*
X874012Y607751D01*
X874148Y607720D01*
X874168Y607721D01*
X874188Y607717D01*
X874327Y607726D01*
X874466Y607730D01*
X874485Y607736D01*
X874505Y607737D01*
X874637Y607780D01*
X874771Y607819D01*
X874789Y607829D01*
X874807Y607835D01*
X874925Y607910D01*
X875045Y607980D01*
X875059Y607994D01*
X875076Y608005D01*
X875172Y608107D01*
X875270Y608205D01*
X875280Y608222D01*
X875294Y608237D01*
X875361Y608359D01*
X875432Y608479D01*
X875438Y608498D01*
X875448Y608515D01*
X875482Y608650D01*
X875521Y608784D01*
X875522Y608804D01*
X875527Y608823D01*
X875537Y608984D01*
X875537Y613595D01*
X876877Y614935D01*
X897567Y614935D01*
X898907Y613595D01*
X898907Y573601D01*
X897567Y572261D01*
X876877Y572261D01*
G37*
%LPD*%
%LPC*%
G36*
X702633Y734821D02*
X702633Y734821D01*
X701293Y736161D01*
X701293Y741788D01*
X701291Y741808D01*
X701293Y741828D01*
X701271Y741965D01*
X701253Y742104D01*
X701246Y742122D01*
X701243Y742142D01*
X701188Y742270D01*
X701136Y742399D01*
X701125Y742416D01*
X701117Y742434D01*
X701032Y742544D01*
X700950Y742657D01*
X700934Y742670D01*
X700922Y742685D01*
X700812Y742770D01*
X700705Y742860D01*
X700687Y742868D01*
X700671Y742880D01*
X700543Y742936D01*
X700417Y742995D01*
X700397Y742999D01*
X700379Y743007D01*
X700241Y743029D01*
X700105Y743055D01*
X700085Y743054D01*
X700065Y743057D01*
X699926Y743044D01*
X699787Y743035D01*
X699768Y743029D01*
X699748Y743027D01*
X699617Y742980D01*
X699485Y742937D01*
X699468Y742926D01*
X699449Y742920D01*
X699334Y742842D01*
X699216Y742767D01*
X699202Y742752D01*
X699186Y742741D01*
X699094Y742637D01*
X698998Y742535D01*
X698988Y742518D01*
X698975Y742503D01*
X698893Y742364D01*
X698006Y740624D01*
X696878Y739071D01*
X695521Y737714D01*
X693968Y736586D01*
X692258Y735715D01*
X690433Y735121D01*
X689609Y734991D01*
X689609Y755904D01*
X689594Y756022D01*
X689587Y756141D01*
X689574Y756179D01*
X689569Y756219D01*
X689526Y756330D01*
X689489Y756443D01*
X689467Y756477D01*
X689452Y756515D01*
X689383Y756611D01*
X689349Y756663D01*
X689366Y756681D01*
X689386Y756716D01*
X689411Y756748D01*
X689462Y756855D01*
X689520Y756960D01*
X689530Y756999D01*
X689547Y757035D01*
X689569Y757152D01*
X689599Y757268D01*
X689603Y757328D01*
X689607Y757348D01*
X689605Y757368D01*
X689609Y757428D01*
X689609Y778341D01*
X690433Y778211D01*
X692258Y777617D01*
X693968Y776746D01*
X695521Y775618D01*
X696878Y774261D01*
X698006Y772708D01*
X698893Y770968D01*
X698904Y770951D01*
X698912Y770933D01*
X698993Y770820D01*
X699072Y770705D01*
X699087Y770691D01*
X699098Y770675D01*
X699206Y770586D01*
X699310Y770494D01*
X699328Y770485D01*
X699343Y770472D01*
X699470Y770413D01*
X699594Y770350D01*
X699613Y770345D01*
X699631Y770337D01*
X699768Y770311D01*
X699904Y770280D01*
X699924Y770281D01*
X699944Y770277D01*
X700083Y770286D01*
X700222Y770290D01*
X700241Y770296D01*
X700261Y770297D01*
X700393Y770340D01*
X700527Y770379D01*
X700545Y770389D01*
X700563Y770395D01*
X700681Y770470D01*
X700801Y770540D01*
X700815Y770554D01*
X700832Y770565D01*
X700928Y770667D01*
X701026Y770765D01*
X701036Y770782D01*
X701050Y770797D01*
X701117Y770919D01*
X701188Y771039D01*
X701194Y771058D01*
X701204Y771075D01*
X701238Y771210D01*
X701277Y771344D01*
X701278Y771364D01*
X701283Y771383D01*
X701293Y771544D01*
X701293Y776155D01*
X702633Y777495D01*
X723323Y777495D01*
X724663Y776155D01*
X724663Y736161D01*
X723323Y734821D01*
X702633Y734821D01*
G37*
%LPD*%
%LPC*%
G36*
X291407Y756411D02*
X291407Y756411D01*
X290067Y757751D01*
X290067Y763378D01*
X290065Y763398D01*
X290067Y763418D01*
X290045Y763555D01*
X290027Y763694D01*
X290020Y763712D01*
X290017Y763732D01*
X289962Y763860D01*
X289910Y763989D01*
X289899Y764006D01*
X289891Y764024D01*
X289806Y764134D01*
X289724Y764247D01*
X289708Y764260D01*
X289696Y764275D01*
X289586Y764360D01*
X289479Y764450D01*
X289461Y764458D01*
X289445Y764470D01*
X289317Y764526D01*
X289191Y764585D01*
X289171Y764589D01*
X289153Y764597D01*
X289015Y764619D01*
X288879Y764645D01*
X288859Y764644D01*
X288839Y764647D01*
X288700Y764634D01*
X288561Y764625D01*
X288542Y764619D01*
X288522Y764617D01*
X288391Y764570D01*
X288259Y764527D01*
X288242Y764516D01*
X288223Y764510D01*
X288108Y764432D01*
X287990Y764357D01*
X287976Y764342D01*
X287960Y764331D01*
X287868Y764227D01*
X287772Y764125D01*
X287762Y764108D01*
X287749Y764093D01*
X287667Y763954D01*
X286780Y762214D01*
X285652Y760661D01*
X284295Y759304D01*
X282742Y758176D01*
X281032Y757305D01*
X279207Y756711D01*
X278383Y756581D01*
X278383Y777494D01*
X278368Y777612D01*
X278361Y777731D01*
X278348Y777769D01*
X278343Y777809D01*
X278300Y777920D01*
X278263Y778033D01*
X278241Y778067D01*
X278226Y778105D01*
X278157Y778201D01*
X278123Y778253D01*
X278140Y778271D01*
X278160Y778306D01*
X278185Y778338D01*
X278236Y778445D01*
X278294Y778550D01*
X278304Y778589D01*
X278321Y778625D01*
X278343Y778742D01*
X278373Y778858D01*
X278377Y778918D01*
X278381Y778938D01*
X278379Y778958D01*
X278383Y779018D01*
X278383Y799931D01*
X279207Y799801D01*
X281032Y799207D01*
X282742Y798336D01*
X284295Y797208D01*
X285652Y795851D01*
X286780Y794298D01*
X287667Y792558D01*
X287678Y792541D01*
X287686Y792523D01*
X287767Y792410D01*
X287846Y792295D01*
X287861Y792281D01*
X287872Y792265D01*
X287980Y792176D01*
X288084Y792084D01*
X288102Y792075D01*
X288117Y792062D01*
X288244Y792003D01*
X288368Y791940D01*
X288387Y791935D01*
X288405Y791927D01*
X288542Y791901D01*
X288678Y791870D01*
X288698Y791871D01*
X288718Y791867D01*
X288857Y791876D01*
X288996Y791880D01*
X289015Y791886D01*
X289035Y791887D01*
X289167Y791930D01*
X289301Y791969D01*
X289319Y791979D01*
X289337Y791985D01*
X289455Y792060D01*
X289575Y792130D01*
X289589Y792144D01*
X289606Y792155D01*
X289702Y792257D01*
X289800Y792355D01*
X289810Y792372D01*
X289824Y792387D01*
X289891Y792509D01*
X289962Y792629D01*
X289968Y792648D01*
X289978Y792665D01*
X290012Y792800D01*
X290051Y792934D01*
X290052Y792954D01*
X290057Y792973D01*
X290064Y793087D01*
X290065Y793089D01*
X290065Y793091D01*
X290067Y793134D01*
X290067Y797745D01*
X291407Y799085D01*
X312097Y799085D01*
X313437Y797745D01*
X313437Y757751D01*
X312097Y756411D01*
X291407Y756411D01*
G37*
%LPD*%
%LPC*%
G36*
X142563Y553973D02*
X142563Y553973D01*
X141223Y555313D01*
X141223Y560940D01*
X141221Y560960D01*
X141223Y560980D01*
X141203Y561106D01*
X141201Y561134D01*
X141197Y561144D01*
X141183Y561256D01*
X141176Y561274D01*
X141173Y561294D01*
X141118Y561422D01*
X141066Y561551D01*
X141055Y561568D01*
X141047Y561586D01*
X140961Y561696D01*
X140880Y561809D01*
X140864Y561821D01*
X140852Y561837D01*
X140742Y561923D01*
X140635Y562012D01*
X140616Y562020D01*
X140601Y562032D01*
X140473Y562088D01*
X140347Y562147D01*
X140327Y562151D01*
X140309Y562159D01*
X140171Y562181D01*
X140035Y562207D01*
X140015Y562206D01*
X139995Y562209D01*
X139856Y562196D01*
X139717Y562187D01*
X139698Y562181D01*
X139678Y562179D01*
X139547Y562132D01*
X139415Y562089D01*
X139398Y562078D01*
X139379Y562072D01*
X139264Y561994D01*
X139146Y561919D01*
X139132Y561904D01*
X139116Y561893D01*
X139024Y561789D01*
X138928Y561687D01*
X138918Y561670D01*
X138905Y561655D01*
X138823Y561516D01*
X137936Y559776D01*
X136808Y558223D01*
X135451Y556866D01*
X133898Y555738D01*
X132188Y554867D01*
X130363Y554273D01*
X129539Y554143D01*
X129539Y575056D01*
X129524Y575174D01*
X129517Y575293D01*
X129504Y575331D01*
X129499Y575371D01*
X129456Y575482D01*
X129419Y575595D01*
X129397Y575629D01*
X129382Y575667D01*
X129313Y575763D01*
X129279Y575815D01*
X129296Y575833D01*
X129316Y575868D01*
X129341Y575900D01*
X129392Y576007D01*
X129450Y576112D01*
X129460Y576151D01*
X129477Y576187D01*
X129499Y576304D01*
X129529Y576420D01*
X129533Y576480D01*
X129537Y576500D01*
X129535Y576520D01*
X129539Y576580D01*
X129539Y597493D01*
X130363Y597363D01*
X132188Y596769D01*
X133898Y595898D01*
X135451Y594770D01*
X136808Y593413D01*
X137936Y591860D01*
X138823Y590120D01*
X138834Y590103D01*
X138842Y590085D01*
X138923Y589972D01*
X139002Y589857D01*
X139017Y589843D01*
X139028Y589827D01*
X139136Y589738D01*
X139240Y589646D01*
X139258Y589637D01*
X139273Y589624D01*
X139399Y589565D01*
X139524Y589502D01*
X139543Y589497D01*
X139561Y589489D01*
X139698Y589463D01*
X139834Y589432D01*
X139854Y589433D01*
X139874Y589429D01*
X140012Y589438D01*
X140152Y589442D01*
X140171Y589448D01*
X140191Y589449D01*
X140323Y589492D01*
X140457Y589531D01*
X140475Y589541D01*
X140493Y589547D01*
X140611Y589622D01*
X140731Y589692D01*
X140745Y589706D01*
X140762Y589717D01*
X140858Y589819D01*
X140956Y589917D01*
X140966Y589934D01*
X140980Y589949D01*
X141047Y590071D01*
X141118Y590191D01*
X141124Y590210D01*
X141134Y590227D01*
X141168Y590362D01*
X141207Y590496D01*
X141208Y590516D01*
X141213Y590535D01*
X141223Y590696D01*
X141223Y595307D01*
X142563Y596647D01*
X163253Y596647D01*
X164593Y595307D01*
X164593Y555313D01*
X163253Y553973D01*
X142563Y553973D01*
G37*
%LPD*%
%LPC*%
G36*
X479113Y811021D02*
X479113Y811021D01*
X477773Y812361D01*
X477773Y817988D01*
X477771Y818008D01*
X477773Y818028D01*
X477751Y818166D01*
X477733Y818304D01*
X477726Y818322D01*
X477723Y818342D01*
X477668Y818470D01*
X477616Y818599D01*
X477605Y818616D01*
X477597Y818634D01*
X477511Y818744D01*
X477430Y818857D01*
X477414Y818869D01*
X477402Y818885D01*
X477292Y818971D01*
X477185Y819060D01*
X477166Y819068D01*
X477151Y819080D01*
X477023Y819136D01*
X476897Y819195D01*
X476877Y819199D01*
X476859Y819207D01*
X476721Y819229D01*
X476585Y819255D01*
X476565Y819254D01*
X476545Y819257D01*
X476406Y819244D01*
X476267Y819235D01*
X476248Y819229D01*
X476228Y819227D01*
X476097Y819180D01*
X475965Y819137D01*
X475948Y819126D01*
X475929Y819120D01*
X475814Y819042D01*
X475696Y818967D01*
X475682Y818952D01*
X475666Y818941D01*
X475574Y818837D01*
X475478Y818735D01*
X475468Y818718D01*
X475455Y818703D01*
X475373Y818564D01*
X474486Y816824D01*
X473358Y815271D01*
X472001Y813914D01*
X470448Y812786D01*
X468738Y811915D01*
X466913Y811321D01*
X466089Y811191D01*
X466089Y832104D01*
X466074Y832222D01*
X466067Y832341D01*
X466054Y832379D01*
X466049Y832419D01*
X466006Y832530D01*
X465969Y832643D01*
X465947Y832677D01*
X465932Y832715D01*
X465863Y832811D01*
X465829Y832863D01*
X465846Y832881D01*
X465866Y832916D01*
X465891Y832948D01*
X465942Y833055D01*
X466000Y833160D01*
X466010Y833199D01*
X466027Y833235D01*
X466049Y833352D01*
X466079Y833468D01*
X466083Y833528D01*
X466087Y833548D01*
X466085Y833568D01*
X466089Y833628D01*
X466089Y854541D01*
X466913Y854411D01*
X468738Y853817D01*
X470448Y852946D01*
X472001Y851818D01*
X473358Y850461D01*
X474486Y848908D01*
X475373Y847168D01*
X475384Y847151D01*
X475392Y847133D01*
X475465Y847032D01*
X475524Y846939D01*
X475537Y846927D01*
X475552Y846905D01*
X475567Y846891D01*
X475578Y846875D01*
X475686Y846786D01*
X475687Y846786D01*
X475755Y846721D01*
X475767Y846714D01*
X475790Y846694D01*
X475808Y846685D01*
X475823Y846672D01*
X475949Y846613D01*
X475975Y846600D01*
X476034Y846568D01*
X476043Y846565D01*
X476074Y846550D01*
X476093Y846545D01*
X476111Y846537D01*
X476248Y846511D01*
X476298Y846500D01*
X476342Y846488D01*
X476351Y846488D01*
X476384Y846480D01*
X476404Y846481D01*
X476424Y846477D01*
X476471Y846480D01*
X476502Y846478D01*
X476504Y846478D01*
X476566Y846486D01*
X476702Y846490D01*
X476721Y846496D01*
X476741Y846497D01*
X476797Y846515D01*
X476820Y846518D01*
X476879Y846541D01*
X477007Y846579D01*
X477025Y846589D01*
X477043Y846595D01*
X477092Y846626D01*
X477115Y846635D01*
X477170Y846675D01*
X477281Y846740D01*
X477295Y846754D01*
X477312Y846765D01*
X477350Y846805D01*
X477373Y846822D01*
X477419Y846878D01*
X477506Y846965D01*
X477516Y846982D01*
X477530Y846997D01*
X477555Y847042D01*
X477575Y847067D01*
X477610Y847140D01*
X477668Y847239D01*
X477674Y847258D01*
X477684Y847275D01*
X477696Y847322D01*
X477711Y847354D01*
X477728Y847442D01*
X477757Y847544D01*
X477758Y847564D01*
X477763Y847583D01*
X477767Y847648D01*
X477771Y847667D01*
X477770Y847685D01*
X477773Y847744D01*
X477773Y852355D01*
X479113Y853695D01*
X499803Y853695D01*
X501143Y852355D01*
X501143Y812361D01*
X499803Y811021D01*
X479113Y811021D01*
G37*
%LPD*%
G36*
X498876Y812550D02*
X498876Y812550D01*
X498895Y812548D01*
X498997Y812570D01*
X499099Y812587D01*
X499116Y812596D01*
X499136Y812600D01*
X499225Y812653D01*
X499316Y812702D01*
X499330Y812716D01*
X499347Y812726D01*
X499414Y812805D01*
X499486Y812880D01*
X499494Y812898D01*
X499507Y812913D01*
X499546Y813009D01*
X499589Y813103D01*
X499591Y813123D01*
X499599Y813141D01*
X499617Y813308D01*
X499617Y851408D01*
X499614Y851428D01*
X499616Y851447D01*
X499594Y851549D01*
X499578Y851651D01*
X499568Y851668D01*
X499564Y851688D01*
X499511Y851777D01*
X499462Y851868D01*
X499448Y851882D01*
X499438Y851899D01*
X499359Y851966D01*
X499284Y852038D01*
X499266Y852046D01*
X499251Y852059D01*
X499155Y852098D01*
X499061Y852141D01*
X499041Y852143D01*
X499023Y852151D01*
X498856Y852169D01*
X480060Y852169D01*
X480040Y852166D01*
X480021Y852168D01*
X479919Y852146D01*
X479817Y852130D01*
X479800Y852120D01*
X479780Y852116D01*
X479691Y852063D01*
X479600Y852014D01*
X479586Y852000D01*
X479569Y851990D01*
X479502Y851911D01*
X479431Y851836D01*
X479422Y851818D01*
X479409Y851803D01*
X479370Y851707D01*
X479327Y851613D01*
X479325Y851593D01*
X479317Y851575D01*
X479299Y851408D01*
X479299Y813308D01*
X479302Y813288D01*
X479300Y813269D01*
X479322Y813167D01*
X479339Y813065D01*
X479348Y813048D01*
X479352Y813028D01*
X479405Y812939D01*
X479454Y812848D01*
X479468Y812834D01*
X479478Y812817D01*
X479557Y812750D01*
X479632Y812679D01*
X479650Y812670D01*
X479665Y812657D01*
X479761Y812618D01*
X479855Y812575D01*
X479875Y812573D01*
X479893Y812565D01*
X480060Y812547D01*
X498856Y812547D01*
X498876Y812550D01*
G37*
G36*
X311170Y757940D02*
X311170Y757940D01*
X311189Y757938D01*
X311291Y757960D01*
X311393Y757977D01*
X311410Y757986D01*
X311430Y757990D01*
X311519Y758043D01*
X311610Y758092D01*
X311624Y758106D01*
X311641Y758116D01*
X311708Y758195D01*
X311780Y758270D01*
X311788Y758288D01*
X311801Y758303D01*
X311840Y758399D01*
X311883Y758493D01*
X311885Y758513D01*
X311893Y758531D01*
X311911Y758698D01*
X311911Y796798D01*
X311908Y796818D01*
X311910Y796837D01*
X311888Y796939D01*
X311872Y797041D01*
X311862Y797058D01*
X311858Y797078D01*
X311805Y797167D01*
X311756Y797258D01*
X311742Y797272D01*
X311732Y797289D01*
X311653Y797356D01*
X311578Y797428D01*
X311560Y797436D01*
X311545Y797449D01*
X311449Y797488D01*
X311355Y797531D01*
X311335Y797533D01*
X311317Y797541D01*
X311150Y797559D01*
X292354Y797559D01*
X292334Y797556D01*
X292315Y797558D01*
X292213Y797536D01*
X292111Y797520D01*
X292094Y797510D01*
X292074Y797506D01*
X291985Y797453D01*
X291894Y797404D01*
X291880Y797390D01*
X291863Y797380D01*
X291796Y797301D01*
X291725Y797226D01*
X291716Y797208D01*
X291703Y797193D01*
X291664Y797097D01*
X291621Y797003D01*
X291619Y796983D01*
X291611Y796965D01*
X291593Y796798D01*
X291593Y758698D01*
X291596Y758678D01*
X291594Y758659D01*
X291616Y758557D01*
X291633Y758455D01*
X291642Y758438D01*
X291646Y758418D01*
X291699Y758329D01*
X291748Y758238D01*
X291762Y758224D01*
X291772Y758207D01*
X291851Y758140D01*
X291926Y758069D01*
X291944Y758060D01*
X291959Y758047D01*
X292055Y758008D01*
X292149Y757965D01*
X292169Y757963D01*
X292187Y757955D01*
X292354Y757937D01*
X311150Y757937D01*
X311170Y757940D01*
G37*
G36*
X722396Y736350D02*
X722396Y736350D01*
X722415Y736348D01*
X722517Y736370D01*
X722619Y736387D01*
X722636Y736396D01*
X722656Y736400D01*
X722745Y736453D01*
X722836Y736502D01*
X722850Y736516D01*
X722867Y736526D01*
X722934Y736605D01*
X723006Y736680D01*
X723014Y736698D01*
X723027Y736713D01*
X723066Y736809D01*
X723109Y736903D01*
X723111Y736923D01*
X723119Y736941D01*
X723137Y737108D01*
X723137Y775208D01*
X723134Y775228D01*
X723136Y775247D01*
X723114Y775349D01*
X723098Y775451D01*
X723088Y775468D01*
X723084Y775488D01*
X723031Y775577D01*
X722982Y775668D01*
X722968Y775682D01*
X722958Y775699D01*
X722879Y775766D01*
X722804Y775838D01*
X722786Y775846D01*
X722771Y775859D01*
X722675Y775898D01*
X722581Y775941D01*
X722561Y775943D01*
X722543Y775951D01*
X722376Y775969D01*
X703580Y775969D01*
X703560Y775966D01*
X703541Y775968D01*
X703439Y775946D01*
X703337Y775930D01*
X703320Y775920D01*
X703300Y775916D01*
X703211Y775863D01*
X703120Y775814D01*
X703106Y775800D01*
X703089Y775790D01*
X703022Y775711D01*
X702951Y775636D01*
X702942Y775618D01*
X702929Y775603D01*
X702890Y775507D01*
X702847Y775413D01*
X702845Y775393D01*
X702837Y775375D01*
X702819Y775208D01*
X702819Y737108D01*
X702822Y737088D01*
X702820Y737069D01*
X702842Y736967D01*
X702859Y736865D01*
X702868Y736848D01*
X702872Y736828D01*
X702925Y736739D01*
X702974Y736648D01*
X702988Y736634D01*
X702998Y736617D01*
X703077Y736550D01*
X703152Y736479D01*
X703170Y736470D01*
X703185Y736457D01*
X703281Y736418D01*
X703375Y736375D01*
X703395Y736373D01*
X703413Y736365D01*
X703580Y736347D01*
X722376Y736347D01*
X722396Y736350D01*
G37*
G36*
X896640Y573790D02*
X896640Y573790D01*
X896659Y573788D01*
X896761Y573810D01*
X896863Y573827D01*
X896880Y573836D01*
X896900Y573840D01*
X896989Y573893D01*
X897080Y573942D01*
X897094Y573956D01*
X897111Y573966D01*
X897178Y574045D01*
X897250Y574120D01*
X897258Y574138D01*
X897271Y574153D01*
X897310Y574249D01*
X897353Y574343D01*
X897355Y574363D01*
X897363Y574381D01*
X897381Y574548D01*
X897381Y612648D01*
X897378Y612668D01*
X897380Y612687D01*
X897358Y612789D01*
X897342Y612891D01*
X897332Y612908D01*
X897328Y612928D01*
X897275Y613017D01*
X897226Y613108D01*
X897212Y613122D01*
X897202Y613139D01*
X897123Y613206D01*
X897048Y613278D01*
X897030Y613286D01*
X897015Y613299D01*
X896919Y613338D01*
X896825Y613381D01*
X896805Y613383D01*
X896787Y613391D01*
X896620Y613409D01*
X877824Y613409D01*
X877804Y613406D01*
X877785Y613408D01*
X877683Y613386D01*
X877581Y613370D01*
X877564Y613360D01*
X877544Y613356D01*
X877455Y613303D01*
X877364Y613254D01*
X877350Y613240D01*
X877333Y613230D01*
X877266Y613151D01*
X877195Y613076D01*
X877186Y613058D01*
X877173Y613043D01*
X877134Y612947D01*
X877091Y612853D01*
X877089Y612833D01*
X877081Y612815D01*
X877063Y612648D01*
X877063Y574548D01*
X877066Y574528D01*
X877064Y574509D01*
X877086Y574407D01*
X877103Y574305D01*
X877112Y574288D01*
X877116Y574268D01*
X877169Y574179D01*
X877218Y574088D01*
X877232Y574074D01*
X877242Y574057D01*
X877321Y573990D01*
X877396Y573919D01*
X877414Y573910D01*
X877429Y573897D01*
X877525Y573858D01*
X877619Y573815D01*
X877639Y573813D01*
X877657Y573805D01*
X877824Y573787D01*
X896620Y573787D01*
X896640Y573790D01*
G37*
G36*
X162326Y555502D02*
X162326Y555502D01*
X162345Y555500D01*
X162447Y555522D01*
X162549Y555539D01*
X162566Y555548D01*
X162586Y555552D01*
X162675Y555605D01*
X162766Y555654D01*
X162780Y555668D01*
X162797Y555678D01*
X162864Y555757D01*
X162936Y555832D01*
X162944Y555850D01*
X162957Y555865D01*
X162996Y555961D01*
X163039Y556055D01*
X163041Y556075D01*
X163049Y556093D01*
X163067Y556260D01*
X163067Y594360D01*
X163064Y594380D01*
X163066Y594399D01*
X163044Y594501D01*
X163028Y594603D01*
X163018Y594620D01*
X163014Y594640D01*
X162961Y594729D01*
X162912Y594820D01*
X162898Y594834D01*
X162888Y594851D01*
X162809Y594918D01*
X162734Y594990D01*
X162716Y594998D01*
X162701Y595011D01*
X162605Y595050D01*
X162511Y595093D01*
X162491Y595095D01*
X162473Y595103D01*
X162306Y595121D01*
X143510Y595121D01*
X143490Y595118D01*
X143471Y595120D01*
X143369Y595098D01*
X143267Y595082D01*
X143250Y595072D01*
X143230Y595068D01*
X143141Y595015D01*
X143050Y594966D01*
X143036Y594952D01*
X143019Y594942D01*
X142952Y594863D01*
X142881Y594788D01*
X142872Y594770D01*
X142859Y594755D01*
X142820Y594659D01*
X142777Y594565D01*
X142775Y594545D01*
X142767Y594527D01*
X142749Y594360D01*
X142749Y556260D01*
X142752Y556240D01*
X142750Y556221D01*
X142772Y556119D01*
X142789Y556017D01*
X142798Y556000D01*
X142802Y555980D01*
X142855Y555891D01*
X142904Y555800D01*
X142918Y555786D01*
X142928Y555769D01*
X143007Y555702D01*
X143082Y555631D01*
X143100Y555622D01*
X143115Y555609D01*
X143211Y555570D01*
X143305Y555527D01*
X143325Y555525D01*
X143343Y555517D01*
X143510Y555499D01*
X162306Y555499D01*
X162326Y555502D01*
G37*
%LPC*%
G36*
X652392Y309579D02*
X652392Y309579D01*
X650755Y311216D01*
X650755Y336392D01*
X652392Y338029D01*
X655978Y338029D01*
X657615Y336392D01*
X657615Y335488D01*
X657630Y335370D01*
X657637Y335251D01*
X657650Y335213D01*
X657655Y335172D01*
X657698Y335062D01*
X657735Y334949D01*
X657757Y334914D01*
X657772Y334877D01*
X657841Y334781D01*
X657905Y334680D01*
X657935Y334652D01*
X657958Y334619D01*
X658050Y334543D01*
X658137Y334462D01*
X658172Y334442D01*
X658203Y334417D01*
X658311Y334366D01*
X658415Y334308D01*
X658455Y334298D01*
X658491Y334281D01*
X658608Y334259D01*
X658723Y334229D01*
X658783Y334225D01*
X658803Y334221D01*
X658824Y334223D01*
X658884Y334219D01*
X680108Y334219D01*
X681745Y332582D01*
X681745Y311216D01*
X680108Y309579D01*
X652392Y309579D01*
G37*
%LPD*%
%LPC*%
G36*
X692130Y149497D02*
X692130Y149497D01*
X686902Y151663D01*
X682901Y155664D01*
X680735Y160892D01*
X680735Y166552D01*
X682901Y171780D01*
X686902Y175781D01*
X692130Y177947D01*
X697790Y177947D01*
X703018Y175781D01*
X707019Y171780D01*
X709185Y166552D01*
X709185Y160892D01*
X707019Y155664D01*
X703018Y151663D01*
X697790Y149497D01*
X692130Y149497D01*
G37*
%LPD*%
%LPC*%
G36*
X567130Y149497D02*
X567130Y149497D01*
X561902Y151663D01*
X557901Y155664D01*
X555735Y160892D01*
X555735Y166552D01*
X557901Y171780D01*
X561902Y175781D01*
X567130Y177947D01*
X572790Y177947D01*
X578018Y175781D01*
X582019Y171780D01*
X584185Y166552D01*
X584185Y160892D01*
X582019Y155664D01*
X578018Y151663D01*
X572790Y149497D01*
X567130Y149497D01*
G37*
%LPD*%
%LPC*%
G36*
X629713Y219911D02*
X629713Y219911D01*
X624637Y222014D01*
X620752Y225899D01*
X618649Y230975D01*
X618649Y236469D01*
X620752Y241545D01*
X624637Y245430D01*
X629713Y247533D01*
X635207Y247533D01*
X640283Y245430D01*
X644168Y241545D01*
X646271Y236469D01*
X646271Y230975D01*
X644168Y225899D01*
X640283Y222014D01*
X635207Y219911D01*
X629713Y219911D01*
G37*
%LPD*%
%LPC*%
G36*
X629713Y129911D02*
X629713Y129911D01*
X624637Y132014D01*
X620752Y135899D01*
X618649Y140975D01*
X618649Y146469D01*
X620752Y151545D01*
X624637Y155430D01*
X629713Y157533D01*
X635207Y157533D01*
X640283Y155430D01*
X644168Y151545D01*
X646271Y146469D01*
X646271Y140975D01*
X644168Y135899D01*
X640283Y132014D01*
X635207Y129911D01*
X629713Y129911D01*
G37*
%LPD*%
%LPC*%
G36*
X380705Y128015D02*
X380705Y128015D01*
X377344Y129407D01*
X374771Y131980D01*
X373379Y135341D01*
X373379Y154219D01*
X374771Y157580D01*
X377344Y160153D01*
X380705Y161545D01*
X384343Y161545D01*
X387704Y160153D01*
X390277Y157580D01*
X391669Y154219D01*
X391669Y135341D01*
X390277Y131980D01*
X387704Y129407D01*
X384343Y128015D01*
X380705Y128015D01*
G37*
%LPD*%
%LPC*%
G36*
X304505Y128015D02*
X304505Y128015D01*
X301144Y129407D01*
X298571Y131980D01*
X297179Y135341D01*
X297179Y154219D01*
X298571Y157580D01*
X301144Y160153D01*
X304505Y161545D01*
X308143Y161545D01*
X311504Y160153D01*
X314077Y157580D01*
X315469Y154219D01*
X315469Y135341D01*
X314077Y131980D01*
X311504Y129407D01*
X308143Y128015D01*
X304505Y128015D01*
G37*
%LPD*%
%LPC*%
G36*
X279105Y128015D02*
X279105Y128015D01*
X275744Y129407D01*
X273171Y131980D01*
X271779Y135341D01*
X271779Y154219D01*
X273171Y157580D01*
X275744Y160153D01*
X279105Y161545D01*
X282743Y161545D01*
X286104Y160153D01*
X288677Y157580D01*
X290069Y154219D01*
X290069Y135341D01*
X288677Y131980D01*
X286104Y129407D01*
X282743Y128015D01*
X279105Y128015D01*
G37*
%LPD*%
%LPC*%
G36*
X451865Y834897D02*
X451865Y834897D01*
X451865Y843478D01*
X452165Y845373D01*
X452759Y847198D01*
X453630Y848908D01*
X454758Y850461D01*
X456115Y851818D01*
X457668Y852946D01*
X459378Y853817D01*
X461203Y854411D01*
X462027Y854541D01*
X462027Y834897D01*
X451865Y834897D01*
G37*
%LPD*%
%LPC*%
G36*
X675385Y758697D02*
X675385Y758697D01*
X675385Y767278D01*
X675685Y769173D01*
X676279Y770998D01*
X677150Y772708D01*
X678278Y774261D01*
X679635Y775618D01*
X681188Y776746D01*
X682898Y777617D01*
X684723Y778211D01*
X685547Y778341D01*
X685547Y758697D01*
X675385Y758697D01*
G37*
%LPD*%
%LPC*%
G36*
X849629Y596137D02*
X849629Y596137D01*
X849629Y604718D01*
X849929Y606613D01*
X850523Y608438D01*
X851394Y610148D01*
X852522Y611701D01*
X853879Y613058D01*
X855432Y614186D01*
X857142Y615057D01*
X858967Y615651D01*
X859791Y615781D01*
X859791Y596137D01*
X849629Y596137D01*
G37*
%LPD*%
%LPC*%
G36*
X115315Y577849D02*
X115315Y577849D01*
X115315Y586430D01*
X115615Y588325D01*
X116209Y590150D01*
X117080Y591860D01*
X118208Y593413D01*
X119565Y594770D01*
X121118Y595898D01*
X122828Y596769D01*
X124653Y597363D01*
X125477Y597493D01*
X125477Y577849D01*
X115315Y577849D01*
G37*
%LPD*%
%LPC*%
G36*
X264159Y780287D02*
X264159Y780287D01*
X264159Y788868D01*
X264459Y790763D01*
X265053Y792588D01*
X265924Y794298D01*
X267052Y795851D01*
X268409Y797208D01*
X269962Y798336D01*
X271672Y799207D01*
X273497Y799801D01*
X274321Y799931D01*
X274321Y780287D01*
X264159Y780287D01*
G37*
%LPD*%
%LPC*%
G36*
X461203Y811321D02*
X461203Y811321D01*
X459378Y811915D01*
X457668Y812786D01*
X456115Y813914D01*
X454758Y815271D01*
X453630Y816824D01*
X452759Y818534D01*
X452165Y820359D01*
X451865Y822254D01*
X451865Y830835D01*
X462027Y830835D01*
X462027Y811191D01*
X461203Y811321D01*
G37*
%LPD*%
%LPC*%
G36*
X273497Y756711D02*
X273497Y756711D01*
X271672Y757305D01*
X269962Y758176D01*
X268409Y759304D01*
X267052Y760661D01*
X265924Y762214D01*
X265053Y763924D01*
X264459Y765749D01*
X264159Y767644D01*
X264159Y776225D01*
X274321Y776225D01*
X274321Y756581D01*
X273497Y756711D01*
G37*
%LPD*%
%LPC*%
G36*
X684723Y735121D02*
X684723Y735121D01*
X682898Y735715D01*
X681188Y736586D01*
X679635Y737714D01*
X678278Y739071D01*
X677150Y740624D01*
X676279Y742334D01*
X675685Y744159D01*
X675385Y746054D01*
X675385Y754635D01*
X685547Y754635D01*
X685547Y734991D01*
X684723Y735121D01*
G37*
%LPD*%
%LPC*%
G36*
X858967Y572561D02*
X858967Y572561D01*
X857142Y573155D01*
X855432Y574026D01*
X853879Y575154D01*
X852522Y576511D01*
X851394Y578064D01*
X850523Y579774D01*
X849929Y581599D01*
X849629Y583494D01*
X849629Y592075D01*
X859791Y592075D01*
X859791Y572431D01*
X858967Y572561D01*
G37*
%LPD*%
%LPC*%
G36*
X124653Y554273D02*
X124653Y554273D01*
X122828Y554867D01*
X121118Y555738D01*
X119565Y556866D01*
X118208Y558223D01*
X117080Y559776D01*
X116209Y561486D01*
X115615Y563311D01*
X115315Y565206D01*
X115315Y573787D01*
X125477Y573787D01*
X125477Y554143D01*
X124653Y554273D01*
G37*
%LPD*%
%LPC*%
G36*
X251493Y195910D02*
X251493Y195910D01*
X251493Y208408D01*
X251934Y208350D01*
X253864Y207833D01*
X255709Y207069D01*
X257439Y206070D01*
X259024Y204854D01*
X260437Y203441D01*
X261653Y201856D01*
X262652Y200126D01*
X263417Y198280D01*
X263934Y196350D01*
X263992Y195910D01*
X251493Y195910D01*
G37*
%LPD*%
%LPC*%
G36*
X697499Y216261D02*
X697499Y216261D01*
X697499Y228760D01*
X697940Y228702D01*
X699870Y228185D01*
X701715Y227420D01*
X703445Y226421D01*
X705030Y225205D01*
X706443Y223792D01*
X707659Y222207D01*
X708658Y220477D01*
X709423Y218632D01*
X709940Y216702D01*
X709998Y216261D01*
X697499Y216261D01*
G37*
%LPD*%
%LPC*%
G36*
X572499Y216261D02*
X572499Y216261D01*
X572499Y228760D01*
X572940Y228702D01*
X574870Y228185D01*
X576715Y227420D01*
X578445Y226421D01*
X580030Y225205D01*
X581443Y223792D01*
X582659Y222207D01*
X583658Y220477D01*
X584423Y218632D01*
X584940Y216702D01*
X584998Y216261D01*
X572499Y216261D01*
G37*
%LPD*%
%LPC*%
G36*
X233916Y195910D02*
X233916Y195910D01*
X233974Y196350D01*
X234491Y198280D01*
X235256Y200126D01*
X236255Y201856D01*
X237471Y203441D01*
X238884Y204854D01*
X240469Y206070D01*
X242199Y207069D01*
X244044Y207833D01*
X245974Y208350D01*
X246415Y208408D01*
X246415Y195910D01*
X233916Y195910D01*
G37*
%LPD*%
%LPC*%
G36*
X679922Y216261D02*
X679922Y216261D01*
X679980Y216702D01*
X680497Y218632D01*
X681262Y220477D01*
X682261Y222207D01*
X683477Y223792D01*
X684890Y225205D01*
X686475Y226421D01*
X688205Y227420D01*
X690050Y228185D01*
X691980Y228702D01*
X692421Y228760D01*
X692421Y216261D01*
X679922Y216261D01*
G37*
%LPD*%
%LPC*%
G36*
X554922Y216261D02*
X554922Y216261D01*
X554980Y216702D01*
X555497Y218632D01*
X556262Y220477D01*
X557261Y222207D01*
X558477Y223792D01*
X559890Y225205D01*
X561475Y226421D01*
X563205Y227420D01*
X565050Y228185D01*
X566980Y228702D01*
X567421Y228760D01*
X567421Y216261D01*
X554922Y216261D01*
G37*
%LPD*%
%LPC*%
G36*
X251493Y190831D02*
X251493Y190831D01*
X263992Y190831D01*
X263934Y190391D01*
X263417Y188461D01*
X262652Y186615D01*
X261653Y184885D01*
X260437Y183300D01*
X259024Y181887D01*
X257439Y180671D01*
X255709Y179672D01*
X253864Y178908D01*
X251934Y178391D01*
X251493Y178333D01*
X251493Y190831D01*
G37*
%LPD*%
%LPC*%
G36*
X572499Y211183D02*
X572499Y211183D01*
X584998Y211183D01*
X584940Y210742D01*
X584423Y208812D01*
X583658Y206967D01*
X582659Y205237D01*
X581443Y203652D01*
X580030Y202239D01*
X578445Y201023D01*
X576715Y200024D01*
X574870Y199259D01*
X572940Y198742D01*
X572499Y198684D01*
X572499Y211183D01*
G37*
%LPD*%
%LPC*%
G36*
X697499Y211183D02*
X697499Y211183D01*
X709998Y211183D01*
X709940Y210742D01*
X709423Y208812D01*
X708658Y206967D01*
X707659Y205237D01*
X706443Y203652D01*
X705030Y202239D01*
X703445Y201023D01*
X701715Y200024D01*
X699870Y199259D01*
X697940Y198742D01*
X697499Y198684D01*
X697499Y211183D01*
G37*
%LPD*%
%LPC*%
G36*
X245974Y178391D02*
X245974Y178391D01*
X244044Y178908D01*
X242199Y179672D01*
X240469Y180671D01*
X238884Y181887D01*
X237471Y183300D01*
X236255Y184885D01*
X235256Y186615D01*
X234491Y188461D01*
X233974Y190391D01*
X233916Y190831D01*
X246415Y190831D01*
X246415Y178333D01*
X245974Y178391D01*
G37*
%LPD*%
%LPC*%
G36*
X566980Y198742D02*
X566980Y198742D01*
X565050Y199259D01*
X563205Y200024D01*
X561475Y201023D01*
X559890Y202239D01*
X558477Y203652D01*
X557261Y205237D01*
X556262Y206967D01*
X555497Y208812D01*
X554980Y210742D01*
X554922Y211183D01*
X567421Y211183D01*
X567421Y198684D01*
X566980Y198742D01*
G37*
%LPD*%
%LPC*%
G36*
X691980Y198742D02*
X691980Y198742D01*
X690050Y199259D01*
X688205Y200024D01*
X686475Y201023D01*
X684890Y202239D01*
X683477Y203652D01*
X682261Y205237D01*
X681262Y206967D01*
X680497Y208812D01*
X679980Y210742D01*
X679922Y211183D01*
X692421Y211183D01*
X692421Y198684D01*
X691980Y198742D01*
G37*
%LPD*%
%LPC*%
G36*
X334263Y147319D02*
X334263Y147319D01*
X334263Y162259D01*
X335624Y161816D01*
X337049Y161090D01*
X338343Y160150D01*
X339474Y159019D01*
X340414Y157725D01*
X341140Y156300D01*
X341635Y154779D01*
X341885Y153200D01*
X341885Y147319D01*
X334263Y147319D01*
G37*
%LPD*%
%LPC*%
G36*
X334263Y142241D02*
X334263Y142241D01*
X341885Y142241D01*
X341885Y136360D01*
X341635Y134781D01*
X341140Y133260D01*
X340414Y131835D01*
X339474Y130541D01*
X338343Y129410D01*
X337049Y128470D01*
X335624Y127744D01*
X334263Y127301D01*
X334263Y142241D01*
G37*
%LPD*%
%LPC*%
G36*
X321563Y147319D02*
X321563Y147319D01*
X321563Y153200D01*
X321813Y154779D01*
X322308Y156300D01*
X323034Y157725D01*
X323974Y159019D01*
X325105Y160150D01*
X326399Y161090D01*
X327824Y161816D01*
X329185Y162259D01*
X329185Y147319D01*
X321563Y147319D01*
G37*
%LPD*%
%LPC*%
G36*
X327824Y127744D02*
X327824Y127744D01*
X326399Y128470D01*
X325105Y129410D01*
X323974Y130541D01*
X323034Y131835D01*
X322308Y133260D01*
X321813Y134781D01*
X321563Y136360D01*
X321563Y142241D01*
X329185Y142241D01*
X329185Y127301D01*
X327824Y127744D01*
G37*
%LPD*%
%LPC*%
G36*
X248953Y193370D02*
X248953Y193370D01*
X248953Y193371D01*
X248955Y193371D01*
X248955Y193370D01*
X248953Y193370D01*
G37*
%LPD*%
%LPC*%
G36*
X569959Y213721D02*
X569959Y213721D01*
X569959Y213723D01*
X569961Y213723D01*
X569961Y213721D01*
X569959Y213721D01*
G37*
%LPD*%
%LPC*%
G36*
X694959Y213721D02*
X694959Y213721D01*
X694959Y213723D01*
X694961Y213723D01*
X694961Y213721D01*
X694959Y213721D01*
G37*
%LPD*%
%LPC*%
G36*
X331723Y144779D02*
X331723Y144779D01*
X331723Y144781D01*
X331725Y144781D01*
X331725Y144779D01*
X331723Y144779D01*
G37*
%LPD*%
D10*
X448954Y193371D03*
X248954Y193371D03*
D11*
X301752Y778256D03*
D12*
X276352Y787908D02*
X276352Y768604D01*
D10*
X569960Y213722D03*
X694960Y213722D03*
X569960Y163722D03*
X694960Y163722D03*
D13*
X678950Y312374D02*
X653550Y312374D01*
X653550Y325074D01*
X653550Y331424D01*
X653550Y335234D01*
X653550Y331424D02*
X672600Y331424D01*
X678950Y331424D01*
X678950Y325074D01*
X678950Y312374D01*
X678950Y325074D02*
X672600Y331424D01*
X666250Y325074D01*
X653550Y325074D01*
X654820Y332694D02*
X654820Y335234D01*
X676410Y330154D02*
X677680Y330154D01*
X676410Y330154D02*
X677680Y328884D01*
X668790Y330154D02*
X666250Y327614D01*
X654820Y327614D01*
X654820Y330154D01*
X666250Y330154D01*
X671330Y319994D02*
X673870Y319994D01*
X671330Y319994D02*
X671330Y316184D01*
X673870Y316184D01*
X673870Y319994D01*
X661170Y319994D02*
X658630Y319994D01*
X658630Y316184D01*
X661170Y316184D01*
X661170Y319994D01*
X654820Y335234D02*
X653550Y335234D01*
D11*
X152908Y575818D03*
D12*
X127508Y585470D02*
X127508Y566166D01*
D11*
X887222Y594106D03*
D12*
X861822Y603758D02*
X861822Y584454D01*
D11*
X712978Y756666D03*
D12*
X687578Y766318D02*
X687578Y747014D01*
D14*
X382524Y152400D02*
X382524Y137160D01*
X357124Y137160D02*
X357124Y152400D01*
X331724Y152400D02*
X331724Y137160D01*
X306324Y137160D02*
X306324Y152400D01*
X280924Y152400D02*
X280924Y137160D01*
D11*
X489458Y832866D03*
D12*
X464058Y842518D02*
X464058Y823214D01*
D13*
X448954Y193371D02*
X379299Y193371D01*
X357124Y171196D02*
X357124Y144780D01*
X357124Y171196D02*
X379299Y193371D01*
M02*
