G04 EAGLE Gerber RS-274X export*
G75*
%MOMM*%
%FSLAX34Y34*%
%LPD*%
%IN*%
%IPPOS*%
%AMOC8*
5,1,8,0,0,1.08239X$1,22.5*%
G01*
%ADD10C,0.000000*%


D10*
X301765Y8393D02*
X298994Y8899D01*
X296229Y9435D01*
X294021Y9885D01*
X291267Y10477D01*
X288520Y11101D01*
X286328Y11622D01*
X281959Y12728D01*
X279782Y13310D01*
X277070Y14070D01*
X274906Y14700D01*
X272211Y15519D01*
X270062Y16197D01*
X267386Y17076D01*
X265253Y17803D01*
X263128Y18552D01*
X260482Y19519D01*
X258376Y20318D01*
X255754Y21347D01*
X254187Y21983D01*
X252107Y22848D01*
X250036Y23736D01*
X247975Y24647D01*
X245413Y25817D01*
X243375Y26779D01*
X241348Y27764D01*
X238831Y29028D01*
X236830Y30065D01*
X234842Y31125D01*
X232866Y32209D01*
X230414Y33596D01*
X228468Y34732D01*
X226536Y35891D01*
X224618Y37074D01*
X222241Y38585D01*
X220356Y39820D01*
X218487Y41079D01*
X216634Y42361D01*
X214798Y43667D01*
X212978Y44996D01*
X210727Y46690D01*
X208947Y48071D01*
X207185Y49476D01*
X205441Y50903D01*
X203717Y52354D01*
X202012Y53827D01*
X200327Y55324D01*
X198662Y56842D01*
X197018Y58384D01*
X195396Y59947D01*
X194193Y61134D01*
X192608Y62737D01*
X191046Y64360D01*
X189506Y66006D01*
X187989Y67672D01*
X186497Y69360D01*
X185027Y71069D01*
X183583Y72798D01*
X182163Y74548D01*
X180768Y76318D01*
X179398Y78107D01*
X178054Y79916D01*
X176736Y81744D01*
X175444Y83590D01*
X174179Y85455D01*
X172941Y87338D01*
X171732Y89239D01*
X170259Y91640D01*
X169111Y93579D01*
X167990Y95534D01*
X166897Y97504D01*
X165567Y99987D01*
X164532Y101989D01*
X163523Y104004D01*
X162540Y106031D01*
X161346Y108583D01*
X160419Y110637D01*
X159294Y113219D01*
X158207Y115818D01*
X157364Y117908D01*
X156545Y120007D01*
X155555Y122644D01*
X154599Y125293D01*
X153861Y127422D01*
X152970Y130094D01*
X152113Y132778D01*
X151453Y134932D01*
X150658Y137635D01*
X149898Y140347D01*
X149170Y143068D01*
X148477Y145798D01*
X147815Y148536D01*
X147188Y151282D01*
X146593Y154035D01*
X146030Y156795D01*
X145602Y159008D01*
X145097Y161779D01*
X144624Y164555D01*
X144182Y167337D01*
X143852Y169566D01*
X143541Y171798D01*
X143114Y175151D01*
X142792Y177950D01*
X142557Y180191D01*
X142342Y182434D01*
X142102Y185240D01*
X141892Y188049D01*
X141714Y190860D01*
X141567Y193673D01*
X141452Y196488D01*
X141367Y199303D01*
X141314Y202120D01*
X141295Y206626D01*
X141316Y208880D01*
X141370Y211696D01*
X141523Y216200D01*
X141660Y219014D01*
X141793Y221263D01*
X142031Y224635D01*
X142265Y227442D01*
X144362Y249878D01*
X144328Y250404D01*
X134375Y258699D01*
X131804Y260893D01*
X129252Y263111D01*
X126722Y265352D01*
X123384Y268380D01*
X120499Y271068D01*
X117650Y273794D01*
X114839Y276560D01*
X112070Y279368D01*
X109345Y282219D01*
X107047Y284698D01*
X104413Y287632D01*
X102198Y290185D01*
X99666Y293209D01*
X97544Y295840D01*
X95468Y298507D01*
X93440Y301212D01*
X91463Y303953D01*
X89539Y306732D01*
X87669Y309548D01*
X85855Y312400D01*
X84099Y315288D01*
X82402Y318211D01*
X80764Y321168D01*
X79188Y324158D01*
X77674Y327180D01*
X75971Y330737D01*
X74566Y333811D01*
X73218Y336911D01*
X71935Y340038D01*
X70723Y343193D01*
X69959Y345313D01*
X69410Y346911D01*
X68882Y348517D01*
X68377Y350130D01*
X67895Y351749D01*
X67436Y353376D01*
X67001Y355009D01*
X66591Y356649D01*
X66205Y358294D01*
X65843Y359945D01*
X65506Y361601D01*
X65193Y363262D01*
X64905Y364927D01*
X64641Y366596D01*
X64399Y368269D01*
X64113Y370504D01*
X63756Y373865D01*
X63608Y375549D01*
X63442Y377796D01*
X63339Y379483D01*
X63229Y381734D01*
X63105Y385675D01*
X63061Y389619D01*
X63095Y394125D01*
X63205Y398631D01*
X63403Y403697D01*
X63544Y406510D01*
X63711Y409322D01*
X63908Y412132D01*
X64090Y414378D01*
X64350Y417183D01*
X64588Y419424D01*
X64854Y421661D01*
X65151Y423895D01*
X65479Y426124D01*
X65840Y428349D01*
X66237Y430567D01*
X66668Y432778D01*
X67136Y434983D01*
X67510Y436631D01*
X68040Y438821D01*
X68604Y441003D01*
X69049Y442633D01*
X69671Y444799D01*
X70324Y446956D01*
X71005Y449104D01*
X71714Y451243D01*
X72447Y453374D01*
X73979Y457612D01*
X75586Y461823D01*
X77042Y465487D01*
X78537Y469137D01*
X85017Y484746D01*
X85159Y485268D01*
X80926Y497514D01*
X80391Y499118D01*
X79715Y501267D01*
X78926Y503971D01*
X78200Y506693D01*
X77534Y509430D01*
X76929Y512181D01*
X76280Y515498D01*
X75713Y518830D01*
X75227Y522175D01*
X74818Y525530D01*
X74487Y528894D01*
X74229Y532264D01*
X74044Y535639D01*
X73929Y539017D01*
X73883Y542397D01*
X73914Y546340D01*
X74011Y549719D01*
X74206Y553658D01*
X74439Y557030D01*
X74788Y560958D01*
X75217Y564878D01*
X75724Y568788D01*
X76308Y572688D01*
X76966Y576577D01*
X77697Y580452D01*
X78500Y584312D01*
X79372Y588158D01*
X79902Y590349D01*
X80453Y592533D01*
X81471Y596343D01*
X82555Y600135D01*
X83873Y604444D01*
X84740Y607125D01*
X85456Y609261D01*
X86193Y611391D01*
X87142Y614043D01*
X87924Y616156D01*
X88930Y618787D01*
X89967Y621406D01*
X90819Y623492D01*
X91689Y625571D01*
X92806Y628157D01*
X93720Y630216D01*
X94890Y632778D01*
X96825Y636849D01*
X98835Y640883D01*
X100129Y643385D01*
X101186Y645375D01*
X102261Y647355D01*
X103630Y649817D01*
X105882Y653720D01*
X107327Y656139D01*
X108504Y658060D01*
X109698Y659971D01*
X111217Y662343D01*
X113707Y666100D01*
X115300Y668423D01*
X116594Y670268D01*
X117907Y672099D01*
X119573Y674370D01*
X120926Y676172D01*
X122643Y678405D01*
X124388Y680617D01*
X125804Y682370D01*
X127237Y684108D01*
X129055Y686260D01*
X130529Y687964D01*
X132021Y689653D01*
X133911Y691742D01*
X135443Y693394D01*
X136992Y695030D01*
X138955Y697051D01*
X140944Y699045D01*
X142156Y700223D01*
X143798Y701766D01*
X145465Y703283D01*
X147155Y704773D01*
X148867Y706238D01*
X150602Y707676D01*
X151920Y708735D01*
X153701Y710115D01*
X155058Y711122D01*
X155977Y711774D01*
X156909Y712407D01*
X157859Y713013D01*
X158343Y713300D01*
X165218Y717165D01*
X165616Y717281D01*
X165661Y702071D01*
X165729Y699255D01*
X165887Y696443D01*
X166080Y694197D01*
X166200Y693077D01*
X166408Y691400D01*
X166742Y689171D01*
X166932Y688061D01*
X167248Y686401D01*
X167601Y684748D01*
X167990Y683103D01*
X168416Y681468D01*
X168720Y680383D01*
X169207Y678764D01*
X169550Y677691D01*
X169910Y676624D01*
X170478Y675032D01*
X171081Y673453D01*
X171502Y672408D01*
X171937Y671369D01*
X172616Y669821D01*
X173326Y668288D01*
X174067Y666769D01*
X174838Y665264D01*
X175636Y663775D01*
X176461Y662300D01*
X177602Y660356D01*
X178486Y658916D01*
X179700Y657018D01*
X180637Y655611D01*
X181918Y653758D01*
X182902Y652383D01*
X184242Y650572D01*
X185274Y649233D01*
X186331Y647915D01*
X187413Y646616D01*
X188515Y645335D01*
X189638Y644072D01*
X191163Y642413D01*
X192720Y640784D01*
X194307Y639184D01*
X195924Y637615D01*
X197573Y636080D01*
X199256Y634581D01*
X200543Y633486D01*
X201855Y632420D01*
X203196Y631391D01*
X204573Y630412D01*
X205518Y629799D01*
X206493Y629234D01*
X206995Y628979D01*
X207510Y628750D01*
X208041Y628562D01*
X208591Y628444D01*
X209150Y628470D01*
X209578Y628802D01*
X209686Y629354D01*
X209713Y629916D01*
X209710Y630480D01*
X209688Y631043D01*
X209610Y632166D01*
X209434Y633847D01*
X209291Y634965D01*
X209042Y636636D01*
X208760Y638303D01*
X208162Y641630D01*
X207643Y644969D01*
X207119Y648878D01*
X206607Y653356D01*
X206220Y657280D01*
X205882Y661209D01*
X205549Y665703D01*
X205299Y669639D01*
X205006Y675265D01*
X204802Y680331D01*
X204642Y685962D01*
X204556Y691032D01*
X204530Y696665D01*
X204573Y701735D01*
X204686Y706804D01*
X204829Y710745D01*
X205059Y715246D01*
X205330Y719180D01*
X205748Y724233D01*
X206182Y728719D01*
X206676Y733199D01*
X207231Y737671D01*
X207849Y742135D01*
X208532Y746590D01*
X209281Y751034D01*
X209991Y754913D01*
X210867Y759334D01*
X211691Y763190D01*
X212570Y767035D01*
X213642Y771412D01*
X214788Y775771D01*
X215851Y779568D01*
X216973Y783349D01*
X218326Y787648D01*
X219573Y791389D01*
X221072Y795639D01*
X222650Y799861D01*
X224095Y803530D01*
X225600Y807174D01*
X227396Y811308D01*
X229271Y815406D01*
X230977Y818962D01*
X232744Y822487D01*
X234837Y826478D01*
X236734Y829936D01*
X238690Y833360D01*
X240997Y837231D01*
X243079Y840580D01*
X244294Y842478D01*
X245529Y844363D01*
X248052Y848097D01*
X250649Y851781D01*
X253317Y855413D01*
X256054Y858993D01*
X258860Y862521D01*
X261731Y865994D01*
X264668Y869413D01*
X266555Y871503D01*
X267712Y872736D01*
X268885Y873952D01*
X270075Y875152D01*
X271282Y876336D01*
X273741Y878655D01*
X276258Y880910D01*
X278830Y883103D01*
X281453Y885235D01*
X284124Y887306D01*
X286384Y888987D01*
X288674Y890628D01*
X290991Y892229D01*
X293335Y893792D01*
X295704Y895316D01*
X298096Y896803D01*
X300511Y898253D01*
X302947Y899668D01*
X305403Y901047D01*
X308375Y902656D01*
X310872Y903960D01*
X313891Y905481D01*
X316424Y906712D01*
X319484Y908148D01*
X322049Y909311D01*
X325146Y910666D01*
X327741Y911762D01*
X330870Y913039D01*
X334017Y914274D01*
X337178Y915469D01*
X340355Y916625D01*
X343545Y917742D01*
X346749Y918820D01*
X349964Y919861D01*
X353192Y920866D01*
X356430Y921835D01*
X359679Y922768D01*
X362937Y923667D01*
X366205Y924532D01*
X369481Y925364D01*
X377149Y927209D01*
X377070Y926859D01*
X371978Y917444D01*
X370694Y914937D01*
X369719Y912905D01*
X368785Y910854D01*
X367887Y908788D01*
X367022Y906707D01*
X365982Y904089D01*
X364985Y901455D01*
X364027Y898806D01*
X362925Y895611D01*
X361871Y892399D01*
X360862Y889173D01*
X359896Y885934D01*
X358971Y882683D01*
X358085Y879421D01*
X357238Y876148D01*
X356299Y872318D01*
X355410Y868476D01*
X354572Y864623D01*
X353895Y861311D01*
X353155Y857438D01*
X352563Y854110D01*
X351823Y849664D01*
X351036Y844656D01*
X350554Y841310D01*
X350129Y837957D01*
X349838Y835155D01*
X349700Y833471D01*
X349627Y832347D01*
X349534Y830095D01*
X349518Y827842D01*
X349562Y826152D01*
X349694Y823903D01*
X349899Y821659D01*
X350165Y819421D01*
X350475Y817190D01*
X350846Y814967D01*
X351170Y813308D01*
X351658Y811108D01*
X352207Y808923D01*
X352811Y806752D01*
X353467Y804596D01*
X354172Y802456D01*
X354924Y800332D01*
X355721Y798224D01*
X356562Y796133D01*
X357444Y794060D01*
X358367Y792004D01*
X359329Y789967D01*
X360588Y787447D01*
X361639Y785454D01*
X362729Y783481D01*
X363857Y781530D01*
X365024Y779603D01*
X366231Y777700D01*
X367162Y776290D01*
X368440Y774433D01*
X369425Y773060D01*
X370434Y771704D01*
X378002Y761889D01*
X378329Y761784D01*
X383388Y769916D01*
X383961Y770886D01*
X384503Y771874D01*
X385263Y773383D01*
X385737Y774405D01*
X386183Y775440D01*
X386800Y777013D01*
X387347Y778612D01*
X387666Y779692D01*
X387941Y780785D01*
X388159Y781890D01*
X388239Y782448D01*
X388294Y783008D01*
X388317Y783571D01*
X388341Y785261D01*
X388433Y787513D01*
X388542Y789199D01*
X388683Y790883D01*
X388853Y792565D01*
X389122Y794802D01*
X389352Y796476D01*
X389696Y798703D01*
X389978Y800370D01*
X390387Y802586D01*
X390828Y804795D01*
X391302Y806999D01*
X391804Y809195D01*
X392335Y811385D01*
X392892Y813569D01*
X393474Y815746D01*
X394081Y817916D01*
X394871Y820619D01*
X395529Y822775D01*
X396380Y825460D01*
X397264Y828135D01*
X397993Y830267D01*
X398931Y832923D01*
X399899Y835568D01*
X400896Y838202D01*
X401920Y840826D01*
X402972Y843439D01*
X404052Y846041D01*
X405158Y848631D01*
X406291Y851210D01*
X407451Y853777D01*
X408638Y856332D01*
X409851Y858874D01*
X410841Y860898D01*
X412872Y864921D01*
X414177Y867417D01*
X415242Y869403D01*
X416324Y871380D01*
X417703Y873836D01*
X419111Y876276D01*
X420259Y878215D01*
X421427Y880142D01*
X422614Y882057D01*
X423823Y883959D01*
X425053Y885847D01*
X426304Y887721D01*
X427575Y889582D01*
X428865Y891430D01*
X430174Y893264D01*
X431834Y895539D01*
X433182Y897345D01*
X434890Y899585D01*
X436622Y901806D01*
X438026Y903569D01*
X439801Y905756D01*
X441599Y907924D01*
X443420Y910074D01*
X444892Y911779D01*
X446752Y913895D01*
X448255Y915574D01*
X450153Y917656D01*
X451685Y919307D01*
X453621Y921354D01*
X455183Y922978D01*
X457156Y924989D01*
X459148Y926979D01*
X460758Y928557D01*
X462788Y930509D01*
X464427Y932055D01*
X466080Y933587D01*
X468166Y935480D01*
X470274Y937348D01*
X471976Y938825D01*
X473693Y940284D01*
X475426Y941725D01*
X477173Y943148D01*
X479380Y944898D01*
X481164Y946275D01*
X482966Y947629D01*
X484785Y948959D01*
X486161Y949940D01*
X488013Y951224D01*
X489415Y952167D01*
X491302Y953399D01*
X492732Y954300D01*
X494174Y955181D01*
X495629Y956040D01*
X497095Y956881D01*
X499064Y957977D01*
X501048Y959046D01*
X503046Y960088D01*
X505058Y961103D01*
X507082Y962094D01*
X509117Y963061D01*
X511164Y964004D01*
X513221Y964924D01*
X515806Y966042D01*
X518406Y967125D01*
X520497Y967967D01*
X522596Y968787D01*
X525230Y969783D01*
X527877Y970746D01*
X530536Y971676D01*
X532671Y972397D01*
X535350Y973267D01*
X538039Y974105D01*
X540739Y974909D01*
X543448Y975680D01*
X545623Y976271D01*
X547803Y976840D01*
X550537Y977519D01*
X552730Y978035D01*
X554929Y978528D01*
X557134Y978995D01*
X559343Y979437D01*
X561558Y979852D01*
X563778Y980239D01*
X566003Y980597D01*
X568232Y980925D01*
X571585Y981357D01*
X574946Y981711D01*
X589541Y982950D01*
X589391Y982568D01*
X583320Y973076D01*
X582122Y971168D01*
X580672Y968753D01*
X579269Y966310D01*
X577374Y962852D01*
X576323Y960859D01*
X575293Y958855D01*
X573290Y954817D01*
X571357Y950746D01*
X569258Y946131D01*
X568123Y943553D01*
X567009Y940965D01*
X564842Y935766D01*
X563788Y933154D01*
X562546Y930010D01*
X561330Y926856D01*
X560337Y924220D01*
X558210Y918400D01*
X556897Y914681D01*
X555981Y912017D01*
X555273Y909878D01*
X554599Y907728D01*
X553971Y905564D01*
X553403Y903383D01*
X552906Y901185D01*
X552584Y899526D01*
X552304Y897860D01*
X551993Y895628D01*
X551740Y893389D01*
X551491Y890583D01*
X551261Y887211D01*
X551054Y883273D01*
X550822Y877644D01*
X550574Y870325D01*
X550469Y865819D01*
X550423Y861876D01*
X550430Y857932D01*
X550486Y854553D01*
X550621Y850612D01*
X550807Y847237D01*
X551069Y843867D01*
X551352Y841064D01*
X551552Y839386D01*
X551777Y837711D01*
X552210Y834928D01*
X552718Y832157D01*
X553305Y829402D01*
X553971Y826666D01*
X554715Y823949D01*
X555534Y821254D01*
X556425Y818582D01*
X557381Y815933D01*
X558607Y812782D01*
X559906Y809662D01*
X561268Y806568D01*
X561969Y805031D01*
X562929Y802992D01*
X563667Y801472D01*
X564674Y799456D01*
X566497Y795959D01*
X568391Y792501D01*
X569504Y790541D01*
X570637Y788593D01*
X572670Y785214D01*
X573859Y783300D01*
X575068Y781398D01*
X577232Y778102D01*
X578497Y776237D01*
X579782Y774385D01*
X582083Y771183D01*
X583429Y769376D01*
X584454Y768032D01*
X586548Y765379D01*
X587618Y764071D01*
X588707Y762778D01*
X589813Y761501D01*
X590941Y760242D01*
X592091Y759004D01*
X592872Y758192D01*
X594068Y756998D01*
X594884Y756220D01*
X596139Y755088D01*
X597439Y754009D01*
X598337Y753328D01*
X598797Y753003D01*
X599744Y752393D01*
X600232Y752111D01*
X600731Y751851D01*
X601244Y751617D01*
X601770Y751417D01*
X602311Y751259D01*
X602865Y751160D01*
X603426Y751155D01*
X603949Y751360D01*
X604441Y751635D01*
X605380Y752257D01*
X606733Y753270D01*
X608483Y754690D01*
X610617Y756528D01*
X612711Y758411D01*
X615183Y760717D01*
X617617Y763062D01*
X620412Y765844D01*
X623556Y769073D01*
X626255Y771948D01*
X628514Y774463D01*
X630342Y776606D01*
X632108Y778799D01*
X633134Y780142D01*
X633803Y781049D01*
X634782Y782427D01*
X635418Y783357D01*
X636040Y784296D01*
X636950Y785720D01*
X638405Y788132D01*
X639793Y790584D01*
X641383Y793566D01*
X643163Y797085D01*
X645135Y801137D01*
X646814Y804705D01*
X647748Y806756D01*
X648661Y808816D01*
X649768Y811406D01*
X650621Y813492D01*
X651442Y815591D01*
X652228Y817702D01*
X652975Y819828D01*
X653680Y821969D01*
X654341Y824123D01*
X654806Y825748D01*
X655385Y827926D01*
X655787Y829567D01*
X656280Y831766D01*
X656727Y833975D01*
X657128Y836192D01*
X657484Y838417D01*
X657800Y840648D01*
X658076Y842885D01*
X658261Y844565D01*
X658478Y846807D01*
X658665Y849053D01*
X658825Y851301D01*
X659077Y855801D01*
X659269Y860867D01*
X659390Y865936D01*
X659464Y872132D01*
X659606Y905370D01*
X659980Y905324D01*
X670529Y899968D01*
X673008Y898630D01*
X675942Y896952D01*
X677394Y896087D01*
X679316Y894912D01*
X681224Y893712D01*
X683117Y892490D01*
X685465Y890935D01*
X687330Y889669D01*
X691023Y887086D01*
X692852Y885770D01*
X695122Y884102D01*
X697375Y882411D01*
X699164Y881042D01*
X701385Y879309D01*
X703588Y877554D01*
X705772Y875775D01*
X707505Y874335D01*
X709225Y872879D01*
X711356Y871037D01*
X713044Y869544D01*
X714717Y868034D01*
X716372Y866505D01*
X718008Y864956D01*
X719624Y863385D01*
X721217Y861791D01*
X722394Y860579D01*
X723938Y858937D01*
X725079Y857690D01*
X726578Y856007D01*
X728052Y854303D01*
X729141Y853011D01*
X730218Y851708D01*
X731633Y849954D01*
X734053Y846841D01*
X735406Y845039D01*
X736736Y843220D01*
X738044Y841385D01*
X739331Y839535D01*
X741532Y836263D01*
X742760Y834374D01*
X743968Y832472D01*
X746032Y829112D01*
X747184Y827175D01*
X748314Y825225D01*
X749424Y823265D01*
X750515Y821292D01*
X751584Y819309D01*
X752633Y817315D01*
X754419Y813799D01*
X755411Y811775D01*
X756383Y809742D01*
X757333Y807699D01*
X758263Y805646D01*
X759395Y803067D01*
X760492Y800473D01*
X761556Y797865D01*
X762585Y795242D01*
X763577Y792606D01*
X764534Y789957D01*
X765453Y787295D01*
X766161Y785155D01*
X767011Y782470D01*
X767820Y779772D01*
X768588Y777062D01*
X769171Y774885D01*
X769577Y773245D01*
X770067Y771045D01*
X770402Y769388D01*
X770812Y767172D01*
X771186Y764950D01*
X771446Y763280D01*
X771992Y759375D01*
X772270Y757139D01*
X772526Y754900D01*
X772760Y752659D01*
X773026Y749855D01*
X773390Y745363D01*
X773579Y742552D01*
X773741Y739740D01*
X773875Y736926D01*
X773961Y734675D01*
X774073Y730169D01*
X774100Y726226D01*
X774054Y722283D01*
X773942Y718904D01*
X773787Y716092D01*
X773561Y713285D01*
X773382Y711604D01*
X773241Y710486D01*
X772988Y708815D01*
X772298Y704932D01*
X772053Y703260D01*
X771926Y702141D01*
X771841Y701018D01*
X771813Y699891D01*
X771854Y698766D01*
X771973Y697646D01*
X772170Y696536D01*
X772437Y695442D01*
X772760Y694362D01*
X773125Y693297D01*
X773522Y692242D01*
X773940Y691196D01*
X774596Y689639D01*
X776167Y686021D01*
X776813Y684460D01*
X777439Y682890D01*
X778241Y680784D01*
X779011Y678666D01*
X780287Y674935D01*
X780979Y672790D01*
X781645Y670638D01*
X782286Y668477D01*
X782902Y666310D01*
X783496Y664136D01*
X784067Y661956D01*
X784616Y659771D01*
X785270Y657031D01*
X785769Y654833D01*
X786244Y652631D01*
X786807Y649871D01*
X787231Y647658D01*
X787631Y645440D01*
X788006Y643218D01*
X788356Y640992D01*
X788678Y638762D01*
X789108Y635409D01*
X789465Y632048D01*
X789660Y629803D01*
X790068Y624184D01*
X790428Y620257D01*
X790802Y616898D01*
X791017Y615222D01*
X791258Y613549D01*
X791636Y611327D01*
X791867Y610225D01*
X792002Y609678D01*
X792160Y609137D01*
X792368Y608614D01*
X792766Y608237D01*
X793322Y608201D01*
X793867Y608342D01*
X794386Y608560D01*
X794886Y608818D01*
X795372Y609104D01*
X796311Y609727D01*
X797218Y610395D01*
X798538Y611450D01*
X799821Y612550D01*
X801076Y613682D01*
X802714Y615230D01*
X804318Y616812D01*
X805893Y618424D01*
X807441Y620061D01*
X808964Y621722D01*
X810463Y623405D01*
X812300Y625540D01*
X813382Y626838D01*
X814800Y628590D01*
X816186Y630366D01*
X817203Y631716D01*
X818195Y633084D01*
X819160Y634472D01*
X820090Y635883D01*
X820688Y636838D01*
X821262Y637807D01*
X821807Y638793D01*
X822315Y639799D01*
X822787Y640822D01*
X823231Y641858D01*
X823852Y643429D01*
X824239Y644487D01*
X824787Y646086D01*
X825298Y647697D01*
X825778Y649317D01*
X826230Y650946D01*
X826657Y652581D01*
X827062Y654222D01*
X827568Y656418D01*
X827926Y658070D01*
X828376Y660278D01*
X828798Y662491D01*
X829193Y664710D01*
X829563Y666933D01*
X829910Y669159D01*
X830466Y673063D01*
X830755Y675298D01*
X831090Y678095D01*
X831620Y683137D01*
X832060Y688188D01*
X832268Y690997D01*
X832450Y693808D01*
X832712Y698871D01*
X832877Y703375D01*
X832966Y707318D01*
X832999Y710134D01*
X833044Y718584D01*
X833107Y723091D01*
X833216Y727033D01*
X833290Y728721D01*
X833392Y730408D01*
X833536Y732092D01*
X833672Y733210D01*
X833860Y734321D01*
X833987Y734870D01*
X834147Y735410D01*
X834359Y735931D01*
X834657Y736408D01*
X835086Y736767D01*
X835628Y736903D01*
X836191Y736879D01*
X836750Y736810D01*
X837857Y736600D01*
X838951Y736334D01*
X840037Y736033D01*
X841116Y735707D01*
X842723Y735185D01*
X844320Y734632D01*
X845908Y734054D01*
X848014Y733253D01*
X849586Y732633D01*
X853232Y731129D01*
X855301Y730237D01*
X857361Y729324D01*
X860943Y727674D01*
X864492Y725954D01*
X867501Y724416D01*
X868993Y723621D01*
X870473Y722805D01*
X872908Y721389D01*
X873865Y720794D01*
X874809Y720180D01*
X875743Y719549D01*
X877125Y718576D01*
X879386Y716897D01*
X880720Y715860D01*
X882040Y714805D01*
X883779Y713371D01*
X885070Y712280D01*
X886773Y710804D01*
X888456Y709306D01*
X891361Y706639D01*
X894217Y703920D01*
X897422Y700752D01*
X900567Y697524D01*
X902116Y695887D01*
X904032Y693822D01*
X905546Y692153D01*
X907043Y690469D01*
X909620Y687484D01*
X912136Y684448D01*
X913194Y683129D01*
X914582Y681355D01*
X916611Y678651D01*
X917598Y677279D01*
X918563Y675892D01*
X919503Y674487D01*
X920419Y673067D01*
X922199Y670194D01*
X923347Y668255D01*
X924737Y665805D01*
X925813Y663825D01*
X927113Y661326D01*
X928117Y659309D01*
X929326Y656765D01*
X930484Y654197D01*
X931592Y651607D01*
X932648Y648996D01*
X933652Y646364D01*
X934605Y643714D01*
X935330Y641580D01*
X936190Y638898D01*
X936841Y636740D01*
X937608Y634030D01*
X938323Y631306D01*
X938987Y628569D01*
X939599Y625819D01*
X940161Y623059D01*
X940671Y620289D01*
X941043Y618066D01*
X941462Y615281D01*
X941830Y612488D01*
X942149Y609690D01*
X942418Y606886D01*
X942637Y604077D01*
X942806Y601266D01*
X942928Y598452D01*
X942990Y596199D01*
X943023Y593383D01*
X943009Y590566D01*
X942948Y587750D01*
X942865Y585498D01*
X942783Y583810D01*
X942473Y578749D01*
X942166Y574818D01*
X941792Y570892D01*
X941342Y566974D01*
X940810Y563067D01*
X940287Y559728D01*
X939597Y555845D01*
X939164Y553633D01*
X938706Y551427D01*
X938223Y549226D01*
X937715Y547031D01*
X937050Y544294D01*
X936494Y542110D01*
X935328Y537757D01*
X934565Y535045D01*
X933781Y532340D01*
X932322Y527484D01*
X930812Y522644D01*
X927889Y513524D01*
X926573Y509213D01*
X925638Y505965D01*
X924901Y503247D01*
X924213Y500515D01*
X923586Y497769D01*
X923139Y495560D01*
X922750Y493341D01*
X922430Y491111D01*
X922243Y489431D01*
X922108Y487747D01*
X922050Y486621D01*
X922019Y485495D01*
X921994Y482678D01*
X921936Y480426D01*
X921837Y478174D01*
X921660Y475363D01*
X921476Y473117D01*
X921194Y470315D01*
X920859Y467518D01*
X920469Y464729D01*
X920029Y461946D01*
X919539Y459173D01*
X918887Y455856D01*
X918293Y453102D01*
X917655Y450359D01*
X916831Y447081D01*
X915949Y443818D01*
X915169Y441111D01*
X914350Y438416D01*
X913668Y436269D01*
X912963Y434128D01*
X912235Y431996D01*
X910712Y427754D01*
X909717Y425119D01*
X908689Y422496D01*
X906981Y418326D01*
X905196Y414188D01*
X904042Y411618D01*
X903099Y409572D01*
X901897Y407024D01*
X900668Y404489D01*
X898389Y399960D01*
X897090Y397461D01*
X895765Y394975D01*
X893323Y390532D01*
X890807Y386130D01*
X889379Y383702D01*
X887637Y380805D01*
X884969Y376494D01*
X882237Y372223D01*
X879443Y367992D01*
X876589Y363801D01*
X873350Y359192D01*
X870377Y355085D01*
X868365Y352369D01*
X866670Y350119D01*
X863234Y345655D01*
X859736Y341239D01*
X856536Y337306D01*
X852926Y332981D01*
X849260Y328704D01*
X845914Y324895D01*
X842903Y321541D01*
X839093Y317391D01*
X836784Y314924D01*
X834065Y312066D01*
X817627Y295048D01*
X817443Y294579D01*
X820235Y278483D01*
X820849Y274587D01*
X821487Y270126D01*
X821999Y266216D01*
X822597Y261181D01*
X823078Y256700D01*
X823568Y251653D01*
X824049Y246040D01*
X824465Y240422D01*
X824785Y235362D01*
X825078Y229737D01*
X825281Y224670D01*
X825421Y219602D01*
X825490Y214532D01*
X825482Y210025D01*
X825449Y207772D01*
X825394Y205519D01*
X825262Y202142D01*
X825068Y198767D01*
X824707Y193710D01*
X824272Y188659D01*
X823758Y183614D01*
X823234Y179139D01*
X822721Y175228D01*
X822072Y170769D01*
X821351Y166320D01*
X820661Y162438D01*
X819802Y158013D01*
X818867Y153604D01*
X817982Y149762D01*
X817035Y145934D01*
X816024Y142122D01*
X814788Y137788D01*
X813803Y134555D01*
X813118Y132408D01*
X812411Y130268D01*
X811118Y126543D01*
X809752Y122843D01*
X808314Y119172D01*
X806800Y115530D01*
X805212Y111921D01*
X803548Y108346D01*
X802059Y105311D01*
X800251Y101807D01*
X799183Y99822D01*
X798364Y98344D01*
X797532Y96873D01*
X796400Y94925D01*
X795534Y93473D01*
X794357Y91552D01*
X793457Y90121D01*
X792235Y88227D01*
X790355Y85419D01*
X788418Y82649D01*
X787095Y80825D01*
X786086Y79469D01*
X784028Y76788D01*
X782624Y75025D01*
X781556Y73715D01*
X779380Y71129D01*
X777898Y69431D01*
X776773Y68170D01*
X775251Y66508D01*
X774095Y65275D01*
X772535Y63650D01*
X771350Y62444D01*
X768943Y60071D01*
X767312Y58516D01*
X766075Y57364D01*
X764827Y56225D01*
X763145Y54726D01*
X761870Y53616D01*
X760154Y52156D01*
X757105Y49654D01*
X754448Y47565D01*
X751299Y45192D01*
X748098Y42889D01*
X745316Y40970D01*
X743433Y39732D01*
X741046Y38235D01*
X738627Y36793D01*
X736177Y35403D01*
X733200Y33801D01*
X730188Y32267D01*
X727653Y31040D01*
X724584Y29625D01*
X722005Y28491D01*
X718366Y26973D01*
X715222Y25732D01*
X712057Y24546D01*
X708873Y23412D01*
X705671Y22328D01*
X702453Y21294D01*
X699220Y20309D01*
X695429Y19219D01*
X692167Y18334D01*
X688893Y17495D01*
X685608Y16700D01*
X682312Y15949D01*
X678455Y15128D01*
X674586Y14364D01*
X671262Y13755D01*
X667373Y13099D01*
X663476Y12499D01*
X660128Y12030D01*
X656775Y11604D01*
X652857Y11158D01*
X648932Y10770D01*
X645003Y10439D01*
X642193Y10239D01*
X639382Y10068D01*
X636568Y9927D01*
X633754Y9816D01*
X630938Y9737D01*
X628122Y9688D01*
X625305Y9670D01*
X622489Y9684D01*
X619672Y9731D01*
X616856Y9810D01*
X614042Y9922D01*
X609540Y10134D01*
X606164Y10311D01*
X602228Y10551D01*
X599419Y10754D01*
X597173Y10939D01*
X594369Y11206D01*
X592128Y11447D01*
X589891Y11715D01*
X587656Y12006D01*
X584867Y12402D01*
X582640Y12741D01*
X579859Y13188D01*
X577081Y13658D01*
X574307Y14144D01*
X569319Y15053D01*
X561017Y16631D01*
X554382Y17926D01*
X536700Y21438D01*
X530615Y22607D01*
X526732Y23301D01*
X523397Y23847D01*
X520052Y24334D01*
X516698Y24751D01*
X515017Y24932D01*
X512774Y25143D01*
X511090Y25279D01*
X508842Y25435D01*
X506592Y25563D01*
X504341Y25667D01*
X499836Y25816D01*
X493641Y25929D01*
X486880Y25978D01*
X477866Y25986D01*
X465473Y25954D01*
X460403Y25901D01*
X455897Y25802D01*
X453645Y25726D01*
X451394Y25626D01*
X448020Y25422D01*
X444651Y25143D01*
X441291Y24782D01*
X437939Y24342D01*
X434599Y23827D01*
X431268Y23251D01*
X427946Y22625D01*
X424080Y21849D01*
X419671Y20917D01*
X415269Y19950D01*
X409223Y18591D01*
X385616Y13155D01*
X381763Y12318D01*
X377347Y11416D01*
X374581Y10883D01*
X371255Y10278D01*
X368480Y9800D01*
X364586Y9177D01*
X361242Y8683D01*
X358451Y8303D01*
X355656Y7952D01*
X352298Y7569D01*
X348374Y7178D01*
X345567Y6937D01*
X342758Y6730D01*
X338821Y6497D01*
X336007Y6374D01*
X332065Y6264D01*
X328122Y6231D01*
X325306Y6258D01*
X322489Y6327D01*
X319113Y6470D01*
X316301Y6642D01*
X312932Y6914D01*
X310130Y7198D01*
X307333Y7537D01*
X304545Y7935D01*
X301765Y8393D01*
X622460Y143722D02*
X622463Y143967D01*
X622472Y144213D01*
X622487Y144458D01*
X622508Y144702D01*
X622535Y144946D01*
X622568Y145189D01*
X622607Y145432D01*
X622652Y145673D01*
X622703Y145913D01*
X622760Y146152D01*
X622822Y146389D01*
X622891Y146625D01*
X622965Y146859D01*
X623045Y147091D01*
X623130Y147321D01*
X623221Y147549D01*
X623318Y147774D01*
X623420Y147998D01*
X623528Y148218D01*
X623641Y148436D01*
X623759Y148651D01*
X623883Y148863D01*
X624011Y149072D01*
X624145Y149278D01*
X624284Y149480D01*
X624428Y149679D01*
X624577Y149874D01*
X624730Y150066D01*
X624888Y150254D01*
X625050Y150438D01*
X625218Y150617D01*
X625389Y150793D01*
X625565Y150964D01*
X625744Y151132D01*
X625928Y151294D01*
X626116Y151452D01*
X626308Y151605D01*
X626503Y151754D01*
X626702Y151898D01*
X626904Y152037D01*
X627110Y152171D01*
X627319Y152299D01*
X627531Y152423D01*
X627746Y152541D01*
X627964Y152654D01*
X628184Y152762D01*
X628408Y152864D01*
X628633Y152961D01*
X628861Y153052D01*
X629091Y153137D01*
X629323Y153217D01*
X629557Y153291D01*
X629793Y153360D01*
X630030Y153422D01*
X630269Y153479D01*
X630509Y153530D01*
X630750Y153575D01*
X630993Y153614D01*
X631236Y153647D01*
X631480Y153674D01*
X631724Y153695D01*
X631969Y153710D01*
X632215Y153719D01*
X632460Y153722D01*
X632705Y153719D01*
X632951Y153710D01*
X633196Y153695D01*
X633440Y153674D01*
X633684Y153647D01*
X633927Y153614D01*
X634170Y153575D01*
X634411Y153530D01*
X634651Y153479D01*
X634890Y153422D01*
X635127Y153360D01*
X635363Y153291D01*
X635597Y153217D01*
X635829Y153137D01*
X636059Y153052D01*
X636287Y152961D01*
X636512Y152864D01*
X636736Y152762D01*
X636956Y152654D01*
X637174Y152541D01*
X637389Y152423D01*
X637601Y152299D01*
X637810Y152171D01*
X638016Y152037D01*
X638218Y151898D01*
X638417Y151754D01*
X638612Y151605D01*
X638804Y151452D01*
X638992Y151294D01*
X639176Y151132D01*
X639355Y150964D01*
X639531Y150793D01*
X639702Y150617D01*
X639870Y150438D01*
X640032Y150254D01*
X640190Y150066D01*
X640343Y149874D01*
X640492Y149679D01*
X640636Y149480D01*
X640775Y149278D01*
X640909Y149072D01*
X641037Y148863D01*
X641161Y148651D01*
X641279Y148436D01*
X641392Y148218D01*
X641500Y147998D01*
X641602Y147774D01*
X641699Y147549D01*
X641790Y147321D01*
X641875Y147091D01*
X641955Y146859D01*
X642029Y146625D01*
X642098Y146389D01*
X642160Y146152D01*
X642217Y145913D01*
X642268Y145673D01*
X642313Y145432D01*
X642352Y145189D01*
X642385Y144946D01*
X642412Y144702D01*
X642433Y144458D01*
X642448Y144213D01*
X642457Y143967D01*
X642460Y143722D01*
X642457Y143477D01*
X642448Y143231D01*
X642433Y142986D01*
X642412Y142742D01*
X642385Y142498D01*
X642352Y142255D01*
X642313Y142012D01*
X642268Y141771D01*
X642217Y141531D01*
X642160Y141292D01*
X642098Y141055D01*
X642029Y140819D01*
X641955Y140585D01*
X641875Y140353D01*
X641790Y140123D01*
X641699Y139895D01*
X641602Y139670D01*
X641500Y139446D01*
X641392Y139226D01*
X641279Y139008D01*
X641161Y138793D01*
X641037Y138581D01*
X640909Y138372D01*
X640775Y138166D01*
X640636Y137964D01*
X640492Y137765D01*
X640343Y137570D01*
X640190Y137378D01*
X640032Y137190D01*
X639870Y137006D01*
X639702Y136827D01*
X639531Y136651D01*
X639355Y136480D01*
X639176Y136312D01*
X638992Y136150D01*
X638804Y135992D01*
X638612Y135839D01*
X638417Y135690D01*
X638218Y135546D01*
X638016Y135407D01*
X637810Y135273D01*
X637601Y135145D01*
X637389Y135021D01*
X637174Y134903D01*
X636956Y134790D01*
X636736Y134682D01*
X636512Y134580D01*
X636287Y134483D01*
X636059Y134392D01*
X635829Y134307D01*
X635597Y134227D01*
X635363Y134153D01*
X635127Y134084D01*
X634890Y134022D01*
X634651Y133965D01*
X634411Y133914D01*
X634170Y133869D01*
X633927Y133830D01*
X633684Y133797D01*
X633440Y133770D01*
X633196Y133749D01*
X632951Y133734D01*
X632705Y133725D01*
X632460Y133722D01*
X632215Y133725D01*
X631969Y133734D01*
X631724Y133749D01*
X631480Y133770D01*
X631236Y133797D01*
X630993Y133830D01*
X630750Y133869D01*
X630509Y133914D01*
X630269Y133965D01*
X630030Y134022D01*
X629793Y134084D01*
X629557Y134153D01*
X629323Y134227D01*
X629091Y134307D01*
X628861Y134392D01*
X628633Y134483D01*
X628408Y134580D01*
X628184Y134682D01*
X627964Y134790D01*
X627746Y134903D01*
X627531Y135021D01*
X627319Y135145D01*
X627110Y135273D01*
X626904Y135407D01*
X626702Y135546D01*
X626503Y135690D01*
X626308Y135839D01*
X626116Y135992D01*
X625928Y136150D01*
X625744Y136312D01*
X625565Y136480D01*
X625389Y136651D01*
X625218Y136827D01*
X625050Y137006D01*
X624888Y137190D01*
X624730Y137378D01*
X624577Y137570D01*
X624428Y137765D01*
X624284Y137964D01*
X624145Y138166D01*
X624011Y138372D01*
X623883Y138581D01*
X623759Y138793D01*
X623641Y139008D01*
X623528Y139226D01*
X623420Y139446D01*
X623318Y139670D01*
X623221Y139895D01*
X623130Y140123D01*
X623045Y140353D01*
X622965Y140585D01*
X622891Y140819D01*
X622822Y141055D01*
X622760Y141292D01*
X622703Y141531D01*
X622652Y141771D01*
X622607Y142012D01*
X622568Y142255D01*
X622535Y142498D01*
X622508Y142742D01*
X622487Y142986D01*
X622472Y143231D01*
X622463Y143477D01*
X622460Y143722D01*
X622460Y233722D02*
X622463Y233967D01*
X622472Y234213D01*
X622487Y234458D01*
X622508Y234702D01*
X622535Y234946D01*
X622568Y235189D01*
X622607Y235432D01*
X622652Y235673D01*
X622703Y235913D01*
X622760Y236152D01*
X622822Y236389D01*
X622891Y236625D01*
X622965Y236859D01*
X623045Y237091D01*
X623130Y237321D01*
X623221Y237549D01*
X623318Y237774D01*
X623420Y237998D01*
X623528Y238218D01*
X623641Y238436D01*
X623759Y238651D01*
X623883Y238863D01*
X624011Y239072D01*
X624145Y239278D01*
X624284Y239480D01*
X624428Y239679D01*
X624577Y239874D01*
X624730Y240066D01*
X624888Y240254D01*
X625050Y240438D01*
X625218Y240617D01*
X625389Y240793D01*
X625565Y240964D01*
X625744Y241132D01*
X625928Y241294D01*
X626116Y241452D01*
X626308Y241605D01*
X626503Y241754D01*
X626702Y241898D01*
X626904Y242037D01*
X627110Y242171D01*
X627319Y242299D01*
X627531Y242423D01*
X627746Y242541D01*
X627964Y242654D01*
X628184Y242762D01*
X628408Y242864D01*
X628633Y242961D01*
X628861Y243052D01*
X629091Y243137D01*
X629323Y243217D01*
X629557Y243291D01*
X629793Y243360D01*
X630030Y243422D01*
X630269Y243479D01*
X630509Y243530D01*
X630750Y243575D01*
X630993Y243614D01*
X631236Y243647D01*
X631480Y243674D01*
X631724Y243695D01*
X631969Y243710D01*
X632215Y243719D01*
X632460Y243722D01*
X632705Y243719D01*
X632951Y243710D01*
X633196Y243695D01*
X633440Y243674D01*
X633684Y243647D01*
X633927Y243614D01*
X634170Y243575D01*
X634411Y243530D01*
X634651Y243479D01*
X634890Y243422D01*
X635127Y243360D01*
X635363Y243291D01*
X635597Y243217D01*
X635829Y243137D01*
X636059Y243052D01*
X636287Y242961D01*
X636512Y242864D01*
X636736Y242762D01*
X636956Y242654D01*
X637174Y242541D01*
X637389Y242423D01*
X637601Y242299D01*
X637810Y242171D01*
X638016Y242037D01*
X638218Y241898D01*
X638417Y241754D01*
X638612Y241605D01*
X638804Y241452D01*
X638992Y241294D01*
X639176Y241132D01*
X639355Y240964D01*
X639531Y240793D01*
X639702Y240617D01*
X639870Y240438D01*
X640032Y240254D01*
X640190Y240066D01*
X640343Y239874D01*
X640492Y239679D01*
X640636Y239480D01*
X640775Y239278D01*
X640909Y239072D01*
X641037Y238863D01*
X641161Y238651D01*
X641279Y238436D01*
X641392Y238218D01*
X641500Y237998D01*
X641602Y237774D01*
X641699Y237549D01*
X641790Y237321D01*
X641875Y237091D01*
X641955Y236859D01*
X642029Y236625D01*
X642098Y236389D01*
X642160Y236152D01*
X642217Y235913D01*
X642268Y235673D01*
X642313Y235432D01*
X642352Y235189D01*
X642385Y234946D01*
X642412Y234702D01*
X642433Y234458D01*
X642448Y234213D01*
X642457Y233967D01*
X642460Y233722D01*
X642457Y233477D01*
X642448Y233231D01*
X642433Y232986D01*
X642412Y232742D01*
X642385Y232498D01*
X642352Y232255D01*
X642313Y232012D01*
X642268Y231771D01*
X642217Y231531D01*
X642160Y231292D01*
X642098Y231055D01*
X642029Y230819D01*
X641955Y230585D01*
X641875Y230353D01*
X641790Y230123D01*
X641699Y229895D01*
X641602Y229670D01*
X641500Y229446D01*
X641392Y229226D01*
X641279Y229008D01*
X641161Y228793D01*
X641037Y228581D01*
X640909Y228372D01*
X640775Y228166D01*
X640636Y227964D01*
X640492Y227765D01*
X640343Y227570D01*
X640190Y227378D01*
X640032Y227190D01*
X639870Y227006D01*
X639702Y226827D01*
X639531Y226651D01*
X639355Y226480D01*
X639176Y226312D01*
X638992Y226150D01*
X638804Y225992D01*
X638612Y225839D01*
X638417Y225690D01*
X638218Y225546D01*
X638016Y225407D01*
X637810Y225273D01*
X637601Y225145D01*
X637389Y225021D01*
X637174Y224903D01*
X636956Y224790D01*
X636736Y224682D01*
X636512Y224580D01*
X636287Y224483D01*
X636059Y224392D01*
X635829Y224307D01*
X635597Y224227D01*
X635363Y224153D01*
X635127Y224084D01*
X634890Y224022D01*
X634651Y223965D01*
X634411Y223914D01*
X634170Y223869D01*
X633927Y223830D01*
X633684Y223797D01*
X633440Y223770D01*
X633196Y223749D01*
X632951Y223734D01*
X632705Y223725D01*
X632460Y223722D01*
X632215Y223725D01*
X631969Y223734D01*
X631724Y223749D01*
X631480Y223770D01*
X631236Y223797D01*
X630993Y223830D01*
X630750Y223869D01*
X630509Y223914D01*
X630269Y223965D01*
X630030Y224022D01*
X629793Y224084D01*
X629557Y224153D01*
X629323Y224227D01*
X629091Y224307D01*
X628861Y224392D01*
X628633Y224483D01*
X628408Y224580D01*
X628184Y224682D01*
X627964Y224790D01*
X627746Y224903D01*
X627531Y225021D01*
X627319Y225145D01*
X627110Y225273D01*
X626904Y225407D01*
X626702Y225546D01*
X626503Y225690D01*
X626308Y225839D01*
X626116Y225992D01*
X625928Y226150D01*
X625744Y226312D01*
X625565Y226480D01*
X625389Y226651D01*
X625218Y226827D01*
X625050Y227006D01*
X624888Y227190D01*
X624730Y227378D01*
X624577Y227570D01*
X624428Y227765D01*
X624284Y227964D01*
X624145Y228166D01*
X624011Y228372D01*
X623883Y228581D01*
X623759Y228793D01*
X623641Y229008D01*
X623528Y229226D01*
X623420Y229446D01*
X623318Y229670D01*
X623221Y229895D01*
X623130Y230123D01*
X623045Y230353D01*
X622965Y230585D01*
X622891Y230819D01*
X622822Y231055D01*
X622760Y231292D01*
X622703Y231531D01*
X622652Y231771D01*
X622607Y232012D01*
X622568Y232255D01*
X622535Y232498D01*
X622508Y232742D01*
X622487Y232986D01*
X622472Y233231D01*
X622463Y233477D01*
X622460Y233722D01*
M02*
