G04 EAGLE Gerber RS-274X export*
G75*
%MOMM*%
%FSLAX34Y34*%
%LPD*%
%INSoldermask Top*%
%IPPOS*%
%AMOC8*
5,1,8,0,0,1.08239X$1,22.5*%
G01*
%ADD10C,2.667000*%
%ADD11R,2.006600X2.006600*%
%ADD12C,2.057400*%
%ADD13C,2.127000*%
%ADD14R,2.327000X0.727000*%
%ADD15C,1.651000*%


D10*
X448954Y193371D03*
X248954Y193371D03*
D11*
X301752Y778256D03*
D12*
X276352Y787908D02*
X276352Y768604D01*
D10*
X569960Y213722D03*
X694960Y213722D03*
X569960Y163722D03*
X694960Y163722D03*
D13*
X632460Y143722D03*
X632460Y233722D03*
D14*
X506568Y479298D03*
X454568Y479298D03*
X506568Y466598D03*
X506568Y491998D03*
X506568Y504698D03*
X454568Y466598D03*
X454568Y491998D03*
X454568Y504698D03*
D11*
X152908Y575818D03*
D12*
X127508Y585470D02*
X127508Y566166D01*
D11*
X887222Y594106D03*
D12*
X861822Y603758D02*
X861822Y584454D01*
D11*
X712978Y756666D03*
D12*
X687578Y766318D02*
X687578Y747014D01*
D15*
X382524Y152400D02*
X382524Y137160D01*
X357124Y137160D02*
X357124Y152400D01*
X331724Y152400D02*
X331724Y137160D01*
X306324Y137160D02*
X306324Y152400D01*
X280924Y152400D02*
X280924Y137160D01*
D11*
X489458Y832866D03*
D12*
X464058Y842518D02*
X464058Y823214D01*
M02*
