G04 EAGLE Gerber RS-274X export*
G75*
%MOMM*%
%FSLAX34Y34*%
%LPD*%
%INSoldermask Bottom*%
%IPPOS*%
%AMOC8*
5,1,8,0,0,1.08239X$1,22.5*%
G01*
%ADD10C,2.667000*%
%ADD11R,2.006600X2.006600*%
%ADD12C,2.057400*%
%ADD13C,2.127000*%
%ADD14C,1.651000*%

G36*
X499638Y811788D02*
X499638Y811788D01*
X499657Y811786D01*
X499759Y811808D01*
X499861Y811825D01*
X499878Y811834D01*
X499898Y811838D01*
X499987Y811891D01*
X500078Y811940D01*
X500092Y811954D01*
X500109Y811964D01*
X500176Y812043D01*
X500248Y812118D01*
X500256Y812136D01*
X500269Y812151D01*
X500308Y812247D01*
X500351Y812341D01*
X500353Y812361D01*
X500361Y812379D01*
X500379Y812546D01*
X500379Y851662D01*
X500376Y851682D01*
X500378Y851701D01*
X500356Y851803D01*
X500340Y851905D01*
X500331Y851921D01*
X500351Y851965D01*
X500357Y852017D01*
X500372Y852067D01*
X500370Y852138D01*
X500378Y852209D01*
X500367Y852260D01*
X500366Y852312D01*
X500341Y852380D01*
X500326Y852450D01*
X500299Y852494D01*
X500281Y852543D01*
X500237Y852599D01*
X500200Y852661D01*
X500160Y852695D01*
X500128Y852735D01*
X500067Y852774D01*
X500013Y852821D01*
X499965Y852840D01*
X499921Y852868D01*
X499851Y852886D01*
X499785Y852913D01*
X499713Y852921D01*
X499682Y852929D01*
X499659Y852927D01*
X499618Y852931D01*
X479298Y852931D01*
X479278Y852928D01*
X479259Y852930D01*
X479157Y852908D01*
X479055Y852892D01*
X479038Y852882D01*
X479018Y852878D01*
X478929Y852825D01*
X478838Y852776D01*
X478824Y852762D01*
X478807Y852752D01*
X478740Y852673D01*
X478669Y852598D01*
X478660Y852580D01*
X478647Y852565D01*
X478608Y852469D01*
X478565Y852375D01*
X478563Y852355D01*
X478555Y852337D01*
X478537Y852170D01*
X478537Y812546D01*
X478540Y812526D01*
X478538Y812507D01*
X478560Y812405D01*
X478577Y812303D01*
X478586Y812286D01*
X478590Y812266D01*
X478643Y812177D01*
X478692Y812086D01*
X478706Y812072D01*
X478716Y812055D01*
X478795Y811988D01*
X478870Y811917D01*
X478888Y811908D01*
X478903Y811895D01*
X478999Y811856D01*
X479093Y811813D01*
X479113Y811811D01*
X479131Y811803D01*
X479298Y811785D01*
X499618Y811785D01*
X499638Y811788D01*
G37*
G36*
X311932Y757178D02*
X311932Y757178D01*
X311951Y757176D01*
X312053Y757198D01*
X312155Y757215D01*
X312172Y757224D01*
X312192Y757228D01*
X312281Y757281D01*
X312372Y757330D01*
X312386Y757344D01*
X312403Y757354D01*
X312470Y757433D01*
X312542Y757508D01*
X312550Y757526D01*
X312563Y757541D01*
X312602Y757637D01*
X312645Y757731D01*
X312647Y757751D01*
X312655Y757769D01*
X312673Y757936D01*
X312673Y797052D01*
X312670Y797072D01*
X312672Y797091D01*
X312650Y797193D01*
X312634Y797295D01*
X312625Y797311D01*
X312645Y797355D01*
X312651Y797407D01*
X312666Y797457D01*
X312664Y797528D01*
X312672Y797599D01*
X312661Y797650D01*
X312660Y797702D01*
X312635Y797770D01*
X312620Y797840D01*
X312593Y797884D01*
X312575Y797933D01*
X312531Y797989D01*
X312494Y798051D01*
X312454Y798085D01*
X312422Y798125D01*
X312361Y798164D01*
X312307Y798211D01*
X312259Y798230D01*
X312215Y798258D01*
X312145Y798276D01*
X312079Y798303D01*
X312007Y798311D01*
X311976Y798319D01*
X311953Y798317D01*
X311912Y798321D01*
X291592Y798321D01*
X291572Y798318D01*
X291553Y798320D01*
X291451Y798298D01*
X291349Y798282D01*
X291332Y798272D01*
X291312Y798268D01*
X291223Y798215D01*
X291132Y798166D01*
X291118Y798152D01*
X291101Y798142D01*
X291034Y798063D01*
X290963Y797988D01*
X290954Y797970D01*
X290941Y797955D01*
X290902Y797859D01*
X290859Y797765D01*
X290857Y797745D01*
X290849Y797727D01*
X290831Y797560D01*
X290831Y757936D01*
X290834Y757916D01*
X290832Y757897D01*
X290854Y757795D01*
X290871Y757693D01*
X290880Y757676D01*
X290884Y757656D01*
X290937Y757567D01*
X290986Y757476D01*
X291000Y757462D01*
X291010Y757445D01*
X291089Y757378D01*
X291164Y757307D01*
X291182Y757298D01*
X291197Y757285D01*
X291293Y757246D01*
X291387Y757203D01*
X291407Y757201D01*
X291425Y757193D01*
X291592Y757175D01*
X311912Y757175D01*
X311932Y757178D01*
G37*
G36*
X723158Y735588D02*
X723158Y735588D01*
X723177Y735586D01*
X723279Y735608D01*
X723381Y735625D01*
X723398Y735634D01*
X723418Y735638D01*
X723507Y735691D01*
X723598Y735740D01*
X723612Y735754D01*
X723629Y735764D01*
X723696Y735843D01*
X723768Y735918D01*
X723776Y735936D01*
X723789Y735951D01*
X723828Y736047D01*
X723871Y736141D01*
X723873Y736161D01*
X723881Y736179D01*
X723899Y736346D01*
X723899Y775462D01*
X723896Y775482D01*
X723898Y775501D01*
X723876Y775603D01*
X723860Y775705D01*
X723851Y775721D01*
X723871Y775765D01*
X723877Y775817D01*
X723892Y775867D01*
X723890Y775938D01*
X723898Y776009D01*
X723887Y776060D01*
X723886Y776112D01*
X723861Y776180D01*
X723846Y776250D01*
X723819Y776294D01*
X723801Y776343D01*
X723757Y776399D01*
X723720Y776461D01*
X723680Y776495D01*
X723648Y776535D01*
X723587Y776574D01*
X723533Y776621D01*
X723485Y776640D01*
X723441Y776668D01*
X723371Y776686D01*
X723305Y776713D01*
X723233Y776721D01*
X723202Y776729D01*
X723179Y776727D01*
X723138Y776731D01*
X702818Y776731D01*
X702798Y776728D01*
X702779Y776730D01*
X702677Y776708D01*
X702575Y776692D01*
X702558Y776682D01*
X702538Y776678D01*
X702449Y776625D01*
X702358Y776576D01*
X702344Y776562D01*
X702327Y776552D01*
X702260Y776473D01*
X702189Y776398D01*
X702180Y776380D01*
X702167Y776365D01*
X702128Y776269D01*
X702085Y776175D01*
X702083Y776155D01*
X702075Y776137D01*
X702057Y775970D01*
X702057Y736346D01*
X702060Y736326D01*
X702058Y736307D01*
X702080Y736205D01*
X702097Y736103D01*
X702106Y736086D01*
X702110Y736066D01*
X702163Y735977D01*
X702212Y735886D01*
X702226Y735872D01*
X702236Y735855D01*
X702315Y735788D01*
X702390Y735717D01*
X702408Y735708D01*
X702423Y735695D01*
X702519Y735656D01*
X702613Y735613D01*
X702633Y735611D01*
X702651Y735603D01*
X702818Y735585D01*
X723138Y735585D01*
X723158Y735588D01*
G37*
G36*
X897402Y573028D02*
X897402Y573028D01*
X897421Y573026D01*
X897523Y573048D01*
X897625Y573065D01*
X897642Y573074D01*
X897662Y573078D01*
X897751Y573131D01*
X897842Y573180D01*
X897856Y573194D01*
X897873Y573204D01*
X897940Y573283D01*
X898012Y573358D01*
X898020Y573376D01*
X898033Y573391D01*
X898072Y573487D01*
X898115Y573581D01*
X898117Y573601D01*
X898125Y573619D01*
X898143Y573786D01*
X898143Y612902D01*
X898140Y612922D01*
X898142Y612941D01*
X898120Y613043D01*
X898104Y613145D01*
X898095Y613161D01*
X898115Y613205D01*
X898121Y613257D01*
X898136Y613307D01*
X898134Y613378D01*
X898142Y613449D01*
X898131Y613500D01*
X898130Y613552D01*
X898105Y613620D01*
X898090Y613690D01*
X898063Y613734D01*
X898045Y613783D01*
X898001Y613839D01*
X897964Y613901D01*
X897924Y613935D01*
X897892Y613975D01*
X897831Y614014D01*
X897777Y614061D01*
X897729Y614080D01*
X897685Y614108D01*
X897615Y614126D01*
X897549Y614153D01*
X897477Y614161D01*
X897446Y614169D01*
X897423Y614167D01*
X897382Y614171D01*
X877062Y614171D01*
X877042Y614168D01*
X877023Y614170D01*
X876921Y614148D01*
X876819Y614132D01*
X876802Y614122D01*
X876782Y614118D01*
X876693Y614065D01*
X876602Y614016D01*
X876588Y614002D01*
X876571Y613992D01*
X876504Y613913D01*
X876433Y613838D01*
X876424Y613820D01*
X876411Y613805D01*
X876372Y613709D01*
X876329Y613615D01*
X876327Y613595D01*
X876319Y613577D01*
X876301Y613410D01*
X876301Y573786D01*
X876304Y573766D01*
X876302Y573747D01*
X876324Y573645D01*
X876341Y573543D01*
X876350Y573526D01*
X876354Y573506D01*
X876407Y573417D01*
X876456Y573326D01*
X876470Y573312D01*
X876480Y573295D01*
X876559Y573228D01*
X876634Y573157D01*
X876652Y573148D01*
X876667Y573135D01*
X876763Y573096D01*
X876857Y573053D01*
X876877Y573051D01*
X876895Y573043D01*
X877062Y573025D01*
X897382Y573025D01*
X897402Y573028D01*
G37*
G36*
X163088Y554740D02*
X163088Y554740D01*
X163107Y554738D01*
X163209Y554760D01*
X163311Y554777D01*
X163328Y554786D01*
X163348Y554790D01*
X163437Y554843D01*
X163528Y554892D01*
X163542Y554906D01*
X163559Y554916D01*
X163626Y554995D01*
X163698Y555070D01*
X163706Y555088D01*
X163719Y555103D01*
X163758Y555199D01*
X163801Y555293D01*
X163803Y555313D01*
X163811Y555331D01*
X163829Y555498D01*
X163829Y594614D01*
X163826Y594634D01*
X163828Y594653D01*
X163806Y594755D01*
X163790Y594857D01*
X163781Y594873D01*
X163801Y594917D01*
X163807Y594969D01*
X163822Y595019D01*
X163820Y595090D01*
X163828Y595161D01*
X163817Y595212D01*
X163816Y595264D01*
X163791Y595332D01*
X163776Y595402D01*
X163749Y595446D01*
X163731Y595495D01*
X163687Y595551D01*
X163650Y595613D01*
X163610Y595647D01*
X163578Y595687D01*
X163517Y595726D01*
X163463Y595773D01*
X163415Y595792D01*
X163371Y595820D01*
X163301Y595838D01*
X163235Y595865D01*
X163163Y595873D01*
X163132Y595881D01*
X163109Y595879D01*
X163068Y595883D01*
X142748Y595883D01*
X142728Y595880D01*
X142709Y595882D01*
X142607Y595860D01*
X142505Y595844D01*
X142488Y595834D01*
X142468Y595830D01*
X142379Y595777D01*
X142288Y595728D01*
X142274Y595714D01*
X142257Y595704D01*
X142190Y595625D01*
X142119Y595550D01*
X142110Y595532D01*
X142097Y595517D01*
X142058Y595421D01*
X142015Y595327D01*
X142013Y595307D01*
X142005Y595289D01*
X141987Y595122D01*
X141987Y555498D01*
X141990Y555478D01*
X141988Y555459D01*
X142010Y555357D01*
X142027Y555255D01*
X142036Y555238D01*
X142040Y555218D01*
X142093Y555129D01*
X142142Y555038D01*
X142156Y555024D01*
X142166Y555007D01*
X142245Y554940D01*
X142320Y554869D01*
X142338Y554860D01*
X142353Y554847D01*
X142449Y554808D01*
X142543Y554765D01*
X142563Y554763D01*
X142581Y554755D01*
X142748Y554737D01*
X163068Y554737D01*
X163088Y554740D01*
G37*
D10*
X448954Y193371D03*
X248954Y193371D03*
D11*
X301752Y778256D03*
D12*
X276352Y787908D02*
X276352Y768604D01*
D10*
X569960Y213722D03*
X694960Y213722D03*
X569960Y163722D03*
X694960Y163722D03*
D13*
X632460Y143722D03*
X632460Y233722D03*
D11*
X152908Y575818D03*
D12*
X127508Y585470D02*
X127508Y566166D01*
D11*
X887222Y594106D03*
D12*
X861822Y603758D02*
X861822Y584454D01*
D11*
X712978Y756666D03*
D12*
X687578Y766318D02*
X687578Y747014D01*
D14*
X382524Y152400D02*
X382524Y137160D01*
X357124Y137160D02*
X357124Y152400D01*
X331724Y152400D02*
X331724Y137160D01*
X306324Y137160D02*
X306324Y152400D01*
X280924Y152400D02*
X280924Y137160D01*
D11*
X489458Y832866D03*
D12*
X464058Y842518D02*
X464058Y823214D01*
M02*
